<?xml version="1.0" encoding="UTF-8"?>
<svg version="1.1" xmlns="http://www.w3.org/2000/svg" width="1024" height="1024">
<path d="M0 0 C337.92 0 675.84 0 1024 0 C1024 337.92 1024 675.84 1024 1024 C686.08 1024 348.16 1024 0 1024 C0 686.08 0 348.16 0 0 Z " fill="#333239" transform="translate(0,0)"/>
<path d="M0 0 C0.89847656 0.68707031 1.79695313 1.37414062 2.72265625 2.08203125 C7.83933321 6.09154473 12.70700529 10.34125211 17.50390625 14.7265625 C19.14162692 16.21819541 20.79495423 17.69290781 22.46484375 19.1484375 C34.6383748 29.80268111 44.45804512 42.00997966 54 55 C54.42555176 55.5789502 54.85110352 56.15790039 55.28955078 56.75439453 C89.76661226 104.09454457 101.54208928 157.6514612 101.40297651 215.21683741 C101.39521855 219.45298422 101.40246987 223.68911458 101.40713501 227.92526245 C101.41255035 235.03712527 101.40551718 242.14889379 101.39111328 249.26074219 C101.37483298 257.39104124 101.38005893 265.52111388 101.3965925 273.65140736 C101.41037518 280.7215711 101.41204555 287.79166819 101.40427649 294.86184108 C101.39968564 299.04484481 101.39872821 303.22774364 101.40888596 307.4107399 C101.56075509 380.01529389 85.90021113 449.0742723 40 507 C39.23945312 507.96421875 38.47890625 508.9284375 37.6953125 509.921875 C33.90348702 514.64569799 30.038191 519.12226545 25.67578125 523.32421875 C23.8629262 525.1370738 22.21931185 527.04398962 20.5625 529 C17.01924381 533.09077923 13.1355508 536.52253517 9 540 C7.61361328 541.21816406 7.61361328 541.21816406 6.19921875 542.4609375 C-4.21771707 551.56021796 -15.49567897 559.34707689 -27 567 C-25.76958984 567.0093457 -24.53917969 567.01869141 -23.27148438 567.02832031 C-18.67900222 567.06838225 -14.08717858 567.13418566 -9.49511719 567.20751953 C-7.51278178 567.23563547 -5.53033621 567.25689638 -3.54785156 567.27099609 C-0.68758125 567.29255592 2.1713777 567.33927215 5.03125 567.390625 C6.34736267 567.39246796 6.34736267 567.39246796 7.69006348 567.39434814 C13.57243309 567.53239023 18.07756879 568.68799382 23 572 C26.98730902 576.19716739 29.28492929 579.97669872 29.3125 585.8125 C29.15442169 591.48667927 28.18244993 595.73116143 24.125 599.94921875 C18.83157306 604.74638692 15.60863364 606.1227126 8.38060665 606.1398077 C7.70141486 606.14275912 7.02222307 606.14571055 6.32244971 606.14875141 C4.02997247 606.15746361 1.73754556 606.15902497 -0.5549469 606.16062927 C-2.20858011 606.16535881 -3.86221216 606.17050953 -5.51584285 606.17604691 C-10.0731887 606.18997347 -14.63052654 606.19754239 -19.18788826 606.2040199 C-23.093638 606.21038533 -26.99937456 606.22045623 -30.90511609 606.23058056 C-43.77498843 606.26392561 -56.64486879 606.28543013 -69.51477018 606.30378041 C-72.86544252 606.30857449 -76.21611453 606.31355792 -79.56678653 606.31858563 C-100.36823342 606.34955639 -121.16968309 606.37624555 -141.97114658 606.39300442 C-146.79074165 606.39695401 -151.61033667 606.40095699 -156.42993164 606.4050293 C-158.22679293 606.40654184 -158.22679293 606.40654184 -160.05995446 606.40808494 C-179.46558376 606.42509203 -198.87108554 606.46620075 -218.27665258 606.51705229 C-238.19439404 606.5688171 -258.11206991 606.59794522 -278.02987808 606.6052013 C-289.21522192 606.60986504 -300.40035696 606.62463192 -311.58563423 606.6649456 C-321.11174621 606.69923738 -330.63761172 606.71318833 -340.16378189 606.70052146 C-345.023856 606.69469259 -349.8834088 606.69857473 -354.74340439 606.7286911 C-359.19559928 606.75605508 -363.64690254 606.75555399 -368.09911727 606.73318065 C-369.70687967 606.72995837 -371.31470178 606.73682241 -372.9223649 606.75497787 C-382.24876722 606.85388841 -389.62344467 606.26804254 -397 600 C-405.26791427 591.2607598 -404.2896906 580.07128934 -404.26069641 568.77267456 C-404.26371878 567.10677867 -404.2676087 565.44088417 -404.27228898 563.77499211 C-404.28256789 559.20647747 -404.28038734 554.63804131 -404.27610838 550.06952024 C-404.27364074 545.13803337 -404.28265619 540.20656539 -404.29014587 535.27508545 C-404.30289717 525.61399442 -404.30468575 515.95293118 -404.30234561 506.29183315 C-404.30056155 498.43179721 -404.30231402 490.5717697 -404.30657005 482.71173477 C-404.30716524 481.59237393 -404.30776043 480.47301309 -404.30837366 479.31973223 C-404.30958545 477.04548858 -404.31079959 474.77124494 -404.31201603 472.49700131 C-404.32289477 451.16296273 -404.32072843 429.82893995 -404.31463119 408.49490048 C-404.30947068 389.01367423 -404.32069396 369.53249813 -404.33972941 350.05128179 C-404.35914659 330.0248378 -404.36735644 309.99841747 -404.36360615 289.971964 C-404.36169884 278.73832052 -404.364135 267.50471961 -404.37832069 256.27108383 C-404.39028554 246.69936315 -404.39158311 237.1277112 -404.37953053 227.55598949 C-404.37367535 222.68037222 -404.37244794 217.80488033 -404.38453293 212.9292717 C-404.53961737 145.67902282 -385.46810622 83.58906923 -339.16796875 33.35546875 C-337.71173128 31.77328642 -336.27690488 30.17115057 -334.86328125 28.55078125 C-294.90193465 -17.15007653 -232.82920295 -44.36329582 -172.9375 -48.68359375 C-111.53987386 -52.32881817 -49.35697263 -37.80397514 0 0 Z " fill="#FEFEFE" transform="translate(664,167)"/>
<path d="M0 0 C0.33 0 0.66 0 1 0 C1.04692579 10.11202948 1.08216816 20.22403188 1.10362434 30.33614922 C1.11393683 35.03468625 1.12785775 39.7331473 1.15087891 44.43164062 C1.40396336 97.60102286 1.40396336 97.60102286 -3.625 122.9375 C-3.75282867 123.59534485 -3.88065735 124.2531897 -4.01235962 124.93096924 C-13.63004593 174.14886953 -35.34603021 217.82054365 -70 254 C-70.70898438 254.75023437 -71.41796875 255.50046875 -72.1484375 256.2734375 C-84.75907265 269.2958485 -100.32114059 280.00133548 -116 289 C-116.66 289.38124023 -117.32 289.76248047 -118 290.15527344 C-139.20081802 302.24636497 -162.02183317 310.50629642 -186 315 C-187.268508 315.25357269 -188.53701599 315.50714539 -189.84396362 315.7684021 C-207.6997542 318.99607776 -225.79093227 318.38852302 -243.86107659 318.30418181 C-248.62556666 318.2852013 -253.39006475 318.28364798 -258.15458679 318.28010559 C-267.14251347 318.27084703 -276.13032836 318.24631872 -285.1182062 318.21605712 C-295.36515712 318.18231829 -305.61211387 318.16597854 -315.85910666 318.15097082 C-336.90613308 318.11976232 -357.95305944 318.06712469 -379 318 C-378.06175031 316.89297722 -377.12169706 315.7874829 -376.1809082 314.68261719 C-375.39596733 313.75893341 -375.39596733 313.75893341 -374.59516907 312.81658936 C-372.25761015 310.1545614 -369.73180927 307.71184117 -367.1875 305.25 C-361.68579929 299.81971682 -356.71616688 294.1342583 -352 288 C-351.57364258 287.45005371 -351.14728516 286.90010742 -350.70800781 286.33349609 C-330.02083824 259.50272864 -315.86230469 228.17445553 -309 195 C-308.83628906 194.24122559 -308.67257812 193.48245117 -308.50390625 192.70068359 C-303.1539098 166.86263258 -304.03794792 137.59224328 -310 112 C-310.18191895 111.17628906 -310.36383789 110.35257813 -310.55126953 109.50390625 C-314.90761327 90.03856336 -322.415909 72.0301755 -332.09545898 54.63793945 C-332.75715949 53.43973469 -333.38786567 52.22426867 -334 51 C-332.7726992 50.99668985 -331.54539841 50.99337971 -330.28090668 50.98996925 C-301.09093847 50.91080472 -271.90101617 50.82152971 -242.71111813 50.71994839 C-239.11161156 50.70743081 -235.5121047 50.69499783 -231.91259766 50.68261719 C-231.19605646 50.68015119 -230.47951527 50.6776852 -229.74126071 50.67514448 C-218.16730014 50.63551377 -206.59332993 50.60272377 -195.01934141 50.57250018 C-183.12698485 50.54129151 -171.23466891 50.50264256 -159.34235811 50.45720994 C-152.66954419 50.43192774 -145.99674943 50.41022785 -139.32389832 50.39665604 C-133.03337177 50.38375305 -126.74294309 50.361611 -120.45247078 50.33261681 C-118.1532453 50.32360507 -115.85400409 50.31786592 -113.55476189 50.31578636 C-97.65329311 50.29884002 -82.06155383 49.98930637 -66.6875 45.4375 C-65.812146 45.1806543 -64.93679199 44.92380859 -64.03491211 44.65917969 C-39.43818639 37.09367902 -20.3065362 22.76884858 -3.38793945 3.70751953 C-2.27575923 2.45623881 -1.14021707 1.22578683 0 0 Z " fill="#2A2932" transform="translate(728,417)"/>
<path d="M0 0 C0.82757813 0.67417969 1.65515625 1.34835938 2.5078125 2.04296875 C3.33539063 2.70683594 4.16296875 3.37070313 5.015625 4.0546875 C23.28293022 19.54467516 34.57704592 42.22721045 45.92700195 62.8684082 C46.48218506 63.87605225 47.03736816 64.88369629 47.609375 65.921875 C48.09744629 66.81463135 48.58551758 67.7073877 49.08837891 68.62719727 C50.42616608 70.90401255 51.87859169 72.96768768 53.5078125 75.04296875 C53.91918457 74.30997559 54.33055664 73.57698242 54.75439453 72.82177734 C80.54675838 26.97901476 80.54675838 26.97901476 94.5078125 12.04296875 C95.36503906 11.09421875 96.22226562 10.14546875 97.10546875 9.16796875 C112.51417142 -7.17115632 134.0175549 -18.28251844 156.67578125 -19.23046875 C184.96328785 -19.90982181 207.44714488 -11.36045872 228.1328125 8.16796875 C248.21342947 28.97091008 258.11569966 57.30699816 257.71875 85.93359375 C256.81562858 115.4355601 244.36141778 140.94646471 223.3203125 161.23046875 C203.93162108 178.16803299 179.89703726 186.22576966 154.28829956 186.17668152 C153.40506236 186.17894708 152.52182516 186.18121263 151.6118232 186.18354684 C148.67593494 186.18983626 145.74009344 186.18906074 142.80419922 186.18823242 C140.68930502 186.19122712 138.57441137 186.19463036 136.45951843 186.19841003 C130.72988518 186.20722377 125.00026688 186.20958708 119.2706275 186.21022582 C115.68524999 186.21093795 112.09987624 186.21307538 108.51449966 186.21572304 C95.98980723 186.2249686 83.46512542 186.22905902 70.94042969 186.22827148 C59.29291754 186.22767128 47.6454518 186.23821387 35.99795139 186.25401515 C25.97638478 186.2671228 15.95483328 186.27245401 5.93325818 186.27181607 C-0.04244741 186.27156199 -6.01811175 186.27436369 -11.99380875 186.28499413 C-17.61959807 186.2947292 -23.2453072 186.29471743 -28.87109947 186.28747749 C-30.92565593 186.28643827 -32.98021753 186.28875479 -35.03476524 186.29483795 C-69.45552188 186.39007912 -98.48470956 178.75966206 -123.4921875 154.04296875 C-137.34768877 139.97753565 -145.1113122 122.01053624 -149.4921875 103.04296875 C-149.67249512 102.275896 -149.85280273 101.50882324 -150.03857422 100.71850586 C-150.90518163 95.60701466 -150.71778943 90.41768487 -150.73242188 85.24511719 C-150.74199672 83.20854735 -150.77299368 81.17304656 -150.8046875 79.13671875 C-151.01362565 53.5177917 -141.57512623 30.04368126 -124.4921875 11.04296875 C-123.81800781 10.2746875 -123.14382813 9.50640625 -122.44921875 8.71484375 C-90.46363277 -25.61115096 -36.42827247 -28.10957741 0 0 Z " fill="#2A2932" transform="translate(460.4921875,242.95703125)"/>
<path d="M0 0 C2 0 2 0 3.234375 1.22265625 C3.73453125 1.82980469 4.2346875 2.43695313 4.75 3.0625 C8.21961378 7.13303657 11.7939824 11.0856153 15.4375 15 C16.03232178 15.6391333 16.62714355 16.2782666 17.23999023 16.93676758 C21.8213493 21.82214864 26.54506799 26.54700789 31.3125 31.25 C37.31864585 37.20300039 42.83670338 43.29128761 48 50 C49.00119098 51.23942414 50.00391063 52.47761434 51.0078125 53.71484375 C79.6940513 89.53185816 94.19171904 134.23222547 89.53125 180.1484375 C88.03204204 192.43930631 84.79755724 204.23951455 81 216 C80.77473633 216.70576172 80.54947266 217.41152344 80.31738281 218.13867188 C73.16373021 240.05943097 60.80422163 260.42838304 46 278 C45.17628906 279.00804687 44.35257812 280.01609375 43.50390625 281.0546875 C16.4507302 313.7746349 16.4507302 313.7746349 0 322 C0 215.74 0 109.48 0 0 Z " fill="#2A2932" transform="translate(296,411)"/>
<path d="M0 0 C9.97429017 8.21115807 16.97410224 20.34854923 18.5703125 33.22265625 C19.26769597 44.85661078 19.85745263 56.54924211 14.5703125 67.22265625 C14.1578125 68.07601562 13.7453125 68.929375 13.3203125 69.80859375 C6.21463111 82.92988041 -4.7155052 90.62556867 -18.6875 95.31640625 C-34.20510177 99.4340991 -49.90505263 97.7743003 -64.2421875 90.53515625 C-77.14734562 82.87271862 -84.79580728 72.3619318 -89.4296875 58.22265625 C-92.87367464 43.09247261 -91.18086285 27.43721506 -83.6171875 13.97265625 C-75.19995531 0.88616343 -63.2490656 -7.44515441 -48.0703125 -11.390625 C-30.8297032 -13.91550713 -14.14853739 -10.34981433 0 0 Z " fill="#FDFDFD" transform="translate(304.4296875,829.77734375)"/>
<path d="M0 0 C58.77829392 0 58.77829392 0 75.81640625 16.5625 C86.98378964 29.02841634 89.93269604 42.64770428 89.37890625 58.9609375 C88.60568223 71.96758354 83.23543663 83.29925627 73.8125 92.3125 C52.62033108 109.87069768 26.88172364 105 0 105 C0 70.35 0 35.7 0 0 Z " fill="#FBFBFB" transform="translate(495,819)"/>
<path d="M0 0 C1.33611328 0.62394653 1.33611328 0.62394653 2.69921875 1.26049805 C6.93501212 3.31149218 10.44018971 5.11522923 13.5 8.8125 C12.49324219 8.89886719 11.48648438 8.98523438 10.44921875 9.07421875 C-20.13379082 11.99881343 -46.98553907 23.97464787 -69.5 44.8125 C-70.33273437 45.57433594 -71.16546875 46.33617187 -72.0234375 47.12109375 C-78.27002031 53.09370363 -83.37221517 59.88624366 -88.5 66.8125 C-91.87683882 63.54157679 -94.97297962 60.14197371 -98.00146484 56.54760742 C-119.74892592 30.7940351 -148.97095688 13.67063877 -182.90771484 10.59423828 C-187.76819835 10.2287082 -192.6292891 9.98928425 -197.5 9.8125 C-193.78195532 5.39020173 -188.9809641 3.11371633 -183.9375 0.5 C-183.00365479 0.0157959 -182.06980957 -0.4684082 -181.10766602 -0.96728516 C-165.93669695 -8.66751673 -150.13104382 -13.71862776 -133.5 -17.1875 C-132.33936035 -17.4352417 -132.33936035 -17.4352417 -131.15527344 -17.68798828 C-87.60845787 -26.55320316 -39.84221395 -18.69153658 0 0 Z " fill="#292931" transform="translate(603.5,177.1875)"/>
<path d="M0 0 C0.78753662 0.00757324 1.57507324 0.01514648 2.38647461 0.02294922 C13.55832576 0.33706797 22.96786797 4.61913455 31.125 12.25 C40.67160828 22.45499506 43.8278426 34.38110046 43.49609375 48.07421875 C42.83561928 60.62323375 37.37748051 70.84851021 28.25 79.3125 C18.27367594 87.49770797 6.94058074 89.44454849 -5.68505859 88.66699219 C-17.95439578 87.34346947 -26.68820957 79.73852736 -34.1875 70.5 C-41.45873831 60.2007956 -42.69057443 48.70615112 -41.8125 36.4375 C-40.22665562 29.00816385 -37.27445129 22.55714218 -32.8125 16.4375 C-32.11125 15.426875 -31.41 14.41625 -30.6875 13.375 C-23.04542916 4.55166269 -11.440503 -0.15521733 0 0 Z " fill="#FDFDFD" transform="translate(621.8125,279.5625)"/>
<path d="M0 0 C9.78837755 7.18911091 17.71145723 17.01244412 20.2265625 29.1484375 C21.91925668 42.8523041 19.85700045 55.15163232 11.34765625 66.24609375 C10.74179687 66.97570312 10.1359375 67.7053125 9.51171875 68.45703125 C8.98835938 69.10414063 8.465 69.75125 7.92578125 70.41796875 C1.17075006 77.96383286 -8.30817123 82.01058367 -18.2734375 82.73046875 C-30.88306772 83.1532449 -40.56051104 80.69932311 -50.45703125 72.3984375 C-59.32974604 63.91816971 -64.4808258 53.64471922 -64.78100586 41.31445312 C-64.90121574 26.98424776 -61.62150581 16.11443453 -51.609375 5.45703125 C-37.79302334 -7.49405394 -16.28921524 -10.10084775 0 0 Z " fill="#FDFDFD" transform="translate(426.48828125,285.54296875)"/>
<path d="M0 0 C8.63818942 6.65708695 14.70826808 15.88197945 16.31640625 26.78515625 C17.14005158 39.23435281 16.22128048 49.89586146 8.0078125 59.94140625 C-1.08827489 69.85677172 -11.48879343 74.57559971 -24.93359375 75.16015625 C-35.71968979 74.90370362 -45.73109935 71.08513829 -53.68359375 63.78515625 C-61.5701032 55.24257669 -65.69307221 45.41971399 -66.18359375 33.78515625 C-65.69307221 22.15059851 -61.5701032 12.32773581 -53.68359375 3.78515625 C-38.78859393 -9.88768974 -16.74306447 -10.93808546 0 0 Z " fill="#FCFCFC" transform="translate(658.68359375,853.21484375)"/>
<path d="M0 0 C0.87624023 0.00757324 1.75248047 0.01514648 2.65527344 0.02294922 C14.12112232 0.31416563 22.65055657 4.05318803 30.80859375 12.09765625 C39.26328852 21.35354405 41.72481025 31.82370959 41.4375 44.09765625 C40.8475305 55.34886633 36.00124227 64.07237483 27.875 71.625 C16.573876 80.83705208 4.13582117 81.67142359 -9.875 80.4375 C-19.85184274 78.23830348 -27.80692896 72.04164766 -33.7578125 63.84375 C-38.53830716 56.1764832 -40.26673077 49.65686632 -40.25 40.6875 C-40.24838867 39.79659668 -40.24677734 38.90569336 -40.24511719 37.98779297 C-40.12305085 31.45006353 -39.27637837 26.12984111 -35.875 20.4375 C-35.235625 19.344375 -34.59625 18.25125 -33.9375 17.125 C-25.0091068 5.4910331 -14.63447583 -0.17791817 0 0 Z " fill="#FDFDFD" transform="translate(723.875,846.5625)"/>
<path d="M0 0 C7.26 0 14.52 0 22 0 C26.78688158 16.6344135 31.41886227 33.30806996 36 50 C38.44284534 44.5741437 40.3353831 39.09672379 42.1015625 33.41796875 C42.38349457 32.52257889 42.66542664 31.62718903 42.9559021 30.70466614 C43.84900854 27.86666765 44.73730871 25.02719648 45.625 22.1875 C46.52051236 19.33017181 47.41706247 16.47317864 48.31552124 13.61677551 C48.87275319 11.84448533 49.42817049 10.07162337 49.9815979 8.29814148 C50.23210907 7.50003555 50.48262024 6.70192963 50.74072266 5.87963867 C51.07023422 4.82542976 51.07023422 4.82542976 51.40640259 3.74992371 C52 2 52 2 53 0 C58.94 0 64.88 0 71 0 C76.28 16.5 81.56 33 87 50 C89.32332478 43.13296551 89.32332478 43.13296551 91.3503418 36.21459961 C91.57034348 35.39442856 91.79034515 34.57425751 92.01701355 33.72923279 C92.24214127 32.87885941 92.46726898 32.02848602 92.69921875 31.15234375 C92.9391304 30.25504044 93.17904205 29.35773712 93.42622375 28.4332428 C94.18257778 25.60201341 94.93510314 22.76978327 95.6875 19.9375 C96.20352191 18.0031874 96.71979562 16.06894195 97.23632812 14.13476562 C98.49426473 9.42406564 99.7470048 4.71202778 101 0 C107.93 0 114.86 0 122 0 C119.7499211 10.12535505 119.7499211 10.12535505 118.61474609 13.58813477 C118.36017136 14.37163803 118.10559662 15.1551413 117.8433075 15.96238708 C117.5727504 16.78046341 117.3021933 17.59853973 117.0234375 18.44140625 C116.59349236 19.75837242 116.59349236 19.75837242 116.15486145 21.10194397 C115.2324716 23.92353565 114.30397314 26.74306966 113.375 29.5625 C112.73971931 31.49974842 112.10471048 33.437086 111.4699707 35.37451172 C109.92798216 40.0770163 108.38057038 44.77771333 106.83099365 49.47772217 C106.07793988 51.76343258 105.32672247 54.04973229 104.57666016 56.33642578 C103.45073148 59.76721748 102.32063266 63.19658209 101.1875 66.625 C100.70966064 68.07821655 100.70966064 68.07821655 100.22216797 69.56079102 C99.93615723 70.41987061 99.65014648 71.2789502 99.35546875 72.1640625 C99.11465576 72.89061035 98.87384277 73.6171582 98.62573242 74.36572266 C98 76 98 76 97 77 C95.5112814 77.08669432 94.018555 77.10703494 92.52734375 77.09765625 C91.62822266 77.09443359 90.72910156 77.09121094 89.80273438 77.08789062 C88.38444336 77.07532227 88.38444336 77.07532227 86.9375 77.0625 C85.5134082 77.05573242 85.5134082 77.05573242 84.06054688 77.04882812 C81.70696935 77.0370011 79.35351523 77.02052025 77 77 C74.99820778 70.6670448 73.00529811 64.33134456 71.01855469 57.99365234 C70.34156489 55.83773516 69.66254022 53.68245586 68.98144531 51.52783203 C68.00310849 48.43166695 67.03209973 45.33328563 66.0625 42.234375 C65.75626709 41.27070007 65.45003418 40.30702515 65.13452148 39.31414795 C64.85423096 38.41351624 64.57394043 37.51288452 64.28515625 36.58496094 C64.03644775 35.79442322 63.78773926 35.0038855 63.53149414 34.18939209 C63 32 63 32 63 28 C62.34 28 61.68 28 61 28 C60.79503906 29.258125 60.59007812 30.51625 60.37890625 31.8125 C58.83150864 39.54539801 56.24206095 46.97440351 53.77709961 54.45263672 C52.93092139 57.01995964 52.0927093 59.58977916 51.25585938 62.16015625 C50.72180659 63.79441875 50.1873174 65.42853871 49.65234375 67.0625 C49.27576881 68.21395508 49.27576881 68.21395508 48.8915863 69.38867188 C47.11795982 74.76408036 47.11795982 74.76408036 46 77 C39.07 77 32.14 77 25 77 C21.33789062 66.01367188 17.67578125 55.02734375 14.01367188 44.04101562 C13.61749664 42.85265106 13.22132141 41.6642865 12.81314087 40.43991089 C12.02008645 38.06042279 11.22742123 35.68080494 10.43515015 33.30105591 C8.58188752 27.73585408 6.72331933 22.17260675 4.84814453 16.61474609 C4.5192775 15.63716843 4.19041046 14.65959076 3.85157776 13.65238953 C3.23974738 11.83466911 2.62556872 10.01773682 2.00865173 8.20173645 C0 2.22426373 0 2.22426373 0 0 Z " fill="#FCFCFC" transform="translate(329,848)"/>
<path d="M0 0 C8.43787665 4.2668031 13.33790213 10.42963441 16.875 19.125 C19.89751964 29.49568117 18.99372665 41.42757492 14 51 C8.62797845 58.6305925 2.38214758 64.23281467 -7 66 C-18.91228152 66.74835136 -27.66785017 66.49010994 -37.25 58.75 C-44.08504821 52.37788334 -47.49789256 45.38576297 -48.37109375 36.01953125 C-48.70029119 24.66891049 -47.04321289 14.18031638 -38.9453125 5.53125 C-27.47735416 -3.49573729 -13.43296089 -5.82315546 0 0 Z " fill="#313037" transform="translate(284,841)"/>
<path d="M0 0 C13.69702939 0 26.46330986 0.25939009 36.96875 9.78515625 C44.39457541 17.69869477 46.60945354 25.02599537 46.47070312 35.68896484 C46.09056607 44.83854017 43.24504504 51.57886446 36.91015625 58.25 C25.86223541 68.37161255 15.0954192 68 0 68 C0 45.56 0 23.12 0 0 Z " fill="#302F36" transform="translate(516,838)"/>
<path d="M0 0 C2 2 2 2 2.22705078 3.97119141 C2.21657715 4.75671387 2.20610352 5.54223633 2.1953125 6.3515625 C2.18886719 7.20234375 2.18242188 8.053125 2.17578125 8.9296875 C2.15902344 9.81914063 2.14226563 10.70859375 2.125 11.625 C2.11597656 12.5221875 2.10695313 13.419375 2.09765625 14.34375 C2.0740497 16.56276586 2.0411231 18.78125077 2 21 C0.98679687 20.95359375 -0.02640625 20.9071875 -1.0703125 20.859375 C-2.42184532 20.82183242 -3.77341028 20.78543494 -5.125 20.75 C-5.79015625 20.71648438 -6.4553125 20.68296875 -7.140625 20.6484375 C-12.3114339 20.54704909 -15.09633873 21.66032378 -19 25 C-23.60186804 30.35147454 -23.6008901 34.91357986 -23.609375 41.6484375 C-23.62591125 42.66096588 -23.64244751 43.67349426 -23.65948486 44.71670532 C-23.7078927 47.93619904 -23.72932031 51.15522062 -23.75 54.375 C-23.77816563 56.56382574 -23.80809389 58.75262956 -23.83984375 60.94140625 C-23.91695408 66.29448652 -23.95754231 71.64608504 -24 77 C-30.6 77 -37.2 77 -44 77 C-44 51.92 -44 26.84 -44 1 C-38.39 1 -32.78 1 -27 1 C-26.34 3.64 -25.68 6.28 -25 9 C-24.57589844 8.60167969 -24.15179687 8.20335937 -23.71484375 7.79296875 C-16.51987903 1.29378084 -9.75753517 -1.24598708 0 0 Z " fill="#FCFBFC" transform="translate(820,847)"/>
<path d="M0 0 C6.27 0 12.54 0 19 0 C19 34.32 19 68.64 19 104 C12.73 104 6.46 104 0 104 C0 69.68 0 35.36 0 0 Z " fill="#FEFEFE" transform="translate(459,820)"/>
<path d="M0 0 C0.66 0 1.32 0 2 0 C3.39325954 1.55240341 4.71380128 3.17029985 6 4.8125 C10.05116944 9.88135451 14.29743411 14.69481134 18.69140625 19.47265625 C21.53701163 22.58789598 24.27804178 25.77662843 27 29 C25.5052346 33.26167155 23.28612374 36.8006879 20.75 40.5 C19.86168059 41.81360022 18.97367958 43.1274158 18.0859375 44.44140625 C17.35648926 45.51672607 17.35648926 45.51672607 16.61230469 46.61376953 C13.50956911 51.20585577 10.44591136 55.82410033 7.375 60.4375 C6.15379043 62.26962764 4.93244801 64.10166674 3.7109375 65.93359375 C2.92662354 67.1100647 2.92662354 67.1100647 2.12646484 68.31030273 C1.56886475 69.14670288 1.56886475 69.14670288 1 70 C-1.77800489 67.36901109 -3.9249253 64.80503244 -5.91796875 61.54296875 C-6.44632324 60.68437256 -6.97467773 59.82577637 -7.51904297 58.94116211 C-8.3449292 57.57809937 -8.3449292 57.57809937 -9.1875 56.1875 C-10.04045654 54.78866577 -10.04045654 54.78866577 -10.91064453 53.36157227 C-12.0617903 51.47211771 -13.21089737 49.5814195 -14.35791016 47.68945312 C-15.84588761 45.25240887 -17.35894573 42.83409167 -18.88671875 40.421875 C-19.71628852 39.09383912 -20.54572559 37.76572033 -21.375 36.4375 C-21.95544067 35.53777466 -21.95544067 35.53777466 -22.54760742 34.61987305 C-25.05956952 30.540371 -25.05956952 30.540371 -24.78417969 28.04223633 C-23.8490154 25.60679135 -22.67868787 24.26417342 -20.8671875 22.390625 C-20.22523438 21.71773438 -19.58328125 21.04484375 -18.921875 20.3515625 C-17.90867187 19.31128906 -17.90867187 19.31128906 -16.875 18.25 C-15.55854266 16.88150877 -14.24343463 15.51171823 -12.9296875 14.140625 C-12.27967773 13.46322266 -11.62966797 12.78582031 -10.95996094 12.08789062 C-8.38117238 9.34078054 -5.90840276 6.50984271 -3.44970703 3.65527344 C-2.34589533 2.39494279 -1.18465894 1.18465894 0 0 Z " fill="#FDFDFD" transform="translate(513,341)"/>
<path d="M0 0 C5.06807133 3.58275735 7.84783857 8.53490305 9.19921875 14.5546875 C9.87082166 21.27071656 8.56523829 26.66907439 5.19921875 32.5546875 C1.22067264 37.13661501 -3.31107519 40.10608552 -9.4140625 40.890625 C-16.79077229 40.99737912 -21.98772199 39.9855916 -27.5546875 34.9765625 C-32.7246748 29.44529898 -34.32618629 23.37308497 -34.109375 15.88671875 C-33.31642313 9.89441155 -30.84771378 5.15121851 -26.36328125 1.1171875 C-17.97249487 -5.27326373 -9.11591479 -5.06598718 0 0 Z " fill="#302F36" transform="translate(736.80078125,868.4453125)"/>
<path d="M0 0 C4.25569478 3.1755692 6.60864988 6.70914991 8.30859375 11.72265625 C9.32550347 18.80130128 9.37208383 25.84867263 5.578125 32.109375 C1.70836543 37.02694639 -3.01496325 40.25004923 -9.3046875 41.05859375 C-16.66718451 41.16514219 -21.93068758 40.18184736 -27.4453125 35.109375 C-32.45739748 29.66250675 -34.14733998 24.37627413 -33.9375 17.01953125 C-33.19176349 10.05932386 -30.00974961 4.27092274 -24.69140625 -0.27734375 C-16.66666252 -5.05155838 -7.98450795 -4.4718227 0 0 Z " fill="#302E36" transform="translate(646.69140625,868.27734375)"/>
<path d="M0 0 C4.26767066 2.45825141 6.93416419 6.57433623 8.82421875 11.05078125 C9.80331269 17.84751473 8.90963743 22.56771933 4.82421875 28.05078125 C0.60813282 32.28888329 -2.98809497 34.19017874 -8.98828125 34.30078125 C-14.36374938 34.214961 -17.95315399 33.31001649 -21.8359375 29.36328125 C-26.53913701 24.02631726 -27.4800972 20.96138321 -27.38671875 13.80859375 C-26.99384227 8.67209756 -25.01332244 5.60752619 -21.23828125 2.30078125 C-14.29721745 -2.79877583 -7.98636907 -3.31065594 0 0 Z " fill="#FCFCFC" transform="translate(350.17578125,563.94921875)"/>
<path d="M0 0 C0.33 0 0.66 0 1 0 C1.02326811 10.35383501 1.04098838 20.7076637 1.05181217 31.06151962 C1.05700953 35.87028686 1.0640494 40.67903609 1.07543945 45.48779297 C1.08638095 50.13677393 1.09230048 54.78573767 1.09487724 59.43473053 C1.09671134 61.1999463 1.10029244 62.96516122 1.10573006 64.73036957 C1.13373552 74.20687475 1.03599518 83.5652563 0 93 C-0.33 93 -0.66 93 -1 93 C-1.17677741 81.16976225 -1.34274576 69.33942758 -1.49477577 57.50884438 C-1.56570612 52.01589541 -1.64041045 46.52305101 -1.72363281 41.03027344 C-1.80375528 35.73304513 -1.874104 30.43577023 -1.93757248 25.13831711 C-1.96356868 23.11359215 -1.99313346 21.08890987 -2.02626419 19.06428909 C-2.07193979 16.23641008 -2.10511658 13.40864756 -2.13525391 10.58056641 C-2.1517952 9.73683975 -2.16833649 8.8931131 -2.18537903 8.02381897 C-2.20018792 6.0149833 -2.10994773 4.00587924 -2 2 C-1.34 1.34 -0.68 0.68 0 0 Z " fill="#111018" transform="translate(728,417)"/>
<path d="M0 0 C0.97825852 3.0782179 0.98686426 5.00356914 0.13549805 8.10668945 C-0.18527458 9.30362175 -0.18527458 9.30362175 -0.51252747 10.5247345 C-0.87177559 11.80606514 -0.87177559 11.80606514 -1.23828125 13.11328125 C-1.47910934 14.00105759 -1.71993744 14.88883392 -1.96806335 15.80351257 C-2.74050407 18.64240085 -3.52634359 21.47738285 -4.3125 24.3125 C-4.83095463 26.21004719 -5.34854262 28.1078314 -5.86523438 30.00585938 C-7.86907872 37.34910215 -9.89711354 44.68446309 -12 52 C-14.8241472 49.1758528 -15.53673561 45.79018978 -16.6875 42.0625 C-16.92533203 41.33353516 -17.16316406 40.60457031 -17.40820312 39.85351562 C-19.12270503 34.3681151 -19.12270503 34.3681151 -18 31 C-17.49384702 32.26839526 -16.99530901 33.53983102 -16.5 34.8125 C-16.08234375 35.87404297 -16.08234375 35.87404297 -15.65625 36.95703125 C-15 39 -15 39 -15 42 C-14.01 42 -13.02 42 -12 42 C-12 41.01 -12 40.02 -12 39 C-11.34 39 -10.68 39 -10 39 C-9.89695557 38.36328369 -9.79391113 37.72656738 -9.68774414 37.07055664 C-8.37647526 29.39361082 -6.49792071 21.94422867 -4.4375 14.4375 C-4.12103516 13.26380859 -3.80457031 12.09011719 -3.47851562 10.88085938 C-1.14207688 2.28415376 -1.14207688 2.28415376 0 0 Z " fill="#100F12" transform="translate(429,848)"/>
<path d="M0 0 C2.3129482 2.3129482 2.49580975 3.47904875 3.125 6.625 C3.29257812 7.44226563 3.46015625 8.25953125 3.6328125 9.1015625 C3.81457031 10.04128906 3.81457031 10.04128906 4 11 C4.99 11 5.98 11 7 11 C7.33 10.01 7.66 9.02 8 8 C9.20577428 12.94367454 8.6290678 16.20862412 7 21 C4.17772356 18.17772356 3.50354506 14.79260387 2.375 11.0625 C2.14554687 10.33353516 1.91609375 9.60457031 1.6796875 8.85351562 C0.74131792 5.80660724 0 3.20601786 0 0 Z " fill="#1D1C21" transform="translate(410,879)"/>
<path d="M0 0 C0.66 0 1.32 0 2 0 C2.69969682 2.24623699 3.38435043 4.49716414 4.0625 6.75 C4.63677734 8.62945313 4.63677734 8.62945313 5.22265625 10.546875 C6 14 6 14 5 18 C3.68 14.04 2.36 10.08 1 6 C0.01 8.31 -0.98 10.62 -2 13 C-3.18414294 9.44757118 -2.69535532 8.30169438 -1.5625 4.8125 C-1.27503906 3.91144531 -0.98757813 3.01039063 -0.69140625 2.08203125 C-0.46324219 1.39496094 -0.23507812 0.70789063 0 0 Z " fill="#18181A" transform="translate(390,876)"/>
<path d="M0 0 C4.45242726 0.61095337 7.82007403 2.29915793 11.75 4.4375 C13.47476563 5.36369141 13.47476563 5.36369141 15.234375 6.30859375 C18 8 18 8 19 10 C15.04 10 11.08 10 7 10 C7 9.67 7 9.34 7 9 C9.31 9 11.62 9 14 9 C14 8.34 14 7.68 14 7 C13.175 6.7525 12.35 6.505 11.5 6.25 C7.47626529 4.81295189 3.78020976 2.97645485 0 1 C0 0.67 0 0.34 0 0 Z " fill="#0B0B0F" transform="translate(598,176)"/>
<path d="M0 0 C0.66 0.33 1.32 0.66 2 1 C-1.96 5.29 -5.92 9.58 -10 14 C-10.99 13.67 -11.98 13.34 -13 13 C-9.57338216 8.28840047 -5.40481284 4.74963472 -1 1 C-0.67 0.67 -0.34 0.34 0 0 Z " fill="#1E1E22" transform="translate(678,701)"/>
<path d="M0 0 C0.33 0.66 0.66 1.32 1 2 C0.01 2.495 0.01 2.495 -1 3 C4.94 3.99 4.94 3.99 11 5 C11 5.33 11 5.66 11 6 C4.73 6 -1.54 6 -8 6 C-3.5 1.5 -3.5 1.5 0 0 Z " fill="#0C0C10" transform="translate(414,181)"/>
<path d="M0 0 C0.99 0 1.98 0 3 0 C3 4.62 3 9.24 3 14 C2.34 14 1.68 14 1 14 C-0.04976964 10.85069107 -0.10131595 8.61185544 -0.0625 5.3125 C-0.05347656 4.31863281 -0.04445313 3.32476563 -0.03515625 2.30078125 C-0.02355469 1.54152344 -0.01195312 0.78226563 0 0 Z " fill="#44444A" transform="translate(773,848)"/>
<path d="M0 0 C0.99 0.33 1.98 0.66 3 1 C2.04956626 2.33897583 1.08940853 3.67105427 0.125 5 C-0.40867187 5.7425 -0.94234375 6.485 -1.4921875 7.25 C-2.23855469 8.11625 -2.23855469 8.11625 -3 9 C-3.66 9 -4.32 9 -5 9 C-4.5206753 4.68607774 -3.2542015 2.83430453 0 0 Z " fill="#26252A" transform="translate(622,868)"/>
<path d="M0 0 C0.66 0.33 1.32 0.66 2 1 C2 3.64 2 6.28 2 9 C1.34 9 0.68 9 0 9 C-0.33 9.66 -0.66 10.32 -1 11 C-1.02688151 9.35425434 -1.04634123 7.70838587 -1.0625 6.0625 C-1.07410156 5.14597656 -1.08570313 4.22945312 -1.09765625 3.28515625 C-1 1 -1 1 0 0 Z " fill="#3B3A3F" transform="translate(744,882)"/>
<path d="M0 0 C0.33 0 0.66 0 1 0 C0.67 7.26 0.34 14.52 0 22 C-0.33 22 -0.66 22 -1 22 C-1.33 15.4 -1.66 8.8 -2 2 C-1.34 2 -0.68 2 0 2 C0 1.34 0 0.68 0 0 Z " fill="#09090C" transform="translate(580,311)"/>
<path d="M0 0 C1.65322266 0.01740234 1.65322266 0.01740234 3.33984375 0.03515625 C4.99693359 0.04869141 4.99693359 0.04869141 6.6875 0.0625 C7.54214844 0.07410156 8.39679688 0.08570312 9.27734375 0.09765625 C9.27734375 0.42765625 9.27734375 0.75765625 9.27734375 1.09765625 C7.62734375 1.42765625 5.97734375 1.75765625 4.27734375 2.09765625 C4.27734375 2.42765625 4.27734375 2.75765625 4.27734375 3.09765625 C1.40234375 3.22265625 1.40234375 3.22265625 -1.72265625 3.09765625 C-2.38265625 2.43765625 -3.04265625 1.77765625 -3.72265625 1.09765625 C-2.72265625 0.09765625 -2.72265625 0.09765625 0 0 Z " fill="#424048" transform="translate(492.72265625,115.90234375)"/>
<path d="M0 0 C0.66 0.33 1.32 0.66 2 1 C-1.17320782 4.53586014 -3.16743695 6.58578031 -8 7 C-5.42215154 4.35247996 -3.08351902 2.05567935 0 0 Z " fill="#1B1A1F" transform="translate(252,842)"/>
<path d="M0 0 C1.53445094 3.06890187 0.54984289 5.70094266 0 9 C-0.99 9 -1.98 9 -3 9 C-3.33 8.01 -3.66 7.02 -4 6 C-2.0625 2.8125 -2.0625 2.8125 0 0 Z " fill="#1D1D22" transform="translate(524,301)"/>
</svg>
