<?xml version="1.0" encoding="UTF-8"?>
<svg version="1.1" xmlns="http://www.w3.org/2000/svg" width="1024" height="1024">
<path d="M0 0 C337.92 0 675.84 0 1024 0 C1024 337.92 1024 675.84 1024 1024 C686.08 1024 348.16 1024 0 1024 C0 686.08 0 348.16 0 0 Z " fill="#36343C" transform="translate(0,0)"/>
<path d="M0 0 C0.78203796 0.00027191 1.56407593 0.00054382 2.36981201 0.00082397 C14.75564667 0.02053308 26.9707018 0.44015347 39.25 2.1875 C40.01328613 2.29465332 40.77657227 2.40180664 41.56298828 2.51220703 C46.81815495 3.27339183 52.03661707 4.18079389 57.25 5.1875 C57.9615625 5.32381836 58.673125 5.46013672 59.40625 5.60058594 C87.05043301 11.02175045 113.43006933 20.91976308 138.25 34.1875 C138.88244629 34.52040039 139.51489258 34.85330078 140.16650391 35.19628906 C163.12419 47.34595489 183.5828091 63.20639268 202.25 81.1875 C203.07975342 81.98438232 203.07975342 81.98438232 203.92626953 82.79736328 C210.39530693 89.04377823 216.49458989 95.39776026 222.08203125 102.4609375 C224.36200022 105.32835793 226.73886085 108.09554121 229.125 110.875 C258.24617309 145.88332382 277.43455021 189.45810601 285.25 234.1875 C285.5137184 235.69431241 285.5137184 235.69431241 285.78276443 237.23156548 C289.49982819 259.35142431 289.81934259 281.11525802 289.72143888 303.49077916 C289.70351496 308.47361811 289.70739954 313.45645116 289.7081604 318.4393158 C289.7063039 326.787327 289.68915953 335.13519029 289.66162109 343.4831543 C289.63009504 353.07414061 289.61962917 362.66496617 289.6210922 372.25600058 C289.62245199 382.5710345 289.60853399 392.88600827 289.59019899 403.20102382 C289.58597837 406.13177588 289.58452252 409.06251797 289.58372116 411.99327278 C289.56272904 451.59998721 289.56272904 451.59998721 287.25 468.1875 C287.07959733 469.43095043 287.07959733 469.43095043 286.90575218 470.69952106 C276.37450489 546.79029473 238.94727231 619.84177491 179.25 669.1875 C178.71600586 669.63528809 178.18201172 670.08307617 177.63183594 670.54443359 C166.62757869 679.75777886 155.19102728 688.22681515 143.25 696.1875 C144.05630859 696.1968457 144.86261719 696.20619141 145.69335938 696.21582031 C149.37950585 696.2698104 153.06442241 696.35340448 156.75 696.4375 C158.65265625 696.45876953 158.65265625 696.45876953 160.59375 696.48046875 C168.92405461 696.69740377 174.78963648 697.33849905 181.2734375 702.93359375 C186.29487556 709.21764774 188.09109013 714.08861603 187.25 722.1875 C185.95423438 728.56031091 182.58273824 733.45930247 177.25 737.1875 C171.74767358 739.5563299 167.54880765 740.56336962 161.48437691 740.57061005 C160.74201119 740.57556956 159.99964548 740.58052908 159.23478383 740.58563888 C156.75734885 740.59855026 154.28045681 740.59022471 151.80300903 740.58190918 C150.00481468 740.58680019 148.20662348 740.59299097 146.40843761 740.60036707 C141.47468503 740.61676288 136.54109227 740.61444937 131.60732198 740.6089921 C126.2834116 740.60632149 120.95954379 740.62085426 115.63565063 740.63308716 C105.20855013 740.65414165 94.78150523 740.65868201 84.35438599 740.65689927 C75.87925455 740.65559171 67.40414047 740.65939548 58.9290123 740.66682434 C56.48788385 740.66892353 54.04675539 740.67102113 51.60562694 740.67311716 C50.39061676 740.67416069 49.17560659 740.67520422 47.92377792 740.67627937 C24.94481794 740.69518165 1.96588988 740.6941315 -21.01307465 740.68731004 C-42.03500454 740.68173398 -63.05681259 740.70256278 -84.078714 740.73567051 C-105.66452293 740.76940249 -127.25027349 740.78457649 -148.83610928 740.77995348 C-160.95471762 740.77770838 -173.07321333 740.7829581 -185.19179916 740.80784607 C-195.50829545 740.82885271 -205.82461734 740.83245735 -216.14112078 740.81354648 C-221.40417457 740.80438502 -226.66690313 740.80325848 -231.92993164 740.82390213 C-236.75007543 740.84259948 -241.5696273 740.83812234 -246.38974847 740.81535631 C-248.13126476 740.81116747 -249.87282631 740.81538012 -251.61429475 740.82895225 C-262.53431968 740.90824586 -271.27445074 740.30594822 -279.625 732.5 C-286.11755487 722.37925271 -286.31808121 712.92502679 -286.24447632 701.25926208 C-286.24765577 699.43290894 -286.25258622 697.60655815 -286.25910914 695.78021389 C-286.27190204 690.77725692 -286.25982624 685.77462505 -286.24358058 680.77168953 C-286.23039792 675.36914504 -286.2403302 669.96663606 -286.24734497 664.56408691 C-286.25742185 653.98246412 -286.24615209 643.40096648 -286.22764437 632.81935924 C-286.20684091 620.47921015 -286.20701782 608.1390879 -286.20798953 595.79892457 C-286.20899073 573.75988498 -286.19067474 551.72090341 -286.16162109 529.68188477 C-286.13349796 508.33747005 -286.11927741 486.99311686 -286.12060547 465.64868164 C-286.12068538 464.33623092 -286.12076529 463.02378021 -286.12084763 461.67155825 C-286.12092834 460.36129816 -286.12100905 459.05103806 -286.1210922 457.70107311 C-286.12247638 433.36179825 -286.11065939 409.02254496 -286.09278577 384.68327711 C-286.08677911 376.10127885 -286.08462969 367.5192846 -286.08372116 358.93728447 C-286.08234869 348.45295421 -286.07330767 337.96866026 -286.05505554 327.48434537 C-286.04589584 322.14458859 -286.03969987 316.80487784 -286.04224396 311.46511269 C-286.06730196 242.89690272 -275.57608771 176.77573631 -233.75 120.1875 C-233.33008789 119.61741211 -232.91017578 119.04732422 -232.47753906 118.45996094 C-186.04199138 55.85715778 -119.19166569 13.86327486 -41.75 2.1875 C-40.10680786 1.93347412 -40.10680786 1.93347412 -38.43041992 1.67431641 C-34.59725747 1.16729644 -30.77976423 0.85396016 -26.921875 0.63671875 C-25.8203006 0.57396004 -25.8203006 0.57396004 -24.69647217 0.50993347 C-16.46568401 0.07423661 -8.24084342 -0.01091313 0 0 Z " fill="#FDFDFD" transform="translate(516.75,119.8125)"/>
<path d="M0 0 C0.33 0 0.66 0 1 0 C1.02347369 15.74360345 1.04104967 31.48720209 1.05181217 47.23081875 C1.05694463 54.54263841 1.0639284 61.85444713 1.07543945 69.16625977 C1.08548034 75.54732063 1.09187555 81.92837356 1.09408849 88.3094421 C1.09537981 91.68080641 1.0989079 95.05213024 1.10573006 98.42349052 C1.17659034 134.92075404 1.17659034 134.92075404 -1.8125 152.5 C-2.08296143 154.11322144 -2.08296143 154.11322144 -2.35888672 155.7590332 C-2.88769354 158.84296991 -3.43689669 161.92215842 -4 165 C-4.20616943 166.13574463 -4.20616943 166.13574463 -4.41650391 167.29443359 C-13.12332219 213.28457792 -37.0613589 257.30372031 -68 292 C-68.45084961 292.50724609 -68.90169922 293.01449219 -69.36621094 293.53710938 C-79.18378048 304.53222984 -89.37176706 314.89757175 -101 324 C-101.98484375 324.79019531 -102.9696875 325.58039063 -103.984375 326.39453125 C-149.41334697 362.52991069 -205.42040106 380.47107946 -263.07910156 380.22705078 C-264.99335728 380.22648468 -266.90761343 380.2268071 -268.8218689 380.22793579 C-273.94865962 380.22850254 -279.07535407 380.21685984 -284.20212269 380.20278788 C-289.58589484 380.19016574 -294.96966993 380.18910107 -300.35345459 380.18673706 C-310.51719211 380.18055568 -320.68088588 380.16419076 -330.84460425 380.14403808 C-342.4288802 380.1215742 -354.01315838 380.11065944 -365.59745073 380.10064721 C-389.39832461 380.07982104 -413.19915984 380.04471105 -437 380 C-434.18129903 376.57642261 -431.56847053 373.43978711 -428.125 370.625 C-424.70946734 367.70650381 -421.7820545 364.62026455 -418.88671875 361.19140625 C-417.57312928 359.66568432 -416.21770048 358.17541402 -414.83203125 356.71484375 C-390.00677726 330.51265887 -371.66861113 297.34395768 -361 263 C-360.7726416 262.3002002 -360.5452832 261.60040039 -360.31103516 260.87939453 C-358.61849614 255.6405833 -357.2362069 250.36409714 -356 245 C-355.65509521 243.52297607 -355.65509521 243.52297607 -355.30322266 242.01611328 C-348.33594232 210.8025087 -347.83845972 176.20724175 -355 145 C-355.35457749 143.30216908 -355.7087493 141.60425338 -356.0625 139.90625 C-361.23856192 116.34251565 -371.23769842 94.61669195 -383.3359375 73.890625 C-384.64368883 71.61894428 -385.84323224 69.34883742 -387 67 C-386.41376637 66.99940291 -385.82753275 66.99880582 -385.22353446 66.99819064 C-350.39237032 66.96220961 -315.56130254 66.90543774 -280.7302193 66.82207905 C-276.53759446 66.81206293 -272.34496924 66.80221857 -268.15234375 66.79248047 C-267.31775183 66.7905391 -266.48315991 66.78859772 -265.62327732 66.78659752 C-252.15220277 66.75567053 -238.6811452 66.73862296 -225.21004187 66.72680578 C-211.36271558 66.7143458 -197.5154777 66.68673598 -183.66820729 66.64538693 C-175.14021609 66.6203894 -166.61237174 66.60687259 -158.08434339 66.60857043 C-152.21726649 66.60860044 -146.35033793 66.59376796 -140.48331897 66.56783572 C-137.11038489 66.55334799 -133.73800621 66.54707006 -130.36501122 66.55419731 C-88.89435969 66.63008366 -50.15995679 55.77818518 -20 26 C-15.56060639 21.39830598 -11.66549305 16.35844292 -7.75 11.3125 C-7.11288086 10.49217285 -7.11288086 10.49217285 -6.46289062 9.65527344 C-4.58500839 7.20268162 -2.85423739 4.75673402 -1.265625 2.10546875 C-0.84796875 1.41066406 -0.4303125 0.71585937 0 0 Z " fill="#2A2A33" transform="translate(766,437)"/>
<path d="M0 0 C18.10119481 15.19905619 29.94239215 34.53837228 42.1328125 54.515625 C42.59099365 55.26142822 43.0491748 56.00723145 43.52124023 56.77563477 C44.38820202 58.18865642 45.24868764 59.60567747 46.10180664 61.02709961 C47.08847276 62.63554607 48.14846973 64.198635 49.22265625 65.75 C49.88265625 65.75 50.54265625 65.75 51.22265625 65.75 C51.61453125 65.0178125 52.00640625 64.285625 52.41015625 63.53125 C72.68800569 26.82135016 98.44712855 -9.26566316 140.37817383 -21.72851562 C167.94032822 -29.38187234 197.02131839 -26.03415575 222.03662109 -12.25048828 C248.04993328 2.67402035 267.79933133 26.78197367 276.41015625 55.625 C277.02949015 57.99609002 277.63383194 60.3711498 278.22265625 62.75 C278.67318359 64.36841797 278.67318359 64.36841797 279.1328125 66.01953125 C286.81368078 97.27887892 278.55446239 129.74212222 262.22265625 156.75 C259.76589255 160.30126837 257.09895619 163.53367235 254.22265625 166.75 C253.536875 167.56597656 252.85109375 168.38195312 252.14453125 169.22265625 C242.68194966 180.23396972 231.98854833 188.12375781 219.22265625 194.75 C218.1965625 195.29527344 217.17046875 195.84054687 216.11328125 196.40234375 C200.82108598 204.02903505 184.50764452 206.91117236 167.56051636 206.88371277 C166.00289807 206.8871111 166.00289807 206.8871111 164.41381276 206.89057809 C160.95278426 206.89688115 157.4917953 206.8960911 154.03076172 206.89526367 C151.54148814 206.8982575 149.05221502 206.90166055 146.5629425 206.90544128 C140.51319236 206.91334803 134.46345761 206.916495 128.41370372 206.91705366 C123.4912768 206.9175301 118.56885307 206.91959124 113.64642715 206.92275429 C99.66451407 206.93155475 85.68260863 206.93617473 71.70069276 206.93542381 C70.94803837 206.93538386 70.19538398 206.9353439 69.41992188 206.93530273 C68.66633928 206.93526185 67.91275668 206.93522097 67.13633825 206.93517885 C54.93499541 206.93477277 42.73368348 206.94433451 30.53234957 206.9584411 C17.97868226 206.97283949 5.42502999 206.97970935 -7.12864578 206.97884732 C-14.16628379 206.9785165 -21.2038894 206.98121283 -28.24151993 206.99202538 C-34.8653632 207.00213759 -41.48915007 207.00175977 -48.11300087 206.99450874 C-50.53522021 206.99346751 -52.95744388 206.99579817 -55.37965584 207.0018692 C-93.17676616 207.0904186 -123.93493638 197.95268872 -151.5078125 171.08984375 C-166.03515495 155.79671891 -174.78856257 137.07553235 -179.77734375 116.75 C-179.96425781 116.02699707 -180.15117187 115.30399414 -180.34375 114.55908203 C-182.13563087 106.85239442 -182.17399237 99.12013344 -182.15234375 91.25 C-182.15213226 90.54201263 -182.15192078 89.83402527 -182.15170288 89.10458374 C-182.11825235 77.88121644 -181.23918152 67.47714205 -177.77734375 56.75 C-177.25140625 55.08324219 -177.25140625 55.08324219 -176.71484375 53.3828125 C-165.75420617 22.25155715 -143.30455473 -2.12360405 -113.67578125 -16.38623047 C-75.55315391 -33.7316337 -32.00694453 -25.97368662 0 0 Z " fill="#2B2A33" transform="translate(469.77734375,254.25)"/>
<path d="M0 0 C17.49273086 13.11954814 33.51465686 27.73347241 47 45 C48.4363455 46.70930414 49.87388544 48.41760515 51.3125 50.125 C80.51230073 85.96572764 104.90379689 132.71036775 105.203125 179.92578125 C105.21018463 180.66626205 105.21724426 181.40674286 105.22451782 182.16966248 C105.44336436 211.86457166 105.44336436 211.86457166 102 226 C101.5811141 227.88651534 101.1632189 229.77325081 100.74609375 231.66015625 C92.21504858 269.01043793 74.2299135 302.41249522 48.265625 330.5234375 C46.36971939 332.59585846 44.53676856 334.7018394 42.70703125 336.83203125 C39.15772987 340.89595764 35.38417758 344.63692711 31.4375 348.3125 C30.74712646 348.95695068 30.05675293 349.60140137 29.34545898 350.26538086 C20.12235681 358.77325219 10.45274222 366.03150519 0 373 C0 249.91 0 126.82 0 0 Z " fill="#2B2A33" transform="translate(271,439)"/>
<path d="M0 0 C1.51160944 1.151585 3.01316522 2.31660089 4.5 3.5 C5.551875 4.263125 6.60375 5.02625 7.6875 5.8125 C17.22108267 14.92236788 24.27534081 27.90058399 24.87109375 41.16015625 C25.20213357 58.36752542 23.50417345 70.67424361 12.5 84.5 C11.736875 85.551875 10.97375 86.60375 10.1875 87.6875 C0.2395352 98.09816084 -13.36686501 104.41237397 -27.72827148 104.85595703 C-44.25444377 104.99840829 -57.20941423 100.19529247 -69.28515625 88.7109375 C-70.01605469 87.98132813 -70.74695313 87.25171875 -71.5 86.5 C-72.36431641 85.65308594 -72.36431641 85.65308594 -73.24609375 84.7890625 C-83.21533929 74.17246335 -87.01271271 59.65314624 -86.8515625 45.43164062 C-86.32180296 30.05389831 -80.16471962 17.01581911 -69.41796875 6.1953125 C-65.10149443 2.2082077 -60.70968072 -0.80187334 -55.5 -3.5 C-54.58476562 -4.0053125 -53.66953125 -4.510625 -52.7265625 -5.03125 C-36.05103124 -12.90945374 -14.97019619 -10.10543524 0 0 Z " fill="#FDFDFD" transform="translate(430.5,296.5)"/>
<path d="M0 0 C2.54958997 2.23136477 4.97932753 4.53454889 7.37890625 6.92578125 C7.94480469 7.46847656 8.51070312 8.01117188 9.09375 8.5703125 C19.82284563 19.81167264 23.07672045 34.71209049 22.7578125 49.6953125 C21.9614533 65.2828308 14.52587041 79.1983265 3.37890625 89.92578125 C-3.80246971 96.1438019 -11.68385582 99.11328245 -20.62109375 101.92578125 C-22.10609375 102.42078125 -22.10609375 102.42078125 -23.62109375 102.92578125 C-41.88581914 103.70959681 -55.82377257 101.3473558 -70.3046875 89.12109375 C-77.05175547 82.72673928 -82.10623839 75.52652581 -85.62109375 66.92578125 C-85.94078125 66.15492188 -86.26046875 65.3840625 -86.58984375 64.58984375 C-90.93082609 51.8482567 -90.53110015 35.00885072 -84.62109375 22.92578125 C-84.13511719 21.92417969 -83.64914062 20.92257812 -83.1484375 19.890625 C-75.25170941 5.12393016 -63.58174712 -3.6526293 -48.05078125 -9.09375 C-31.89372365 -13.71268105 -13.28535957 -10.51345147 0 0 Z " fill="#FDFDFD" transform="translate(672.62109375,298.07421875)"/>
<path d="M0 0 C0.82177734 0.24121582 1.64355469 0.48243164 2.49023438 0.73095703 C19.08586313 5.70759344 34.62631319 13.09070775 50 21 C50 21.33 50 21.66 50 22 C49.37246826 22.06469482 48.74493652 22.12938965 48.09838867 22.19604492 C16.35423117 25.56447042 -13.21667822 34.08803823 -38 55 C-38.89332031 55.7528125 -39.78664063 56.505625 -40.70703125 57.28125 C-49.1492822 64.64714638 -56.50312588 72.8788983 -63 82 C-66.6064509 80.7978497 -67.30038731 79.61911157 -69.5625 76.625 C-91.00741298 49.26424896 -121.6395804 30.96649304 -156.25 25.8125 C-157.32886475 25.64524414 -158.40772949 25.47798828 -159.51928711 25.30566406 C-168.00474977 24.03749588 -176.4241335 23.2556145 -185 23 C-183.04677683 19.09355365 -177.7468376 17.74597963 -173.9375 15.9375 C-172.39594238 15.20539307 -172.39594238 15.20539307 -170.82324219 14.45849609 C-117.3361321 -10.49944981 -56.94124219 -16.78956758 0 0 Z " fill="#2B2A33" transform="translate(584,169)"/>
<path d="M0 0 C0.33 0 0.66 0 1 0 C1 34.65 1 69.3 1 105 C-32.99 105 -66.98 105 -102 105 C-97.25672131 102.62836066 -92.71933503 102.00816396 -87.55078125 101.23242188 C-82.39944156 100.40141253 -77.82316578 98.97244077 -73 97 C-72.2059375 96.70738281 -71.411875 96.41476562 -70.59375 96.11328125 C-65.06046199 93.99700505 -59.7465851 91.49365445 -54.4375 88.875 C-53.72207031 88.52606689 -53.00664063 88.17713379 -52.26953125 87.81762695 C-48.48069419 86.12836623 -48.48069419 86.12836623 -46 83 C-44.33333333 82.33333333 -42.66666667 81.66666667 -41 81 C-40.67 80.34 -40.34 79.68 -40 79 C-39.34 79 -38.68 79 -38 79 C-38 78.34 -38 77.68 -38 77 C-37.360625 76.71125 -36.72125 76.4225 -36.0625 76.125 C-33.84793921 75.17176549 -33.84793921 75.17176549 -33 73 C-32.34 73 -31.68 73 -31 73 C-30.505 71.515 -30.505 71.515 -30 70 C-27.5625 67.3125 -27.5625 67.3125 -25 65 C-24.34 65 -23.68 65 -23 65 C-22.87625 64.401875 -22.7525 63.80375 -22.625 63.1875 C-22 61 -22 61 -20 58 C-19.34 58 -18.68 58 -18 58 C-17.67 56.35 -17.34 54.7 -17 53 C-16.34 53 -15.68 53 -15 53 C-14.82984375 52.43152344 -14.6596875 51.86304688 -14.484375 51.27734375 C-14.12085938 50.11912109 -14.12085938 50.11912109 -13.75 48.9375 C-13.51796875 48.18339844 -13.2859375 47.42929687 -13.046875 46.65234375 C-12 44 -12 44 -10.0859375 40.84765625 C-7.4415528 36.33381819 -6.19630779 31.53177003 -4.875 26.5 C-4.61638184 25.53690918 -4.35776367 24.57381836 -4.09130859 23.58154297 C-2.05729511 15.76432032 -0.72667148 8.04350159 0 0 Z " fill="#000000" transform="translate(1023,919)"/>
<path d="M0 0 C4.38439014 2.37521692 7.73001526 5.34494965 11.3125 8.75 C12.46415327 9.82886254 13.6164951 10.90699054 14.76953125 11.984375 C15.32334473 12.50322266 15.8771582 13.02207031 16.44775391 13.55664062 C21.1275515 17.9081605 25.96415588 22.06574678 31 26 C29.72266259 30.18661406 28.14526276 33.790273 25.9453125 37.5703125 C25.33582764 38.6229126 24.72634277 39.6755127 24.09838867 40.76000977 C23.44717041 41.87045654 22.79595215 42.98090332 22.125 44.125 C21.4519598 45.27970919 20.77919228 46.43457737 20.10668945 47.58959961 C18.0798852 51.06491268 16.04036228 54.53262976 14 58 C13.39043457 59.0401123 12.78086914 60.08022461 12.15283203 61.15185547 C10.50487393 63.95971011 8.84854171 66.76236958 7.1875 69.5625 C6.69072754 70.40635254 6.19395508 71.25020508 5.68212891 72.11962891 C5.22370605 72.88581543 4.7652832 73.65200195 4.29296875 74.44140625 C3.8961792 75.10857666 3.49938965 75.77574707 3.09057617 76.46313477 C2 78 2 78 0 79 C-0.59683594 77.96488281 -1.19367187 76.92976563 -1.80859375 75.86328125 C-2.42275146 74.80016724 -2.42275146 74.80016724 -3.04931641 73.71557617 C-3.99137122 72.08479082 -4.93241853 70.45342314 -5.87255859 68.8215332 C-8.6541066 64.00650834 -11.46336406 59.20981979 -14.31745911 54.43751526 C-15.87174194 51.83771777 -17.41916269 49.23386059 -18.96658325 46.62997437 C-19.7360418 45.33971893 -20.50886979 44.05146669 -21.28512573 42.76528931 C-22.38883368 40.93577614 -23.48056602 39.09957259 -24.5703125 37.26171875 C-25.20727051 36.19912842 -25.84422852 35.13653809 -26.50048828 34.04174805 C-28.0352703 30.92845447 -28.72906081 28.45082798 -29 25 C-27.83984375 23.3046875 -27.83984375 23.3046875 -25.9375 21.875 C-25.2053125 21.29621094 -24.473125 20.71742188 -23.71875 20.12109375 C-22.8215625 19.42113281 -21.924375 18.72117187 -21 18 C-18.6276234 16.00024431 -16.28442268 13.96701741 -13.9375 11.9375 C-12.78059106 10.94586376 -11.62304813 9.95496665 -10.46484375 8.96484375 C-6.97463507 5.97880967 -3.48703591 2.98973816 0 0 Z " fill="#FCFCFC" transform="translate(519,359)"/>
<path d="M0 0 C0.33 0 0.66 0 1 0 C1.15855469 0.72703125 1.31710938 1.4540625 1.48046875 2.203125 C4.49571304 15.1969954 9.69749485 25.86740541 17 37 C17.46664063 37.72574219 17.93328125 38.45148437 18.4140625 39.19921875 C20.42270488 42.18626435 22.53127207 44.56288207 25.3125 46.8125 C26.199375 47.534375 27.08625 48.25625 28 49 C28 49.66 28 50.32 28 51 C28.556875 51.2475 29.11375 51.495 29.6875 51.75 C32.3993235 53.21585054 34.6152634 55.05455699 37 57 C37.99 57.495 37.99 57.495 39 58 C39 58.66 39 59.32 39 60 C39.71414062 60.27070312 40.42828125 60.54140625 41.1640625 60.8203125 C44.0227179 62.00945014 46.66646292 63.37715571 49.375 64.875 C50.26960938 65.36742187 51.16421875 65.85984375 52.0859375 66.3671875 C54.12441498 67.5093907 56.1267087 68.7175131 58.09765625 69.97265625 C63.07278394 72.81558636 68.56210709 74.09147903 74.0625 75.5625 C75.72236938 76.01701538 75.72236938 76.01701538 77.41577148 76.48071289 C85.22577842 78.59376668 93.04560721 80.50588329 101 82 C101 82.33 101 82.66 101 83 C67.67 83 34.34 83 0 83 C0 55.61 0 28.22 0 0 Z " fill="#000000" transform="translate(0,941)"/>
<path d="M0 0 C4.20305855 3.20233032 8.24079315 7.23158631 10.625 12 C11.61363995 25.76491007 11.61363995 25.76491007 7.625 31 C2.22311242 36.39063364 -1.37604559 39.13209125 -9.1875 39.25 C-15.21836159 39.16301642 -18.8657874 38.5092126 -23.25 34.125 C-28.8856995 27.94391022 -29.80390826 23.65885219 -29.7109375 15.30078125 C-29.12361509 9.52999706 -26.8043392 6.33766603 -22.71875 2.40625 C-16.13388513 -2.61610456 -7.66743296 -2.27183199 0 0 Z " fill="#FCFCFC" transform="translate(334.375,611)"/>
<path d="M0 0 C0.66 0.33 1.32 0.66 2 1 C5.66579172 1.23422401 9.32532072 1.39360638 12.99609375 1.51757812 C18.25683976 1.74877177 22.92932775 2.56698393 28 4 C24.47001672 5.17666109 21.86362584 5.02013769 18.14453125 4.87890625 C17.48289474 4.85529526 16.82125824 4.83168427 16.13957214 4.80735779 C14.03031998 4.73090143 11.9214518 4.64680043 9.8125 4.5625 C8.38087804 4.5092612 6.94923746 4.45652093 5.51757812 4.40429688 C2.01148424 4.27531118 -1.49430571 4.13946876 -5 4 C-3.35 2.68 -1.7 1.36 0 0 Z " fill="#25242C" transform="translate(663,813)"/>
<path d="M0 0 C0.33 0.66 0.66 1.32 1 2 C-0.09346881 3.34212062 -1.2001575 4.67347975 -2.3125 6 C-3.23482422 7.11375 -3.23482422 7.11375 -4.17578125 8.25 C-6 10 -6 10 -9 10 C-6.03 6.7 -3.06 3.4 0 0 Z " fill="#2C2B32" transform="translate(736,747)"/>
<path d="M0 0 C0.66 0.33 1.32 0.66 2 1 C-0.97 3.64 -3.94 6.28 -7 9 C-7.66 8.67 -8.32 8.34 -9 8 C-6.03 5.36 -3.06 2.72 0 0 Z " fill="#24232B" transform="translate(441,383)"/>
<path d="M0 0 C0.66 0.66 1.32 1.32 2 2 C1.625 5.625 1.625 5.625 1 9 C0.01 9 -0.98 9 -2 9 C-1.34 6.03 -0.68 3.06 0 0 Z " fill="#36353C" transform="translate(408,690)"/>
<path d="M0 0 C0 0.66 0 1.32 0 2 C-0.66 2 -1.32 2 -2 2 C-2 2.66 -2 3.32 -2 4 C-3.875 4.625 -3.875 4.625 -6 5 C-6.66 4.34 -7.32 3.68 -8 3 C-2.25 0 -2.25 0 0 0 Z " fill="#36353C" transform="translate(416,183)"/>
</svg>
