<?xml version="1.0" encoding="UTF-8"?>
<svg version="1.1" xmlns="http://www.w3.org/2000/svg" width="1507" height="696">
<path d="M0 0 C497.31 0 994.62 0 1507 0 C1507 229.68 1507 459.36 1507 696 C1009.69 696 512.38 696 0 696 C0 466.32 0 236.64 0 0 Z " fill="#8ADDAE" transform="translate(0,0)"/>
<path d="M0 0 C497.31 0 994.62 0 1507 0 C1507 82.17 1507 164.34 1507 249 C1500 248 1500 248 1497.3125 247 C1491.08916494 245.12125734 1484.47306344 245 1478 245 C1478 244.34 1478 243.68 1478 243 C1477.28714844 243.08378906 1476.57429688 243.16757813 1475.83984375 243.25390625 C1470.31808315 243.84101135 1465.50240511 244.01064584 1460 243 C1458.68 243 1457.36 243 1456 243 C1454.04426839 242.9886962 1452.08853945 242.97692747 1450.1328125 242.96484375 C1447.79687574 242.95554252 1445.46093819 242.94643528 1443.125 242.9375 C1441.95324219 242.92912109 1440.78148437 242.92074219 1439.57421875 242.91210938 C1437.87072266 242.90727539 1437.87072266 242.90727539 1436.1328125 242.90234375 C1435.10043457 242.89710693 1434.06805664 242.89187012 1433.00439453 242.88647461 C1429.95838428 242.93715084 1429.95838428 242.93715084 1426.82763672 243.53344727 C1423.63049072 244.06096807 1421.14986884 243.67497189 1418 243 C1418 243.66 1418 244.32 1418 245 C1417.35023193 244.97897217 1416.70046387 244.95794434 1416.03100586 244.9362793 C1408.69748752 244.80429027 1401.78361391 245.58895944 1394.5625 246.8125 C1393.52029297 246.97814453 1392.47808594 247.14378906 1391.40429688 247.31445312 C1384.16117893 248.504426 1377.09631614 250.1335403 1370 252 C1367.39617047 252.66252358 1364.79361126 253.27328398 1362.171875 253.8671875 C1361.45386719 254.03089844 1360.73585938 254.19460937 1359.99609375 254.36328125 C1358.51523847 254.70065871 1357.03347689 255.03408595 1355.55078125 255.36328125 C1350.51493589 256.52125639 1345.79996915 258.09836935 1341 260 C1335.83709923 261.9106245 1330.67335052 263.79788605 1325.4375 265.5 C1321.35744028 266.84059105 1317.3928568 268.40974693 1313.4140625 270.0234375 C1308.68459467 271.93665264 1304.00137413 273.76755129 1299.0625 275.0625 C1298.051875 275.371875 1297.04125 275.68125 1296 276 C1295.67 276.66 1295.34 277.32 1295 278 C1293.40204105 278.72910674 1291.76866536 279.38077981 1290.125 280 C1284.32654726 282.33326961 1278.83321305 285.07236554 1273.3125 288 C1272.52955566 288.41507812 1271.74661133 288.83015625 1270.93994141 289.2578125 C1268.62135253 290.4956908 1266.30983818 291.74587867 1264 293 C1263.20585693 293.42627686 1262.41171387 293.85255371 1261.59350586 294.29174805 C1257.453355 296.54241683 1253.61308075 298.83702987 1249.9375 301.8125 C1249.18339844 302.41707031 1248.42929688 303.02164062 1247.65234375 303.64453125 C1247.10707031 304.09183594 1246.56179688 304.53914063 1246 305 C1245.34 304.67 1244.68 304.34 1244 304 C1243.443125 304.433125 1242.88625 304.86625 1242.3125 305.3125 C1239.14474081 307.62410806 1235.81251762 309.55504987 1232.375 311.4375 C1229.91343169 312.85988339 1229.91343169 312.85988339 1228.4375 315.125 C1226.65379352 317.45157367 1225.78118257 317.31585883 1223 318 C1214.02638998 322.55183117 1205.08701203 328.84989884 1198 336 C1196.700625 336.7734375 1196.700625 336.7734375 1195.375 337.5625 C1192.88809625 338.77912906 1192.88809625 338.77912906 1192 341 C1190.80847148 341.61693355 1189.59540448 342.192362 1188.375 342.75 C1182.55529607 345.83705449 1178.1393933 350.32895771 1173.49365234 354.92285156 C1169.55517922 358.76440011 1165.81947901 361.36336011 1161 364 C1158.87185604 365.7727611 1158.87185604 365.7727611 1157.1875 367.625 C1156.62417969 368.21539062 1156.06085938 368.80578125 1155.48046875 369.4140625 C1154.99191406 369.93742187 1154.50335937 370.46078125 1154 371 C1152.32337646 372.67662354 1150.62896879 374.17031211 1148.8125 375.6875 C1146.16027544 377.92153147 1143.79230815 380.26930719 1141.4375 382.8125 C1138.48393113 385.84625627 1136.35469786 386.89378786 1132 387 C1132 387.66 1132 388.32 1132 389 C1131.34 389 1130.68 389 1130 389 C1129.773125 389.5775 1129.54625 390.155 1129.3125 390.75 C1127.65273655 393.59530878 1125.57933333 394.93653334 1123 397 C1121.1332295 399.09207039 1119.3324576 401.22574996 1117.55078125 403.390625 C1116.78314453 404.18726563 1116.78314453 404.18726563 1116 405 C1115.34 405 1114.68 405 1114 405 C1113.67 405.99 1113.34 406.98 1113 408 C1112.34 408 1111.68 408 1111 408 C1110.34 409.32 1109.68 410.64 1109 412 C1104.14127499 411.46014167 1099.34912799 410.73258483 1094.53515625 409.87890625 C1054.79534062 402.83897655 1014.73895816 402.0727725 974.5 404 C971.4427433 404.14438391 968.38544194 404.28750593 965.32800293 404.42797852 C963.44678661 404.51459228 961.56567136 404.60344498 959.68469238 404.69506836 C954.48376163 404.93663301 949.30897357 405.02992916 944.10241699 404.96655273 C941.85896715 404.94769046 941.85896715 404.94769046 939.125 405.5 C932.94140559 406.4893751 926.0481637 406.82313068 920 405 C920 405.66 920 406.32 920 407 C905.92170492 408.21611289 891.83677558 409.34434372 877.74707031 410.41952515 C875.9675196 410.55573053 874.18805812 410.69310712 872.40869141 410.83169556 C869.86775998 411.02921718 867.32651912 411.22218147 864.78515625 411.4140625 C864.03271133 411.47334427 863.28026642 411.53262604 862.50502014 411.59370422 C857.90611205 411.93489402 853.36886477 412.0275578 848.7575531 411.92294312 C846.97185255 411.80299544 846.97185255 411.80299544 846 413 C843.53018231 413.1002074 841.09448776 413.13877038 838.625 413.125 C837.93921875 413.12886719 837.2534375 413.13273437 836.546875 413.13671875 C833.42777362 413.13065046 830.98024365 412.99341455 828 412 C828 412.66 828 413.32 828 414 C813.50456335 415.19720666 799.02819725 416.14600921 784.48828125 416.5546875 C783.41824765 416.58567504 783.41824765 416.58567504 782.32659721 416.61728859 C765.27477996 417.10131871 748.22356893 417.18743251 731.16577148 417.18530273 C727.75100471 417.18522094 724.33637059 417.19227736 720.92163086 417.20581055 C669.83241118 417.40464086 669.83241118 417.40464086 652.2223053 413.40446472 C648.79602525 412.7808738 645.47421556 412.93683244 642 413 C641.67 412.67 641.34 412.34 641 412 C639.88625 412 638.7725 412 637.625 412 C634 412 634 412 631 411 C629.5237808 410.84400032 628.04359853 410.72452982 626.5625 410.625 C615.10739947 409.64749809 603.2204444 408.41573385 592.2890625 404.734375 C589.69468079 403.90204776 587.1006608 403.32619838 584.4375 402.75 C569.04647713 399.27283669 553.51882702 395.2419524 539 389 C538.23300781 388.67902344 537.46601562 388.35804688 536.67578125 388.02734375 C535.11086767 387.36632917 533.55386242 386.68659037 532 386 C532 385.34 532 384.68 532 384 C531.33613281 384.0825 530.67226563 384.165 529.98828125 384.25 C525.78161629 383.89806986 522.81696203 382.05611629 519.1875 380 C518.49462891 379.6184375 517.80175781 379.236875 517.08789062 378.84375 C515.38673572 377.90518177 513.69263947 376.9538396 512 376 C512 375.34 512 374.68 512 374 C511.30519531 373.90332031 510.61039062 373.80664062 509.89453125 373.70703125 C498.27676515 370.86922334 487.70056735 361.30791146 478.47363281 354.08813477 C476.97327133 352.91516176 476.97327133 352.91516176 475 352 C475 351.34 475 350.68 475 350 C474.18015625 349.64228516 474.18015625 349.64228516 473.34375 349.27734375 C470.41837853 347.6830163 468.05461667 345.6995351 465.5 343.5625 C461.65872611 340.34661704 461.65872611 340.34661704 457.65625 337.33984375 C456.83640625 336.67662109 456.83640625 336.67662109 456 336 C456 335.34 456 334.68 456 334 C455.44054687 333.77054687 454.88109375 333.54109375 454.3046875 333.3046875 C451.38049302 331.64929605 449.44063651 329.55605765 447.125 327.125 C443.57617211 323.49267028 440.29165489 320.65673874 436 318 C433.66767199 315.93422376 432.11733206 314.20405576 430.5625 311.5 C428.73548546 308.57677674 426.76446374 307.04043752 424 305 C420.17573542 302.13654239 417.19969427 299.08154751 414.1875 295.375 C413.39730469 294.41335938 412.60710937 293.45171875 411.79296875 292.4609375 C410 290 410 290 410 288 C409.11030518 287.60494263 409.11030518 287.60494263 408.20263672 287.2019043 C405.90253155 285.94681477 404.52427359 284.69007869 402.7578125 282.76953125 C402.16613281 282.13080078 401.57445312 281.49207031 400.96484375 280.83398438 C400.35769531 280.16689453 399.75054687 279.49980469 399.125 278.8125 C398.22587891 277.84086914 398.22587891 277.84086914 397.30859375 276.84960938 C395.5243878 274.91252678 393.76019886 272.95889918 392 271 C391.41186523 270.35853027 390.82373047 269.71706055 390.21777344 269.05615234 C389.3945459 268.13697021 389.3945459 268.13697021 388.5546875 267.19921875 C388.06210449 266.65483154 387.56952148 266.11044434 387.06201172 265.54956055 C386 264 386 264 386 261 C385.43152344 260.94328125 384.86304688 260.8865625 384.27734375 260.828125 C380.97465352 259.62714673 379.69089786 257.50917088 377.5625 254.75 C375.23810314 251.7586023 372.983841 248.98414239 370.27734375 246.328125 C368 244 368 244 367 241 C366.13375 240.5978125 366.13375 240.5978125 365.25 240.1875 C361.90788997 238.4236086 360.2646887 236.01958493 358 233 C358 232.34 358 231.68 358 231 C357.34 231 356.68 231 356 231 C352 226.52941176 352 226.52941176 352 224 C351.13375 223.62875 351.13375 223.62875 350.25 223.25 C347.67060021 221.81700012 345.93878408 220.21575324 344 218 C344 217.34 344 216.68 344 216 C343.360625 215.731875 342.72125 215.46375 342.0625 215.1875 C340 214 340 214 339 211 C338.01 210.67 337.02 210.34 336 210 C336 209.34 336 208.68 336 208 C335.13375 207.62875 335.13375 207.62875 334.25 207.25 C331.67060021 205.81700012 329.93878408 204.21575324 328 202 C328 201.34 328 200.68 328 200 C327.1646875 199.62875 327.1646875 199.62875 326.3125 199.25 C321.17478015 196.47285414 315.52081405 192.13108774 312.9375 186.8125 C312.16107879 184.86186434 312.16107879 184.86186434 310.26953125 184.18359375 C307.29184004 182.63068422 305.19145816 180.55194626 302.75 178.25 C298.99438969 174.75939622 295.18576849 171.49798319 291.02734375 168.49609375 C288.61936239 166.71910558 286.31705055 164.83134497 284 162.9375 C280.89624003 160.42470362 277.80056834 158.17670966 274.375 156.125 C272.704375 155.073125 272.704375 155.073125 271 154 C271 153.34 271 152.68 271 152 C270.43410156 151.73445312 269.86820312 151.46890625 269.28515625 151.1953125 C266.03104196 149.49316041 263.11906253 147.35542688 260.12109375 145.2421875 C257.97822046 143.7473238 257.97822046 143.7473238 255 144 C253.65073502 142.68279099 252.32032612 141.34621487 251 140 C249.01717866 138.69053946 246.99304268 137.44206193 244.9375 136.25 C243.37322266 135.32960937 243.37322266 135.32960937 241.77734375 134.390625 C239.07058535 132.77614171 239.07058535 132.77614171 236 133 C236 132.34 236 131.68 236 131 C234.75283203 130.61328125 234.75283203 130.61328125 233.48046875 130.21875 C230.3218599 129.11270515 227.37019965 127.83891522 224.33984375 126.43579102 C217.31243346 123.19204539 210.77427315 120.80707497 203 120 C203 119.34 203 118.68 203 118 C202.00033203 117.81824219 202.00033203 117.81824219 200.98046875 117.6328125 C200.05878906 117.46523437 199.13710937 117.29765625 198.1875 117.125 C196.68123047 116.85429687 196.68123047 116.85429687 195.14453125 116.578125 C193.13879254 116.20936807 191.1357334 115.82549597 189.13671875 115.421875 C183.29274177 114.26465184 177.95190043 113.90400161 172 114 C171.67 113.67 171.34 113.34 171 113 C165.72325166 112.03379268 160.58891327 111.83967822 155.234375 111.83203125 C154.40149963 111.82870285 153.56862427 111.82537445 152.71051025 111.82194519 C150.94893948 111.81690162 149.18735923 111.81453607 147.42578125 111.81469727 C144.7993067 111.81254049 142.17327376 111.79444043 139.546875 111.77539062 C125.352879 111.72840998 111.17180822 112.43223336 97.28125 115.5625 C93.63235024 116.262289 89.95271569 116.49618882 86.25 116.75390625 C83.96694182 116.87181477 83.96694182 116.87181477 82 118 C80.29297265 118.06996014 78.58331997 118.08440154 76.875 118.0625 C75.50988281 118.04896484 75.50988281 118.04896484 74.1171875 118.03515625 C73.06917969 118.01775391 73.06917969 118.01775391 72 118 C72 118.66 72 119.32 72 120 C70.96875 119.95875 69.9375 119.9175 68.875 119.875 C65.04998643 119.99838753 62.58565234 120.7808782 59 122 C56.71841614 122.3270802 54.4446329 122.55651401 52.1484375 122.75390625 C48.86448095 123.13006855 45.80726062 124.05353872 42.625 124.9375 C38.87977113 125.88249281 35.1399751 126.42660232 31.3125 126.9375 C25.31504126 127.74534735 19.51442469 128.95201752 13.64453125 130.4140625 C11 131 11 131 8 131 C7.505 131.99 7.505 131.99 7 133 C5.824375 132.9690625 5.824375 132.9690625 4.625 132.9375 C2.01885039 132.81315937 2.01885039 132.81315937 0 134 C0 89.78 0 45.56 0 0 Z " fill="#31AD66" transform="translate(0,0)"/>
<path d="M0 0 C2.71384172 0.00539482 5.42752049 0.00000736 8.14135742 -0.00634766 C9.88680049 -0.00568736 11.63224346 -0.00440722 13.37768555 -0.00244141 C14.57945183 -0.00547775 14.57945183 -0.00547775 15.80549622 -0.00857544 C28.30218198 0.04314877 28.30218198 0.04314877 30.3894043 2.13037109 C31.69522461 2.11232422 33.00104492 2.09427734 34.34643555 2.07568359 C39.45483559 2.02109155 44.11086079 2.8823364 49.0769043 4.00537109 C50.29990234 4.26640625 50.29990234 4.26640625 51.54760742 4.53271484 C55.93545611 5.49045061 60.14472857 6.64565869 64.3894043 8.13037109 C65.84684117 8.5294925 67.30516163 8.9254033 68.7644043 9.31787109 C73.57087074 10.74444789 78.11423172 12.62698641 82.7019043 14.63037109 C83.38365723 14.92709717 84.06541016 15.22382324 84.76782227 15.52954102 C88.48030173 17.17937968 91.90680314 19.0303101 95.3894043 21.13037109 C97.05514291 21.79935322 98.72186782 22.46588307 100.3894043 23.13037109 C102.49313904 24.23830246 104.57612287 25.38631215 106.6394043 26.56787109 C108.22495117 27.463125 108.22495117 27.463125 109.8425293 28.37646484 C112.3894043 30.13037109 112.3894043 30.13037109 113.3894043 33.13037109 C114.8744043 32.63537109 114.8744043 32.63537109 116.3894043 32.13037109 C118.72866774 33.48855805 120.83631772 34.86161828 123.0144043 36.44287109 C123.6125293 36.85988281 124.2106543 37.27689453 124.8269043 37.70654297 C129.24393842 40.83943935 129.24393842 40.83943935 130.3894043 43.13037109 C131.65865272 43.83878882 132.95602444 44.49713387 134.2644043 45.13037109 C139.49040438 47.93031073 143.4685977 51.67109072 147.7644043 55.71630859 C149.92892469 57.70689432 152.07270988 59.47562996 154.4519043 61.19287109 C158.53287477 64.14719328 162.20526141 67.4825593 165.91674805 70.88427734 C168.8437851 73.54311827 171.85524339 76.09185477 174.89331055 78.62255859 C176.3894043 80.13037109 176.3894043 80.13037109 177.3894043 83.13037109 C178.70343705 83.83431721 180.04143 84.49382768 181.3894043 85.13037109 C185.18970373 87.83058385 187.97229362 90.92479006 190.92456055 94.47802734 C192.44556515 96.28969508 192.44556515 96.28969508 194.8269043 98.06787109 C197.83249913 100.4870084 200.12348316 103.23823435 202.61206055 106.17333984 C204.23525525 107.96063775 205.86079618 109.40587368 207.7644043 110.88037109 C210.466558 113.19650284 210.79916768 113.82504602 211.3894043 117.13037109 C212.3794043 117.46037109 213.3694043 117.79037109 214.3894043 118.13037109 C214.3894043 118.79037109 214.3894043 119.45037109 214.3894043 120.13037109 C215.0494043 120.13037109 215.7094043 120.13037109 216.3894043 120.13037109 C221.3894043 125.60656157 221.3894043 125.60656157 221.3894043 128.13037109 C222.5340918 128.47068359 222.5340918 128.47068359 223.7019043 128.81787109 C226.3894043 130.13037109 226.3894043 130.13037109 227.7019043 132.32568359 C230.13853958 136.37546169 233.36754671 139.53522453 236.62573242 142.93310547 C240.3894043 146.92792408 240.3894043 146.92792408 240.3894043 149.13037109 C240.9875293 149.19224609 241.5856543 149.25412109 242.2019043 149.31787109 C244.3894043 150.13037109 244.3894043 150.13037109 245.66674805 152.28662109 C247.77843337 155.77257782 250.34168667 158.49982312 253.1394043 161.44287109 C254.21965374 162.59444397 255.29908434 163.74678553 256.37768555 164.89990234 C256.89669434 165.45371582 257.41570312 166.0075293 257.95043945 166.578125 C259.78630874 168.5585215 261.56284104 170.58592692 263.3269043 172.63037109 C265.15002053 174.73972538 266.97620593 176.71717273 268.9519043 178.69287109 C271.93216384 181.67313064 274.89377849 184.72568572 277.3894043 188.13037109 C277.3894043 188.79037109 277.3894043 189.45037109 277.3894043 190.13037109 C278.3794043 190.46037109 279.3694043 190.79037109 280.3894043 191.13037109 C280.3894043 191.79037109 280.3894043 192.45037109 280.3894043 193.13037109 C281.4722168 193.47068359 281.4722168 193.47068359 282.5769043 193.81787109 C286.8425548 195.80850799 289.52154518 198.64777844 291.8894043 202.69287109 C293.69387289 205.62513255 295.63964645 207.05277628 298.3894043 209.13037109 C300.36166738 210.81906846 302.30719189 212.53592527 304.25268555 214.25537109 C305.71698561 215.54031448 307.19432372 216.81050744 308.68237305 218.06787109 C309.77485352 218.99599609 309.77485352 218.99599609 310.8894043 219.94287109 C311.5597168 220.50619141 312.2300293 221.06951172 312.9206543 221.64990234 C314.3894043 223.13037109 314.3894043 223.13037109 314.3894043 225.13037109 C314.91276367 225.34564453 315.43612305 225.56091797 315.9753418 225.78271484 C319.3573606 227.67073505 322.1027214 230.1548975 325.0144043 232.69287109 C328.94761361 236.27610787 328.94761361 236.27610787 333.3894043 239.13037109 C333.3894043 239.79037109 333.3894043 240.45037109 333.3894043 241.13037109 C333.96899902 241.40437744 334.54859375 241.67838379 335.14575195 241.96069336 C337.35140775 243.11056245 339.27521643 244.38701736 341.2878418 245.84521484 C342.01487305 246.36664063 342.7419043 246.88806641 343.4909668 247.42529297 C344.99960493 248.51529698 346.50742599 249.60643282 348.0144043 250.69873047 C352.0266168 253.57320426 355.95349446 255.93988311 360.3894043 258.13037109 C360.7194043 258.79037109 361.0494043 259.45037109 361.3894043 260.13037109 C362.71089256 260.50793917 364.04776351 260.8322287 365.3894043 261.13037109 C367.06382819 261.7773076 368.73243051 262.43996535 370.3894043 263.13037109 C370.3894043 263.79037109 370.3894043 264.45037109 370.3894043 265.13037109 C371.1937793 265.35724609 371.9981543 265.58412109 372.8269043 265.81787109 C376.56292759 267.19430073 379.74098446 268.96545579 383.14331055 271.00927734 C385.55978061 272.2154111 387.7311999 272.71458868 390.3894043 273.13037109 C390.3894043 273.79037109 390.3894043 274.45037109 390.3894043 275.13037109 C390.92952148 275.25154297 391.46963867 275.37271484 392.02612305 275.49755859 C394.82765919 276.24772199 397.48342041 277.24306267 400.2019043 278.25537109 C406.7693916 280.62352165 413.39742951 282.7257948 420.0769043 284.75537109 C421.02605713 285.04428223 421.97520996 285.33319336 422.953125 285.63085938 C431.88136214 288.32253408 440.81005614 290.8963584 449.9519043 292.75537109 C456.17498655 294.02316222 456.17498655 294.02316222 458.3894043 295.13037109 C462.61884804 295.9376389 466.88311993 296.54387946 471.1394043 297.19287109 C472.32018555 297.37914062 473.5009668 297.56541016 474.7175293 297.75732422 C475.8622168 297.93328125 477.0069043 298.10923828 478.1862793 298.29052734 C479.23138672 298.45174072 480.27649414 298.6129541 481.35327148 298.77905273 C484.42018896 299.19443953 484.42018896 299.19443953 487.65209961 299.12036133 C490.3894043 299.13037109 490.3894043 299.13037109 492.3894043 300.13037109 C493.92964426 300.19987651 495.47275417 300.21489467 497.0144043 300.19287109 C498.24030273 300.17933594 498.24030273 300.17933594 499.4909668 300.16552734 C500.11745117 300.15392578 500.74393555 300.14232422 501.3894043 300.13037109 C501.3894043 300.46037109 501.3894043 300.79037109 501.3894043 301.13037109 C503.0909668 301.06849609 503.0909668 301.06849609 504.8269043 301.00537109 C507.8752115 300.99997498 510.51917906 301.31394641 513.46850586 302.06884766 C535.955214 307.25066229 560.81041766 305.44455389 583.73608398 305.39111328 C588.61940753 305.3798149 593.50251045 305.38642142 598.38582611 305.39801788 C619.56235246 305.44027373 640.65423025 305.10193376 661.79595947 303.8291626 C663.29552335 303.73898807 664.79509582 303.6489561 666.29467773 303.55908203 C666.99742954 303.51683125 667.70018135 303.47458046 668.42422867 303.43104935 C674.41683836 303.08940716 680.38927227 303.02724979 686.3894043 303.13037109 C686.3894043 302.47037109 686.3894043 301.81037109 686.3894043 301.13037109 C688.30366211 301.14777344 688.30366211 301.14777344 690.2565918 301.16552734 C691.92586117 301.17490526 693.59513212 301.18400546 695.2644043 301.19287109 C696.10616211 301.20125 696.94791992 301.20962891 697.81518555 301.21826172 C698.62084961 301.22148437 699.42651367 301.22470703 700.2565918 301.22802734 C701.00021973 301.23326416 701.74384766 301.23850098 702.51000977 301.24389648 C704.48072997 301.24823746 704.48072997 301.24823746 706.3894043 300.13037109 C709.10080574 299.96129987 711.79995549 299.84581756 714.5144043 299.75537109 C727.45504874 299.24601787 740.35414698 298.18342756 753.26098633 297.14648438 C761.6504194 296.48355067 769.96497414 295.88357559 778.3894043 296.13037109 C778.3894043 295.47037109 778.3894043 294.81037109 778.3894043 294.13037109 C780.00008789 294.14777344 780.00008789 294.14777344 781.64331055 294.16552734 C783.07950671 294.17491425 784.51570477 294.18401348 785.9519043 294.19287109 C786.65637695 294.20125 787.36084961 294.20962891 788.08666992 294.21826172 C791.3210625 294.23316675 794.34650478 294.13677954 797.5534668 293.65771484 C803.41700475 292.85162765 809.28991447 292.7927945 815.2019043 292.63037109 C816.56543918 292.59041049 817.92896444 292.55012041 819.29248047 292.50952148 C822.17109024 292.42433259 825.04975428 292.34140424 827.9284668 292.25976562 C832.40536213 292.13162617 836.88174386 291.98916264 841.3581543 291.84521484 C872.19138674 290.86179568 872.19138674 290.86179568 884.3894043 291.13037109 C885.73663574 291.15719971 885.73663574 291.15719971 887.11108398 291.18457031 C909.83334153 291.6984279 932.18411138 294.11454228 954.52612305 298.26318359 C956.14680475 298.55454745 957.76788084 298.84372888 959.3894043 299.13037109 C960.54098022 299.34270386 960.54098022 299.34270386 961.71582031 299.55932617 C964.08979759 299.97826136 964.08979759 299.97826136 967.3894043 300.13037109 C969.85080789 297.82666065 969.85080789 297.82666065 971.1003418 295.88818359 C972.98335207 293.32044232 975.37099297 291.51104362 977.83862305 289.52490234 C979.6434245 288.01777768 979.6434245 288.01777768 981.3894043 285.13037109 C983.38606027 283.45969977 985.38591464 281.79284123 987.3894043 280.13037109 C987.7194043 279.47037109 988.0494043 278.81037109 988.3894043 278.13037109 C989.0494043 278.13037109 989.7094043 278.13037109 990.3894043 278.13037109 C990.3894043 277.47037109 990.3894043 276.81037109 990.3894043 276.13037109 C992.3694043 275.63537109 992.3694043 275.63537109 994.3894043 275.13037109 C989.47981439 281.02187899 984.19883871 286.37058326 978.69213867 291.70068359 C975.38072619 294.95540523 972.48019877 297.91745939 970.3894043 302.13037109 C970.3894043 302.46037109 970.3894043 302.79037109 970.3894043 303.13037109 C969.5437793 303.29537109 968.6981543 303.46037109 967.8269043 303.63037109 C963.72294686 305.42118888 962.03651654 307.56962783 959.2487793 310.97412109 C956.81107466 313.80103908 954.07168909 316.13167902 951.2331543 318.54443359 C948.25080196 321.10976209 945.53762147 323.92774962 942.82299805 326.77099609 C941.38022296 328.25896654 939.88787223 329.69850174 938.3894043 331.13037109 C937.7294043 331.13037109 937.0694043 331.13037109 936.3894043 331.13037109 C936.1315918 331.71302734 935.8737793 332.29568359 935.6081543 332.89599609 C934.29106413 335.3106614 932.83852046 336.94777287 930.8894043 338.88037109 C929.97674805 339.80076172 929.97674805 339.80076172 929.0456543 340.73974609 C927.3894043 342.13037109 927.3894043 342.13037109 925.3894043 342.13037109 C925.3894043 342.79037109 925.3894043 343.45037109 925.3894043 344.13037109 C923.74487305 345.75146484 923.74487305 345.75146484 921.5769043 347.56787109 C918.56477164 350.10376441 918.56477164 350.10376441 915.75268555 352.85302734 C914.3894043 354.13037109 914.3894043 354.13037109 912.3894043 354.13037109 C912.15479492 354.71173828 911.92018555 355.29310547 911.6784668 355.89208984 C910.09187368 358.64699245 908.29161671 360.02203318 905.7644043 361.94287109 C902.53290474 364.4464719 899.37552971 366.9693506 896.3269043 369.69287109 C892.75082857 372.87484868 889.00382168 375.77959855 885.17456055 378.64990234 C883.27540103 380.02255177 883.27540103 380.02255177 882.3894043 382.13037109 C879.73184366 383.87876625 877.41557984 385.12164591 874.3894043 386.13037109 C874.3894043 386.79037109 874.3894043 387.45037109 874.3894043 388.13037109 C872.9206543 389.42724609 872.9206543 389.42724609 870.8894043 390.88037109 C870.15592773 391.41017578 869.42245117 391.93998047 868.66674805 392.48583984 C867.91522461 393.02853516 867.16370117 393.57123047 866.3894043 394.13037109 C865.07635104 395.1504927 863.76383554 396.17130692 862.4519043 397.19287109 C859.00108166 399.79280596 855.39987912 401.82238286 851.59643555 403.85693359 C849.43578695 405.10360871 847.53958007 406.46936396 845.5769043 408.00537109 C837.8932405 413.93928967 829.19275021 418.36456178 820.4909668 422.60302734 C818.38557977 423.63981113 816.29712849 424.7115697 814.2253418 425.81396484 C804.30726619 431.02850342 794.03446492 434.69297436 783.3894043 438.13037109 C782.36065186 438.46601074 781.33189941 438.80165039 780.27197266 439.14746094 C734.53367035 453.70594596 682.53450836 446.28488571 635.8656311 439.79867554 C603.60775554 435.33459343 570.96472437 432.48874556 538.3894043 432.13037109 C536.45145996 432.10765137 536.45145996 432.10765137 534.47436523 432.08447266 C519.43755905 431.92784866 504.37830654 431.78090775 489.3894043 433.13037109 C488.4598291 433.21125977 487.53025391 433.29214844 486.57250977 433.37548828 C464.5674752 435.37562697 443.02466774 439.45759336 421.9543457 446.15429688 C416.57649313 447.85011835 411.32383775 448.99798373 405.7019043 449.61083984 C402.92827426 450.23396957 401.64963095 451.41404925 399.3894043 453.13037109 C396.75462209 454.40604667 394.04480868 455.48285788 391.3269043 456.56787109 C390.57119141 456.87499023 389.81547852 457.18210937 389.03686523 457.49853516 C383.96808129 459.54375816 378.86591387 461.45995703 373.6862793 463.20849609 C371.06409574 464.26093711 368.80292553 465.66693441 366.3894043 467.13037109 C365.02886884 467.70740753 363.65252463 468.24827178 362.2644043 468.75537109 C351.04106565 473.13685465 339.69473206 478.24788618 329.5925293 484.84130859 C327.22741412 486.22515258 324.78570845 487.26965285 322.2590332 488.32226562 C319.08346717 489.69483334 316.02938731 491.30301625 312.9519043 492.88037109 C306.71155683 496.04452191 300.39560874 498.94073405 293.96533203 501.69580078 C290.41025261 503.22484836 286.93942947 504.82988697 283.5144043 506.63037109 C278.87561501 508.99710032 274.09929167 510.95621328 269.2644043 512.88037109 C268.51175293 513.18652344 267.75910156 513.49267578 266.98364258 513.80810547 C262.07884029 515.72227957 257.63789321 516.67812035 252.3894043 517.13037109 C252.3894043 517.79037109 252.3894043 518.45037109 252.3894043 519.13037109 C246.40061718 520.83945186 240.39982426 522.49909081 234.3894043 524.13037109 C233.34888916 524.41799316 233.34888916 524.41799316 232.28735352 524.71142578 C192.03396826 535.69780833 151.00912151 531.56952117 111.3894043 520.13037109 C109.5570035 519.62696428 107.72373001 519.12671805 105.8894043 518.63037109 C98.88775084 516.73580604 91.96210486 514.70576712 85.0690918 512.45068359 C84.28857452 512.19664764 83.50805725 511.94261169 82.70388794 511.68087769 C80.22367169 510.87356178 77.74398253 510.06464429 75.2644043 509.25537109 C72.01220487 508.19422855 68.75966016 507.13415944 65.5065918 506.07568359 C64.72314392 505.82063049 63.93969604 505.56557739 63.13250732 505.30279541 C57.36277207 503.43070611 51.57432053 501.63320341 45.76489258 499.88769531 C43.3894043 499.13037109 43.3894043 499.13037109 41.3894043 498.13037109 C35.9931282 495.87374654 30.90388141 494.55986728 25.1394043 493.59912109 C20.57190804 492.8205706 16.04739436 491.81393533 11.56005859 490.65991211 C7.45353674 489.65810737 3.29047845 488.9226923 -0.8605957 488.13037109 C-1.77711914 487.95248047 -2.69364258 487.77458984 -3.63793945 487.59130859 C-8.95164161 486.57556524 -14.23447397 485.73613129 -19.6105957 485.13037109 C-19.6105957 484.47037109 -19.6105957 483.81037109 -19.6105957 483.13037109 C-20.6005957 483.46037109 -21.5905957 483.79037109 -22.6105957 484.13037109 C-24.10294987 484.18930527 -25.59792819 484.19145376 -27.09106445 484.15771484 C-27.99630859 484.14401855 -28.90155273 484.13032227 -29.83422852 484.11621094 C-30.81230469 484.10025879 -31.79038086 484.08430664 -32.7980957 484.06787109 C-41.3620815 483.99838919 -49.82585339 484.28914538 -58.3605957 485.00537109 C-59.32247803 485.08392334 -60.28436035 485.16247559 -61.27539062 485.2434082 C-71.27522875 486.14477035 -80.95505666 488.08549413 -90.6730957 490.56787109 C-91.97561279 490.89827393 -91.97561279 490.89827393 -93.30444336 491.23535156 C-105.29619435 494.25047234 -105.29619435 494.25047234 -116.6105957 499.13037109 C-118.39850882 499.95109783 -120.19061642 500.76271578 -121.9855957 501.56787109 C-125.94047551 503.34944517 -129.82591824 505.21037288 -133.66137695 507.23583984 C-136.24262253 508.42041948 -138.91388997 509.24580404 -141.6105957 510.13037109 C-141.6448174 463.72952609 -141.67666057 417.32868004 -141.69528198 370.92782593 C-141.6955581 370.24155986 -141.69583421 369.55529379 -141.69611869 368.84823178 C-141.70210389 353.93540005 -141.70764435 339.02256819 -141.71272636 324.10973612 C-141.71522113 316.79695296 -141.71781423 309.48416983 -141.72045898 302.17138672 C-141.7207205 301.44365985 -141.72098202 300.71593297 -141.72125146 299.96615377 C-141.72978085 276.35974702 -141.74480845 252.75334982 -141.76319014 229.14694886 C-141.78203859 204.89720661 -141.7943627 180.64746964 -141.79842568 156.39772018 C-141.79900203 152.97606775 -141.7996533 149.55441532 -141.80035019 146.13276291 C-141.80048504 145.45930347 -141.80061988 144.78584403 -141.80075881 144.09197673 C-141.8031263 133.23191309 -141.81241329 122.37186576 -141.82425977 111.51180878 C-141.83601013 100.6054319 -141.84037531 89.69906885 -141.83759846 78.79268552 C-141.83631159 72.87864075 -141.83834796 66.96464401 -141.84900665 61.05060768 C-141.85867883 55.64477524 -141.85927024 50.23902352 -141.85239349 44.83318751 C-141.85154252 42.86950246 -141.8541305 40.90581254 -141.86036207 38.9421372 C-141.86829815 36.28869915 -141.86411763 33.63555894 -141.85669136 30.98212624 C-141.86194539 30.20606403 -141.86719941 29.43000183 -141.87261266 28.63042259 C-141.8388873 23.35866269 -141.8388873 23.35866269 -139.6105957 21.13037109 C-138.5896582 21.16130859 -138.5896582 21.16130859 -137.5480957 21.19287109 C-134.73094795 21.13293178 -133.1413791 20.70352809 -130.53637695 19.75927734 C-125.70716481 18.10004465 -120.86271378 17.00260357 -115.8605957 16.00537109 C-114.6250293 15.75207031 -114.6250293 15.75207031 -113.36450195 15.49365234 C-111.79085707 15.17182803 -110.21658707 14.85303977 -108.64160156 14.5378418 C-107.03168552 14.21485227 -105.42418721 13.87981489 -103.81762695 13.54052734 C-100.82376504 12.98414593 -97.82677961 12.75629942 -94.79418945 12.50927734 C-92.42399941 12.09799213 -90.74327605 11.21203854 -88.6105957 10.13037109 C-86.6105957 10.13037109 -84.6105957 10.13037109 -82.6105957 10.13037109 C-81.6412207 9.77974609 -80.6718457 9.42912109 -79.6730957 9.06787109 C-75.97019541 7.93433019 -73.36902854 8.37868453 -69.6105957 9.13037109 C-69.6105957 8.47037109 -69.6105957 7.81037109 -69.6105957 7.13037109 C-66.6105957 6.13037109 -66.6105957 6.13037109 -62.8605957 6.19287109 C-58.80621825 6.25195128 -55.50437858 5.29167476 -51.6105957 4.13037109 C-49.47208468 3.82245925 -47.33559415 3.61610949 -45.18481445 3.41162109 C-41.2017555 2.97644622 -37.26081502 2.29145354 -33.30981445 1.63037109 C-22.2037954 0.12924075 -11.18680542 -0.0265066 0 0 Z " fill="#69CF95" transform="translate(141.610595703125,110.86962890625)"/>
<path d="M0 0 C5.06794894 -0.02496148 10.13586106 -0.0429822 15.20385742 -0.05493164 C16.92326482 -0.05992009 18.64266806 -0.06671324 20.36206055 -0.07543945 C29.62419203 -0.12122492 38.79053072 -0.15167056 48 1 C48 1.33 48 1.66 48 2 C41.77371492 2.73184183 36.21679416 3.14186015 30 2 C28.68 2 27.36 2 26 2 C17.66666667 2 9.33333333 2 1 2 C0.67 1.34 0.34 0.68 0 0 Z " fill="#4ABF7B" transform="translate(1430,241)"/>
<path d="M0 0 C0.92232422 0.05220703 1.84464844 0.10441406 2.79492188 0.15820312 C5.05121536 0.28680016 7.30694029 0.4217071 9.5625 0.5625 C6.36792649 2.44664642 4.04747371 2.80069737 0.359375 2.7578125 C-0.6203125 2.75136719 -1.6 2.74492188 -2.609375 2.73828125 C-3.62515625 2.72152344 -4.6409375 2.70476563 -5.6875 2.6875 C-6.71875 2.67847656 -7.75 2.66945313 -8.8125 2.66015625 C-11.35440287 2.63662011 -13.8958328 2.60374023 -16.4375 2.5625 C-16.7675 1.9025 -17.0975 1.2425 -17.4375 0.5625 C-11.52101245 -0.53314584 -5.98967508 -0.37516323 0 0 Z " fill="#92E4B5" transform="translate(106.4375,594.4375)"/>
<path d="M0 0 C0.66 0.33 1.32 0.66 2 1 C-0.13122695 2.65762096 -2.20341082 4.11410851 -4.5625 5.4375 C-7.08423379 6.84847082 -7.08423379 6.84847082 -8.5625 9.125 C-10.34289716 11.44725716 -11.21108428 11.36253355 -14 12 C-15.010625 12.70125 -16.02125 13.4025 -17.0625 14.125 C-18.031875 14.74375 -19.00125 15.3625 -20 16 C-20.99 15.67 -21.98 15.34 -23 15 C-17.44672395 10.98860421 -11.79800317 7.14737964 -6 3.5 C-4.906875 2.8090625 -3.81375 2.118125 -2.6875 1.40625 C-1.800625 0.9421875 -0.91375 0.478125 0 0 Z " fill="#52C584" transform="translate(1237,306)"/>
<path d="M0 0 C0.66 0.33 1.32 0.66 2 1 C-2.95 5.62 -7.9 10.24 -13 15 C-13.99 14.67 -14.98 14.34 -16 14 C-12.88533568 9.99543158 -10.45615177 7.49979245 -6 5 C-3.94366506 3.39196557 -1.97965875 1.7034273 0 0 Z " fill="#53C585" transform="translate(1181,345)"/>
<path d="M0 0 C0.66 0.33 1.32 0.66 2 1 C-1.12941343 4.30823705 -4.07976834 6.7131982 -8 9 C-8.33 9.66 -8.66 10.32 -9 11 C-10.97888961 11.72693904 -12.97954558 12.39816251 -15 13 C-10.43369266 8.12927217 -5.25023461 4.10843602 0 0 Z " fill="#54C684" transform="translate(1201,330)"/>
<path d="M0 0 C0.66 0.33 1.32 0.66 2 1 C0.04761147 3.00612399 -1.91137822 5.00492433 -3.875 7 C-4.43058594 7.57234375 -4.98617188 8.1446875 -5.55859375 8.734375 C-7.00134404 10.19450782 -8.4974374 11.60149298 -10 13 C-10.66 13 -11.32 13 -12 13 C-12 12.01 -12 11.02 -12 10 C-8.66666667 7 -8.66666667 7 -6 7 C-6 6.34 -6 5.68 -6 5 C-4.04072937 3.2856382 -2.04119788 1.61594832 0 0 Z " fill="#55C585" transform="translate(1148,373)"/>
<path d="M0 0 C-2.66827383 1.42943241 -5.06443001 2.30779158 -8 3 C-9.54880859 3.39058594 -9.54880859 3.39058594 -11.12890625 3.7890625 C-12.26199219 4.06492188 -13.39507813 4.34078125 -14.5625 4.625 C-15.69816406 4.90601563 -16.83382813 5.18703125 -18.00390625 5.4765625 C-21 6 -21 6 -24 5 C-21.12754022 4.15693004 -18.2525541 3.32534498 -15.375 2.5 C-14.16263672 2.14228516 -14.16263672 2.14228516 -12.92578125 1.77734375 C-8.49566164 0.51674061 -4.65691843 -0.30141867 0 0 Z " fill="#48BE7A" transform="translate(1374,250)"/>
<path d="M0 0 C2.64 0 5.28 0 8 0 C8 0.99 8 1.98 8 3 C5.6568787 2.74438677 3.32156597 2.40729228 1 2 C0.67 1.34 0.34 0.68 0 0 Z " fill="#4EC381" transform="translate(1499,246)"/>
</svg>
