<?xml version="1.0" encoding="UTF-8"?>
<svg version="1.1" xmlns="http://www.w3.org/2000/svg" width="1200" height="2000">
<path d="M0 0 C396 0 792 0 1200 0 C1200 660 1200 1320 1200 2000 C804 2000 408 2000 0 2000 C0 1340 0 680 0 0 Z " fill="#064126" transform="translate(0,0)"/>
<path d="M0 0 C0.86415527 -0.00067474 1.72831055 -0.00134949 2.61865234 -0.00204468 C17.41216931 0.016232 31.88942525 0.76765669 46.5 3.25 C47.92675049 3.49145752 47.92675049 3.49145752 49.38232422 3.73779297 C98.66079374 12.48440623 143.60592713 36.72898698 179.5 71.25 C179.99129395 71.71937988 180.48258789 72.18875977 180.98876953 72.67236328 C187.71938795 79.13149457 193.72892317 85.93082446 199.5 93.25 C200.35907796 94.2968872 201.21981652 95.34241347 202.08203125 96.38671875 C227.58935863 127.58896243 244.2228597 165.80539663 251.875 205.25 C252.0184082 205.98790771 252.16181641 206.72581543 252.30957031 207.48608398 C252.76726979 210.06774288 253.13515857 212.65340633 253.5 215.25 C253.66631424 216.3949292 253.83262848 217.5398584 254.00398254 218.71948242 C256.08706733 234.60513755 255.81186094 250.5979651 255.80158257 266.58634186 C255.8004981 269.93746549 255.80543371 273.28857078 255.810188 276.6396904 C255.82121521 284.56758804 255.82176035 292.49543828 255.81567383 300.42333984 C255.80965135 308.52063789 255.82191687 316.61776141 255.8432439 324.71502972 C255.86103936 331.73744379 255.8668331 338.75980325 255.86360615 345.78223896 C255.86182008 349.94509454 255.86415287 354.10782587 255.87832069 358.2706604 C255.93924222 377.82313523 255.25383369 396.84826869 252.5 416.25 C252.39043661 417.02775976 252.28087322 417.80551952 252.16798973 418.60684776 C251.60716905 422.52543034 250.97026771 426.42006882 250.25 430.3125 C250.04020508 431.4562207 249.83041016 432.59994141 249.61425781 433.77832031 C239.77087263 485.46674553 217.03312085 532.89506201 181.078125 571.42578125 C179.2849231 573.39015242 177.57805774 575.34749596 175.8984375 577.40234375 C173.9706263 579.69122708 172.1556261 581.59110591 169.875 583.5 C166.68529407 586.21036237 163.61567574 589.01177905 160.5625 591.875 C136.05981595 614.25 136.05981595 614.25 129.5 614.25 C129.5 614.91 129.5 615.57 129.5 616.25 C131.17171265 616.27187378 131.17171265 616.27187378 132.87719727 616.29418945 C137.0353916 616.3524208 141.19305841 616.42965114 145.35083008 616.51245117 C147.14599 616.54558413 148.94125117 616.57365187 150.73657227 616.59643555 C153.32612012 616.63019664 155.91474971 616.68252125 158.50390625 616.73828125 C159.29898087 616.74467117 160.09405548 616.7510611 160.91322327 616.75764465 C167.44256463 616.92764287 172.18557883 618.25118172 177.25 622.625 C182.27091627 628.48273564 183.04558642 632.51912357 182.84765625 640.15234375 C182.22036653 645.74156568 179.5650392 648.20862834 175.6875 652 C170.29587857 655.80585042 164.99057528 656.49959384 158.49773693 656.50726891 C157.82574838 656.51077498 157.15375983 656.51428105 156.46140799 656.51789337 C154.21744902 656.52717165 151.97375162 656.52229341 149.7297821 656.51742554 C148.10156936 656.5211636 146.47335841 656.52576574 144.84515029 656.53115618 C140.37662959 656.54338224 135.90818378 656.54312618 131.43965018 656.54076743 C126.61812095 656.54035917 121.7966157 656.55139928 116.97509766 656.56088257 C107.53112855 656.57749113 98.0871844 656.58299204 88.64320191 656.58410732 C80.9665816 656.58505782 73.28996953 656.58916818 65.61335182 656.59550858 C43.84703759 656.6131202 22.08074308 656.62234751 0.31442168 656.62084763 C-1.44549562 656.62072776 -1.44549562 656.62072776 -3.2409668 656.62060547 C-4.41567802 656.62052371 -5.59038924 656.62044195 -6.80069777 656.62035771 C-25.84068475 656.61954472 -44.88059265 656.63868587 -63.92055676 656.6668822 C-83.47230686 656.69560791 -103.02401837 656.70942268 -122.57579011 656.70769465 C-133.55198296 656.70703067 -144.52809289 656.71252677 -155.50426674 656.73405075 C-164.8490967 656.75225835 -174.19380613 656.75661327 -183.53864614 656.7430319 C-188.30547026 656.7365003 -193.07206313 656.73639208 -197.83886528 656.7537384 C-202.20563213 656.76946545 -206.57198428 656.76660928 -210.93874099 656.74917014 C-212.51541711 656.74609945 -214.09212415 656.74973526 -215.66876379 656.76089029 C-225.27071525 656.82430729 -234.06938105 656.53268324 -241.90234375 650.35546875 C-248.10799025 642.60235824 -250.62251925 635.70686447 -250.62863445 625.6974926 C-250.63126401 624.72593662 -250.63126401 624.72593662 -250.63394669 623.73475325 C-250.63860384 621.56125575 -250.63614186 619.38782524 -250.63371277 617.21432495 C-250.63558095 615.64120368 -250.63788168 614.06808288 -250.64057809 612.49496281 C-250.64670291 608.16877493 -250.64656166 603.84260635 -250.64538372 599.51641512 C-250.64517985 594.85063662 -250.65069755 590.18486435 -250.65544128 585.51908875 C-250.66375514 576.37127385 -250.66649657 567.2234654 -250.66705366 558.07564704 C-250.66752904 550.62939085 -250.66958491 543.18313678 -250.67275429 535.73688126 C-250.68156748 514.59824537 -250.68617332 493.45961457 -250.68542381 472.32097684 C-250.68538386 471.18090409 -250.6853439 470.04083134 -250.68530273 468.86621094 C-250.68526185 467.72473414 -250.68522097 466.58325734 -250.68517885 465.40719034 C-250.68477352 446.96057336 -250.69431282 428.51397692 -250.7084411 410.06736587 C-250.72285273 391.0998176 -250.72970847 372.1322793 -250.72884732 353.16472542 C-250.72851671 342.52724666 -250.73120299 331.88978933 -250.74202538 321.25231552 C-250.75119415 312.18206805 -250.75325435 303.11185171 -250.74651595 294.04160158 C-250.74328088 289.42464266 -250.74308261 284.80774321 -250.7518692 280.19079018 C-250.87117763 213.13949903 -239.89957625 149.84847666 -196.5 96.25 C-195.8090625 95.36699219 -195.118125 94.48398437 -194.40625 93.57421875 C-173.68586244 67.4804471 -147.85739001 45.98764637 -118.5 30.25 C-117.91911621 29.93498535 -117.33823242 29.6199707 -116.73974609 29.29541016 C-89.19939221 14.47754318 -59.44433743 5.3410448 -28.5 1.25 C-27.38117432 1.0953125 -27.38117432 1.0953125 -26.23974609 0.9375 C-17.53743142 -0.10849618 -8.75191556 0.00614601 0 0 Z " fill="#000000" transform="translate(594.5,677.75)"/>
<path d="M0 0 C0.33 0 0.66 0 1 0 C1.07016212 11.84154203 1.12314196 23.68303292 1.15543652 35.52474213 C1.17095268 41.02601066 1.19192691 46.52713483 1.22631836 52.02832031 C1.25942213 57.35817336 1.27695792 62.68788944 1.28463173 68.01783752 C1.29008536 70.02993419 1.30072759 72.04202518 1.31719017 74.05406189 C1.46501028 92.90677077 -0.22053457 111.61426123 -4.25 130.0625 C-4.56578003 131.52816406 -4.56578003 131.52816406 -4.88793945 133.0234375 C-14.18011618 174.69946871 -32.97163296 213.17416896 -61.921875 244.67578125 C-63.34746125 246.27018692 -64.71956716 247.91356137 -66.04296875 249.59375 C-67.77927785 251.72861308 -69.46409265 253.42447525 -71.5625 255.1875 C-74.8172174 257.95759955 -77.94687713 260.82446722 -81.0625 263.75 C-91.98694541 273.67994417 -104.15153089 281.78466421 -117 289 C-117.71639648 289.40605469 -118.43279297 289.81210938 -119.17089844 290.23046875 C-146.70030918 305.70311638 -179.62330874 317.14344236 -211.52978516 317.12025452 C-212.59972009 317.12153615 -212.59972009 317.12153615 -213.69126987 317.12284368 C-216.05722713 317.12447752 -218.42311188 317.1190118 -220.7890625 317.11352539 C-222.49465432 317.11324304 -224.20024626 317.11340219 -225.90583801 317.1139679 C-230.51886425 317.114254 -235.13186432 317.10838749 -239.74488449 317.10139394 C-244.57219051 317.09512927 -249.39949718 317.09455414 -254.22680664 317.09336853 C-263.36032395 317.09026439 -272.49382924 317.08206337 -281.62734127 317.07201904 C-292.02877828 317.06082942 -302.43021588 317.05534028 -312.83165741 317.05032361 C-334.22111164 317.03987998 -355.61055506 317.02229831 -377 317 C-376.05562647 315.89294971 -375.11048958 314.78655058 -374.16503906 313.68041992 C-373.63879944 313.06422287 -373.11255981 312.44802582 -372.57037354 311.81315613 C-370.3564054 309.25690451 -368.05505487 306.78663823 -365.75 304.3125 C-346.25030975 283.12123826 -331.01127155 259.63466281 -320 233 C-319.54109375 231.93007812 -319.0821875 230.86015625 -318.609375 229.7578125 C-298.90007576 181.7319884 -300.32859759 125.02279603 -319.69921875 77.22265625 C-323.29764596 68.78768526 -327.68092232 60.72606885 -332.1171875 52.70800781 C-333 51 -333 51 -333 50 C-331.76423532 49.99761165 -330.52847065 49.99522329 -329.25525856 49.99276257 C-299.85307817 49.93527563 -270.4509766 49.86245555 -241.04888425 49.77101372 C-237.42191276 49.75974694 -233.79494088 49.74860826 -230.16796875 49.73754883 C-229.08497205 49.7342433 -229.08497205 49.7342433 -227.98009662 49.730871 C-216.32342093 49.69559723 -204.66674529 49.6706773 -193.01003619 49.64965298 C-181.02951542 49.62781155 -169.0490633 49.59468285 -157.06860101 49.55129844 C-150.34763835 49.52727797 -143.62675577 49.50866338 -136.90575027 49.50238609 C-130.56757492 49.49630122 -124.22959265 49.47617927 -117.89148903 49.44572449 C-115.57698092 49.43699853 -113.26244753 49.43321025 -110.94792366 49.43499184 C-70.90390271 49.45606552 -36.76764662 37.89832626 -8.10888672 9.29956055 C-5.84151522 6.99655783 -3.72995561 4.6622141 -1.7109375 2.13671875 C-1.14632813 1.43160156 -0.58171875 0.72648438 0 0 Z " fill="#064126" transform="translate(812,978)"/>
<path d="M0 0 C0.59135742 0.2690918 1.18271484 0.53818359 1.79199219 0.81542969 C32.07370122 14.91291127 46.98868748 43.52539756 62.5859375 71.48046875 C65.32402951 76.35911336 68.15221762 81.18465889 71 86 C73.9609582 82.47101959 76.32553825 78.89617748 78.57421875 74.87890625 C79.24401418 73.69072981 79.91385638 72.50257972 80.58374023 71.31445312 C80.92750702 70.70093994 81.2712738 70.08742676 81.62545776 69.45532227 C99.37438422 37.82234003 119.20226224 5.95220154 156 -5 C180.35391201 -11.1998433 205.46744781 -8.33221807 227.25805664 4.48413086 C250.46710339 18.78465462 266.06369488 41.33402033 272.875 67.625 C279.49718297 96.20935941 274.57786638 126.11389082 259.53515625 151.11328125 C247.62659234 169.9056788 229.26899324 184.01178052 208.3125 191.3125 C207.66764648 191.54300049 207.02279297 191.77350098 206.35839844 192.01098633 C190.76835469 197.0479689 174.44910861 197.43893483 158.23706055 197.37231445 C156.12891969 197.37474947 154.02078 197.37847562 151.91264343 197.38337708 C146.24765682 197.39268965 140.5828459 197.38344417 134.91787314 197.37004495 C128.95874276 197.35863062 122.99961977 197.36284541 117.04048157 197.36479187 C107.04380462 197.36567137 97.04719593 197.35466387 87.05053711 197.33618164 C75.52321163 197.31499037 63.99598582 197.31151242 52.4686448 197.3177436 C41.33233758 197.32345312 30.19606515 197.31777475 19.05976295 197.30657005 C14.34043542 197.30194805 9.62112933 197.30103972 4.90180016 197.3031559 C-0.65929261 197.30505027 -6.22028502 197.29684723 -11.7813549 197.2810955 C-13.81214609 197.27688211 -15.84294752 197.27598205 -17.87374115 197.27878571 C-32.39320783 197.29577902 -46.14758641 196.61250466 -60.125 192.25 C-60.979729 191.98614502 -61.83445801 191.72229004 -62.71508789 191.45043945 C-78.30155232 186.48325953 -91.90266818 178.02876255 -103 166 C-103.845625 165.175 -104.69125 164.35 -105.5625 163.5 C-106.366875 162.675 -107.17125 161.85 -108 161 C-108.52078125 160.47535156 -109.0415625 159.95070313 -109.578125 159.41015625 C-126.98604613 140.86523126 -133.58887549 113.62260893 -133.20703125 88.84765625 C-132.2770968 60.32776485 -119.75521566 34.73698183 -99.1875 15.25 C-71.40270978 -8.67213376 -33.588333 -15.31114941 0 0 Z " fill="#064126" transform="translate(527,792)"/>
<path d="M0 0 C6.65788708 5.54823923 6.65788708 5.54823923 9.1640625 8.60546875 C14.35734291 14.68996285 20.1636082 20.19477064 25.87890625 25.78295898 C32.74915433 32.51082431 39.03139594 39.43921456 45 47 C45.96333719 48.17028639 46.92904414 49.33863148 47.8984375 50.50390625 C69.39123802 77.0478539 84.93459343 109.75801519 88 144 C88.10054687 145.04196533 88.10054687 145.04196533 88.203125 146.10498047 C92.52130758 192.95103332 76.02473317 239.33143977 46.42915344 275.41122437 C39.97313467 283.16757868 32.95822135 290.31605686 25.79223633 297.41357422 C23.79897736 299.38839756 21.81401675 301.37128631 19.83007812 303.35546875 C2.13724728 321 2.13724728 321 0 321 C0 215.07 0 109.14 0 0 Z " fill="#064126" transform="translate(382,972)"/>
<path d="M0 0 C0.79809082 0.16628906 1.59618164 0.33257813 2.41845703 0.50390625 C23.3711155 4.93833132 44.98505902 12.18411171 63 24 C63.33 24.66 63.66 25.32 64 26 C62.99324219 26.08636719 61.98648438 26.17273438 60.94921875 26.26171875 C24.15355386 29.78041777 -6.34767463 46.7055611 -31 74 C-33.58561255 77.1667437 -35.88431214 80.5012944 -38 84 C-41.40322382 81.43152919 -44.01949063 78.9134354 -46.5625 75.5 C-70.36008998 45.19595284 -103.36388939 31.0538474 -140.85546875 26.48046875 C-142.23677475 26.31855895 -143.61820456 26.15767823 -145 26 C-145 25.34 -145 24.68 -145 24 C-125.88661278 12.41695875 -105.83627728 4.71625859 -84 0 C-82.8234082 -0.26683594 -82.8234082 -0.26683594 -81.62304688 -0.5390625 C-56.3328271 -6.03788509 -25.22156716 -5.59866992 0 0 Z " fill="#064126" transform="translate(638,720)"/>
<path d="M0 0 C9.18040129 7.60865944 14.02573087 17.3465707 16 29 C17.04119397 41.56260266 14.6320725 52.66960991 6.91015625 62.78515625 C-1.39809863 72.41865424 -11.66165802 78.04306256 -24.36328125 79.21875 C-37.04091744 79.70401837 -48.21872166 75.33252494 -57.6875 67 C-66.46496802 57.64014073 -70.54540751 44.49701613 -70.24609375 31.890625 C-69.13880334 18.88435665 -63.82173818 8.91456523 -54.42578125 -0.0234375 C-38.28554899 -13.17473786 -16.33959965 -11.71829874 0 0 Z " fill="#000000" transform="translate(516,849)"/>
<path d="M0 0 C10.81064523 8.35978466 17.35269292 17.46433387 20 31 C21.3223651 45.51630004 18.32729472 56.78760708 9.25390625 68.1953125 C1.05299153 77.16346457 -9.99947683 81.49203027 -21.9375 82.25 C-33.75380712 81.83048614 -45.63304724 77.56153306 -54 69 C-64.2230765 56.58787621 -66.33343324 44.66874393 -65 29 C-63.31543775 17.97377433 -57.08104356 9.11825206 -48.73046875 1.98046875 C-34.66265221 -8.22322651 -14.80368619 -9.56296517 0 0 Z " fill="#000000" transform="translate(730,846)"/>
<path d="M0 0 C4.04421444 1.57222388 6.50589665 4.4515969 9.3125 7.625 C9.7967041 8.16334473 10.2809082 8.70168945 10.77978516 9.25634766 C12.19324881 10.83172656 13.59793687 12.41447486 15 14 C15.69222656 14.77859375 16.38445313 15.5571875 17.09765625 16.359375 C18.23791041 17.6524984 19.37019077 18.95272256 20.4921875 20.26171875 C21.49115439 21.41337747 22.51746085 22.54191796 23.5703125 23.64453125 C25 25.1875 25 25.1875 27 28 C26.69682652 32.21133121 24.95370168 35.04288868 22.68359375 38.53515625 C22.00103516 39.59283203 21.31847656 40.65050781 20.61523438 41.74023438 C19.89658203 42.83658203 19.17792969 43.93292969 18.4375 45.0625 C17.74591797 46.13177734 17.05433594 47.20105469 16.34179688 48.30273438 C14.94645285 50.45491923 13.54460116 52.60289908 12.13623047 54.74658203 C10.66576434 56.98605994 9.20664306 59.23028851 7.75830078 61.48388672 C7.04528809 62.58104004 6.33227539 63.67819336 5.59765625 64.80859375 C4.95449463 65.80560303 4.31133301 66.8026123 3.64868164 67.82983398 C3.1046167 68.54598877 2.56055176 69.26214355 2 70 C1.34 70 0.68 70 0 70 C-1.31029969 68.22374649 -2.51765873 66.37174603 -3.6875 64.5 C-4.06326172 63.9013916 -4.43902344 63.3027832 -4.82617188 62.68603516 C-5.7012648 61.29020031 -6.57323277 59.89240375 -7.44287109 58.49316406 C-9.24481903 55.60801318 -11.06944855 52.73775729 -12.89453125 49.8671875 C-14.26350724 47.70343267 -15.63199528 45.53936904 -17 43.375 C-17.67119873 42.31990234 -18.34239746 41.26480469 -19.03393555 40.17773438 C-19.66211182 39.17806641 -20.29028809 38.17839844 -20.9375 37.1484375 C-21.50339844 36.25302246 -22.06929687 35.35760742 -22.65234375 34.43505859 C-23.89401361 32.19150511 -24.76595132 30.54938701 -25 28 C-23.27779859 25.78182893 -21.60098448 23.90618549 -19.625 21.9375 C-18.51042555 20.78375153 -17.39847699 19.62746102 -16.2890625 18.46875 C-15.73250977 17.88996094 -15.17595703 17.31117188 -14.60253906 16.71484375 C-11.51893163 13.41513951 -8.74486384 9.87563343 -5.9375 6.33984375 C-4.07021732 4.08479874 -2.1039823 2.03353646 0 0 Z " fill="#000000" transform="translate(597,901)"/>
<path d="M0 0 C4.66959322 2.66333272 8.09021341 5.89506262 9.64453125 11.125 C10.43071552 17.33314477 10.38617646 22.8866967 6.64453125 28.125 C2.04010147 33.06633928 -2.58601908 34.86974172 -9.35546875 35.125 C-14.41389628 34.48356216 -18.21937965 32.71396392 -21.79296875 29.0625 C-24.99632556 24.81223608 -26.23422516 20.41930339 -26.35546875 15.125 C-25.66485455 10.22862289 -24.18776899 6.46808952 -20.41796875 3.1875 C-13.98016198 -1.14816578 -7.60130489 -2.82370198 0 0 Z " fill="#000000" transform="translate(433.35546875,1123.875)"/>
</svg>
