<svg id="svg" version="1.1" xmlns="http://www.w3.org/2000/svg" xmlns:xlink="http://www.w3.org/1999/xlink" width="400" height="400" viewBox="0, 0, 400,400"><g id="svgg"><path id="path0" d="M191.689 0.181 C 191.571 0.299,189.379 0.511,186.819 0.653 C 179.754 1.043,177.570 1.290,168.140 2.768 C 167.134 2.926,165.625 3.177,164.787 3.328 C 163.948 3.478,162.713 3.689,162.043 3.798 C 161.372 3.906,160.343 4.113,159.756 4.256 C 159.169 4.400,157.934 4.673,157.012 4.862 C 155.157 5.243,152.185 5.982,150.741 6.422 C 150.226 6.579,149.513 6.707,149.158 6.707 C 148.802 6.707,148.427 6.845,148.323 7.012 C 148.220 7.180,147.806 7.317,147.405 7.317 C 147.003 7.317,146.360 7.437,145.975 7.583 C 145.590 7.729,144.794 7.986,144.207 8.153 C 142.216 8.722,135.826 10.742,135.213 10.996 C 134.878 11.136,133.928 11.469,133.102 11.737 C 132.276 12.005,130.904 12.506,130.053 12.851 C 129.202 13.196,128.232 13.585,127.896 13.717 C 123.404 15.479,121.188 16.384,119.665 17.078 C 118.659 17.536,117.081 18.255,116.159 18.675 C 112.738 20.232,108.937 22.111,107.012 23.196 C 105.922 23.810,103.933 24.895,102.591 25.608 C 101.250 26.320,99.788 27.161,99.343 27.476 C 98.898 27.791,98.443 28.049,98.331 28.049 C 98.219 28.049,97.530 28.460,96.799 28.963 C 96.068 29.466,95.392 29.878,95.296 29.878 C 95.201 29.878,94.455 30.358,93.638 30.945 C 92.821 31.532,92.059 32.012,91.943 32.012 C 91.828 32.012,89.718 33.409,87.254 35.115 C 66.380 49.574,49.574 66.380,35.115 87.254 C 33.409 89.718,32.012 91.828,32.012 91.943 C 32.012 92.059,31.532 92.821,30.945 93.638 C 30.358 94.455,29.878 95.201,29.878 95.296 C 29.878 95.392,29.466 96.068,28.963 96.799 C 28.460 97.530,28.049 98.219,28.049 98.331 C 28.049 98.443,27.791 98.898,27.476 99.343 C 27.161 99.788,26.320 101.250,25.608 102.591 C 24.895 103.933,23.810 105.922,23.195 107.012 C 21.902 109.306,20.178 112.873,17.080 119.665 C 16.385 121.189,15.484 123.393,13.717 127.896 C 13.585 128.232,13.196 129.202,12.851 130.053 C 12.506 130.904,12.005 132.276,11.737 133.102 C 11.469 133.928,11.136 134.878,10.996 135.213 C 10.742 135.826,8.722 142.216,8.153 144.207 C 7.986 144.794,7.729 145.590,7.583 145.975 C 7.437 146.360,7.317 147.003,7.317 147.405 C 7.317 147.806,7.180 148.220,7.012 148.323 C 6.845 148.427,6.707 148.802,6.707 149.158 C 6.707 149.513,6.579 150.226,6.422 150.741 C 5.982 152.185,5.243 155.157,4.862 157.012 C 4.673 157.934,4.400 159.169,4.256 159.756 C 4.113 160.343,3.906 161.372,3.798 162.043 C 3.689 162.713,3.478 163.948,3.328 164.787 C 3.045 166.367,2.823 167.751,1.988 173.171 C -0.406 188.693,-0.413 211.827,1.970 227.439 C 2.557 231.283,3.004 234.071,3.364 236.128 C 3.511 236.966,3.711 238.133,3.810 238.720 C 3.908 239.306,4.110 240.267,4.258 240.854 C 4.406 241.441,4.697 242.744,4.905 243.750 C 5.112 244.756,5.548 246.608,5.874 247.866 C 6.199 249.123,6.579 250.633,6.718 251.220 C 6.858 251.806,7.128 252.835,7.318 253.506 C 7.509 254.177,7.734 255.069,7.819 255.488 C 7.903 255.907,8.085 256.524,8.222 256.860 C 8.359 257.195,8.843 258.704,9.299 260.213 C 9.754 261.723,10.249 263.196,10.398 263.487 C 10.548 263.778,10.671 264.226,10.671 264.482 C 10.671 264.738,10.801 265.186,10.961 265.477 C 11.121 265.768,11.622 267.104,12.074 268.445 C 12.527 269.787,13.134 271.433,13.424 272.104 C 13.715 272.774,14.122 273.803,14.329 274.390 C 14.537 274.977,14.964 276.039,15.280 276.750 C 15.596 277.461,15.854 278.103,15.854 278.177 C 15.854 278.251,16.251 279.178,16.736 280.238 C 17.221 281.298,17.923 282.851,18.297 283.689 C 19.297 285.933,22.900 293.165,24.070 295.274 C 24.628 296.280,25.499 297.858,26.004 298.780 C 36.655 318.199,54.120 339.159,72.107 354.109 C 73.111 354.944,74.002 355.698,74.085 355.786 C 74.239 355.946,75.573 356.973,80.640 360.830 C 85.516 364.541,101.117 374.695,101.944 374.695 C 102.005 374.695,103.343 375.418,104.915 376.302 C 108.584 378.364,120.384 384.146,120.922 384.146 C 120.989 384.146,121.693 384.434,122.488 384.786 C 123.283 385.139,124.207 385.535,124.543 385.667 C 128.803 387.346,130.844 388.123,131.860 388.450 C 132.530 388.667,133.210 388.953,133.369 389.087 C 133.528 389.220,133.907 389.329,134.211 389.329 C 134.516 389.329,135.003 389.460,135.294 389.621 C 135.846 389.925,139.405 391.097,141.768 391.752 C 142.523 391.961,143.378 392.256,143.670 392.408 C 143.961 392.559,144.536 392.683,144.947 392.683 C 145.359 392.683,145.771 392.805,145.863 392.954 C 145.956 393.103,146.478 393.292,147.025 393.374 C 147.571 393.456,148.841 393.761,149.848 394.053 C 151.637 394.572,152.795 394.861,155.412 395.443 C 159.875 396.436,160.990 396.662,164.177 397.218 C 165.183 397.394,167.241 397.759,168.750 398.030 C 171.580 398.537,173.960 398.869,178.963 399.453 C 182.784 399.899,218.027 399.892,221.799 399.445 C 226.703 398.863,229.067 398.530,231.860 398.030 C 233.369 397.759,235.427 397.394,236.433 397.218 C 239.790 396.632,243.025 395.983,245.274 395.443 C 245.945 395.282,247.043 395.022,247.713 394.867 C 248.384 394.711,249.756 394.349,250.762 394.061 C 251.768 393.774,253.072 393.424,253.659 393.284 C 254.245 393.143,255.240 392.882,255.869 392.703 C 256.498 392.524,257.458 392.256,258.003 392.108 C 259.436 391.717,266.507 389.356,267.226 389.028 C 267.561 388.875,268.511 388.531,269.337 388.263 C 270.661 387.834,271.977 387.329,274.695 386.208 C 275.114 386.035,275.732 385.789,276.067 385.660 C 276.402 385.532,277.327 385.139,278.122 384.786 C 278.916 384.434,279.638 384.146,279.726 384.146 C 280.579 384.146,296.275 376.207,301.016 373.377 C 302.329 372.593,303.462 371.951,303.533 371.951 C 303.938 371.951,319.960 361.142,320.911 360.227 C 321.093 360.052,322.313 359.085,323.621 358.079 C 324.930 357.073,326.646 355.701,327.434 355.030 C 328.222 354.360,330.158 352.719,331.735 351.385 C 339.559 344.766,351.053 332.625,358.300 323.323 C 359.345 321.982,360.281 320.816,360.379 320.732 C 360.978 320.220,371.951 303.911,371.951 303.533 C 371.951 303.462,372.593 302.329,373.377 301.016 C 376.207 296.275,384.146 280.579,384.146 279.726 C 384.146 279.638,384.434 278.916,384.786 278.122 C 385.139 277.327,385.532 276.402,385.660 276.067 C 385.789 275.732,386.035 275.114,386.208 274.695 C 387.329 271.977,387.834 270.661,388.263 269.337 C 388.531 268.511,388.875 267.561,389.028 267.226 C 389.356 266.507,391.717 259.436,392.108 258.003 C 392.256 257.458,392.524 256.498,392.703 255.869 C 392.882 255.240,393.143 254.245,393.284 253.659 C 393.424 253.072,393.774 251.768,394.061 250.762 C 394.349 249.756,394.705 248.418,394.853 247.790 C 395.001 247.161,395.260 246.063,395.429 245.351 C 396.001 242.931,396.636 239.769,397.218 236.433 C 397.394 235.427,397.759 233.369,398.030 231.860 C 398.530 229.067,398.863 226.703,399.445 221.799 C 399.892 218.027,399.899 182.784,399.453 178.963 C 398.869 173.960,398.537 171.580,398.030 168.750 C 397.759 167.241,397.394 165.183,397.218 164.177 C 396.662 160.990,396.436 159.875,395.443 155.412 C 394.861 152.795,394.572 151.637,394.053 149.848 C 393.761 148.841,393.456 147.571,393.374 147.025 C 393.292 146.478,393.103 145.956,392.954 145.863 C 392.805 145.771,392.683 145.359,392.683 144.947 C 392.683 144.536,392.559 143.961,392.408 143.670 C 392.256 143.378,391.961 142.523,391.752 141.768 C 391.097 139.405,389.925 135.846,389.621 135.294 C 389.460 135.003,389.329 134.516,389.329 134.211 C 389.329 133.907,389.220 133.528,389.087 133.369 C 388.953 133.210,388.667 132.530,388.450 131.860 C 388.123 130.844,387.346 128.803,385.667 124.543 C 385.535 124.207,385.139 123.283,384.786 122.488 C 384.434 121.693,384.146 120.989,384.146 120.922 C 384.146 120.384,378.364 108.584,376.302 104.915 C 375.418 103.343,374.695 102.005,374.695 101.944 C 374.695 101.119,364.577 85.577,360.826 80.640 C 357.229 75.906,355.950 74.243,355.786 74.085 C 355.698 74.002,354.944 73.111,354.109 72.107 C 347.347 63.971,335.956 52.573,328.659 46.640 C 327.736 45.891,326.792 45.097,326.560 44.876 C 326.329 44.656,323.791 42.721,320.920 40.577 C 312.858 34.555,305.281 29.573,298.628 25.920 C 297.622 25.367,296.044 24.497,295.122 23.986 C 293.147 22.891,285.875 19.271,283.689 18.295 C 282.851 17.921,281.440 17.287,280.555 16.887 C 279.670 16.486,278.885 16.159,278.810 16.159 C 278.736 16.159,277.951 15.828,277.066 15.424 C 275.136 14.542,269.655 12.430,267.530 11.750 C 266.692 11.481,265.768 11.128,265.477 10.966 C 265.186 10.804,264.738 10.671,264.482 10.671 C 264.226 10.671,263.778 10.548,263.487 10.398 C 263.196 10.249,261.723 9.754,260.213 9.299 C 258.704 8.843,257.195 8.359,256.860 8.222 C 256.524 8.085,255.907 7.903,255.488 7.819 C 255.069 7.734,254.177 7.509,253.506 7.318 C 252.835 7.128,251.806 6.858,251.220 6.718 C 250.633 6.579,249.123 6.199,247.866 5.874 C 246.608 5.548,244.756 5.112,243.750 4.905 C 242.744 4.697,241.441 4.406,240.854 4.258 C 240.267 4.110,239.306 3.908,238.720 3.810 C 238.133 3.711,236.966 3.511,236.128 3.364 C 223.016 1.069,215.258 0.356,200.753 0.114 C 195.886 0.033,191.806 0.063,191.689 0.181 M209.299 117.507 C 242.234 122.361,266.913 146.854,272.756 180.488 C 273.408 184.239,273.749 228.181,273.176 234.451 C 270.574 262.877,258.316 285.221,237.768 298.989 C 234.561 301.139,233.897 302.015,234.455 303.363 C 235.018 304.723,235.698 304.856,242.530 304.946 C 249.495 305.038,250.092 305.176,250.868 306.878 C 251.870 309.079,250.816 311.458,248.535 312.141 C 246.213 312.837,128.505 312.624,126.958 311.922 C 125.403 311.216,124.519 310.109,123.932 308.134 C 123.386 306.294,123.249 195.617,123.784 187.348 C 126.641 143.098,165.821 111.100,209.299 117.507 M189.251 127.003 C 181.692 128.037,169.609 132.282,167.709 134.573 C 167.213 135.170,167.125 135.142,171.494 135.797 C 181.684 137.325,191.751 143.207,197.439 150.957 C 198.812 152.827,199.283 152.815,200.766 150.871 C 206.945 142.768,220.105 135.366,228.332 135.366 C 232.639 135.366,222.376 130.366,213.720 128.247 C 206.822 126.559,196.381 126.028,189.251 127.003 M160.366 147.516 C 136.848 152.540,128.527 183.212,146.080 200.176 C 150.534 204.482,154.430 206.663,160.650 208.335 L 164.177 209.283 196.719 209.356 C 238.410 209.448,239.354 209.356,246.943 204.447 C 271.870 188.322,261.378 147.220,232.317 147.154 C 219.757 147.125,212.838 152.338,202.930 169.296 C 200.407 173.614,199.358 175.152,198.935 175.152 C 198.510 175.152,197.494 173.646,195.027 169.360 C 187.591 156.440,184.553 153.066,177.290 149.662 C 172.181 147.268,165.496 146.420,160.366 147.516 M171.189 165.366 C 179.694 169.570,181.235 181.462,174.068 187.597 C 165.863 194.620,153.380 189.337,152.548 178.491 C 151.751 168.095,162.045 160.847,171.189 165.366 M237.203 165.004 C 249.012 170.303,247.016 188.251,234.358 190.583 C 222.152 192.832,214.088 177.240,222.698 168.036 C 226.259 164.229,232.547 162.914,237.203 165.004 M203.014 187.091 C 205.046 189.382,206.707 191.442,206.707 191.669 C 206.707 192.135,200.251 202.271,199.378 203.176 C 198.932 203.638,198.723 203.685,198.379 203.400 C 197.628 202.777,191.159 192.184,191.159 191.578 C 191.159 190.799,198.099 182.927,198.785 182.927 C 199.091 182.927,200.909 184.717,203.014 187.091 M133.077 205.234 C 132.723 206.165,133.075 301.320,133.434 301.439 C 134.004 301.629,145.187 290.471,147.657 287.248 C 162.534 267.828,163.867 244.536,151.216 225.036 C 148.429 220.740,145.298 217.002,139.218 210.713 C 133.356 204.650,133.314 204.612,133.077 205.234 M260.645 209.901 C 255.742 214.697,250.388 217.905,244.358 219.660 C 238.554 221.349,238.861 221.338,199.466 221.340 C 168.660 221.341,163.110 221.406,163.110 221.765 C 163.110 221.997,163.998 224.021,165.084 226.262 C 176.655 250.132,172.013 277.702,152.908 298.571 C 150.757 300.920,149.715 302.276,149.910 302.471 C 150.590 303.151,203.106 302.626,206.860 301.901 C 237.049 296.070,257.974 273.438,263.461 240.684 C 264.160 236.511,264.729 207.590,264.124 206.993 C 263.985 206.856,262.420 208.165,260.645 209.901 M148.767 250.908 C 153.142 253.140,152.217 259.891,147.386 260.981 C 142.287 262.131,138.624 256.108,141.990 252.108 C 143.537 250.268,146.489 249.746,148.767 250.908 " stroke="none" fill="#acdcbc" fill-rule="evenodd"></path><path id="path1" d="" stroke="none" fill="#5f8a61" fill-rule="evenodd"></path><path id="path2" d="" stroke="none" fill="#74e09c" fill-rule="evenodd"></path><path id="path3" d="" stroke="none" fill="#74e09c" fill-rule="evenodd"></path><path id="path4" d="" stroke="none" fill="#74e09c" fill-rule="evenodd"></path></g></svg>