<?xml version="1.0" encoding="UTF-8"?>
<svg version="1.1" xmlns="http://www.w3.org/2000/svg" width="1200" height="1418">
<path d="M0 0 C1.98 0 3.96 0 6 0 C6 1.32 6 2.64 6 4 C5.34 4 4.68 4 4 4 C4 5.32 4 6.64 4 8 C3.34 8 2.68 8 2 8 C2 8.66 2 9.32 2 10 C2.66 10 3.32 10 4 10 C4 13.96 4 17.92 4 22 C3.34 22 2.68 22 2 22 C2 22.66 2 23.32 2 24 C1.34 24 0.68 24 0 24 C0 24.66 0 25.32 0 26 C0.66 26 1.32 26 2 26 C2.33 26.99 2.66 27.98 3 29 C3.59748047 28.18595703 3.59748047 28.18595703 4.20703125 27.35546875 C4.73683594 26.64003906 5.26664062 25.92460938 5.8125 25.1875 C6.33457031 24.47980469 6.85664063 23.77210937 7.39453125 23.04296875 C8.83311786 21.21235853 10.35298159 19.63781719 12 18 C13.86636835 15.08846538 15.50022511 12.11491708 17 9 C17.99 9 18.98 9 20 9 C20.33 7.68 20.66 6.36 21 5 C22.98 4.67 24.96 4.34 27 4 C27 3.34 27 2.68 27 2 C27.66 2 28.32 2 29 2 C29 1.34 29 0.68 29 0 C31.31 0 33.62 0 36 0 C36 1.32 36 2.64 36 4 C35.34 4 34.68 4 34 4 C34 5.98 34 7.96 34 10 C33.34 10 32.68 10 32 10 C32 10.66 32 11.32 32 12 C31.34 12 30.68 12 30 12 C30 16.62 30 21.24 30 26 C28.68 26 27.36 26 26 26 C26 26.66 26 27.32 26 28 C25.34 28 24.68 28 24 28 C24 29.32 24 30.64 24 32 C23.34 32 22.68 32 22 32 C22 33.98 22 35.96 22 38 C21.67 38 21.34 38 21 38 C20.95101563 38.71027344 20.90203125 39.42054687 20.8515625 40.15234375 C20.77679688 41.07144531 20.70203125 41.99054688 20.625 42.9375 C20.55539062 43.85402344 20.48578125 44.77054688 20.4140625 45.71484375 C20.27742188 46.46894531 20.14078125 47.22304687 20 48 C19.34 48.33 18.68 48.66 18 49 C18.99 49 19.98 49 21 49 C21 48.34 21 47.68 21 47 C21.66 47 22.32 47 23 47 C23 46.34 23 45.68 23 45 C24.32 45 25.64 45 27 45 C27 44.34 27 43.68 27 43 C28.32 43 29.64 43 31 43 C31 42.34 31 41.68 31 41 C32.32 41 33.64 41 35 41 C35 40.34 35 39.68 35 39 C36.32 39 37.64 39 39 39 C39 38.34 39 37.68 39 37 C40.98 37 42.96 37 45 37 C45 36.34 45 35.68 45 35 C47.64 35 50.28 35 53 35 C53 34.34 53 33.68 53 33 C54.98 33 56.96 33 59 33 C59 32.34 59 31.68 59 31 C61.64 31 64.28 31 67 31 C67 30.34 67 29.68 67 29 C70.3 29 73.6 29 77 29 C77 30.65 77 32.3 77 34 C75.68 34 74.36 34 73 34 C73 34.66 73 35.32 73 36 C71.35 36 69.7 36 68 36 C67.34 37.32 66.68 38.64 66 40 C64.68 40 63.36 40 62 40 C62 41.98 62 43.96 62 46 C60.35 46 58.7 46 57 46 C56.67 47.32 56.34 48.64 56 50 C54.68 50 53.36 50 52 50 C52 51.32 52 52.64 52 54 C50.68 54 49.36 54 48 54 C48 55.32 48 56.64 48 58 C47.195625 57.979375 46.39125 57.95875 45.5625 57.9375 C43.06645115 57.70366379 43.06645115 57.70366379 42 59 C46.29 59 50.58 59 55 59 C55 58.34 55 57.68 55 57 C66.88 57 78.76 57 91 57 C91 58.65 91 60.3 91 62 C89.37509046 62.02698189 87.75005367 62.04638757 86.125 62.0625 C84.76761719 62.07990234 84.76761719 62.07990234 83.3828125 62.09765625 C81 62 81 62 79 61 C79 61.66 79 62.32 79 63 C77.68 63 76.36 63 75 63 C75 63.66 75 64.32 75 65 C73.35 65 71.7 65 70 65 C70 65.66 70 66.32 70 67 C68.02 67 66.04 67 64 67 C64 67.66 64 68.32 64 69 C69.61 69 75.22 69 81 69 C81 70.32 81 71.64 81 73 C79.68 73 78.36 73 77 73 C77 73.66 77 74.32 77 75 C75.68 75 74.36 75 73 75 C73 75.66 73 76.32 73 77 C72.01 77 71.02 77 70 77 C70 77.66 70 78.32 70 79 C68.68 79 67.36 79 66 79 C66 79.66 66 80.32 66 81 C64.68 81 63.36 81 62 81 C62 81.66 62 82.32 62 83 C60.02 83 58.04 83 56 83 C56 83.66 56 84.32 56 85 C61.61 85 67.22 85 73 85 C73 85.66 73 86.32 73 87 C76.96 87 80.92 87 85 87 C85 87.66 85 88.32 85 89 C87.64 89 90.28 89 93 89 C93 89.66 93 90.32 93 91 C93.66 91 94.32 91 95 91 C95 92.32 95 93.64 95 95 C93.68 95 92.36 95 91 95 C91 94.34 91 93.68 91 93 C87.7 93 84.4 93 81 93 C81 93.66 81 94.32 81 95 C79.68 95 78.36 95 77 95 C77 95.66 77 96.32 77 97 C75.02 97 73.04 97 71 97 C71 97.66 71 98.32 71 99 C68.69 99 66.38 99 64 99 C64 99.66 64 100.32 64 101 C63.34 101 62.68 101 62 101 C62 102.32 62 103.64 62 105 C63.98 105 65.96 105 68 105 C68 105.66 68 106.32 68 107 C69.65 107 71.3 107 73 107 C73 107.66 73 108.32 73 109 C74.98 108.67 76.96 108.34 79 108 C79 108.99 79 109.98 79 111 C80.98 110.67 82.96 110.34 85 110 C85 110.99 85 111.98 85 113 C86.32 112.67 87.64 112.34 89 112 C89 112.99 89 113.98 89 115 C90.32 114.67 91.64 114.34 93 114 C93 114.99 93 115.98 93 117 C96.47325181 118.1577506 99.36067448 118.06866652 103 118 C103 120.31 103 122.62 103 125 C103.66 125 104.32 125 105 125 C105 126.98 105 128.96 105 131 C103.68 131 102.36 131 101 131 C101 130.34 101 129.68 101 129 C100.34 129 99.68 129 99 129 C99 128.34 99 127.68 99 127 C98.34 127 97.68 127 97 127 C97 126.34 97 125.68 97 125 C95.68 125 94.36 125 93 125 C93 125.66 93 126.32 93 127 C91.68 127 90.36 127 89 127 C89 126.34 89 125.68 89 125 C84.38 125 79.76 125 75 125 C75 124.34 75 123.68 75 123 C70.38 123 65.76 123 61 123 C61 122.34 61 121.68 61 121 C60.01 121 59.02 121 58 121 C58 122.65 58 124.3 58 126 C59.32 126 60.64 126 62 126 C64.25 127.875 64.25 127.875 66 130 C66 130.66 66 131.32 66 132 C68.31 132 70.62 132 73 132 C73 133.32 73 134.64 73 136 C73.66 136 74.32 136 75 136 C76.37310707 137.29233607 77.71034824 138.62437146 79 140 C79 139.34 79 138.68 79 138 C80.32 138 81.64 138 83 138 C83 138.66 83 139.32 83 140 C84.32 140 85.64 140 87 140 C87 139.34 87 138.68 87 138 C88.98 138 90.96 138 93 138 C93 138.66 93 139.32 93 140 C98.94 140 104.88 140 111 140 C111 139.34 111 138.68 111 138 C112.32 138 113.64 138 115 138 C115.05607422 136.73542969 115.05607422 136.73542969 115.11328125 135.4453125 C115.17902344 134.34960938 115.24476563 133.25390625 115.3125 132.125 C115.39951172 130.48917969 115.39951172 130.48917969 115.48828125 128.8203125 C115.65714844 127.88960937 115.82601562 126.95890625 116 126 C117.485 125.01 117.485 125.01 119 124 C119.58189266 121.57478506 119.58189266 121.57478506 119.6875 118.875 C119.75324219 117.96492188 119.81898438 117.05484375 119.88671875 116.1171875 C119.94279297 115.06917969 119.94279297 115.06917969 120 114 C123.12492251 113.94208156 126.24970766 113.90643254 129.375 113.875 C130.26445313 113.85824219 131.15390625 113.84148437 132.0703125 113.82421875 C132.92109375 113.81777344 133.771875 113.81132813 134.6484375 113.8046875 C135.43395996 113.79421387 136.21948242 113.78374023 137.02880859 113.77294922 C139 114 139 114 141 116 C141.33669385 118.04573478 141.44069172 120.05600952 141.55859375 122.125 C141.8705797 124.40685245 141.8705797 124.40685245 145 126 C145.22137393 128.62697064 145.28162025 131.00893964 145.1875 133.625 C145.16719727 134.68460938 145.16719727 134.68460938 145.14648438 135.765625 C145.1111104 137.51074128 145.05730221 139.25546608 145 141 C144.67 141 144.34 141 144 141 C143.67 145.29 143.34 149.58 143 154 C143.66 154 144.32 154 145 154 C145.33 155.32 145.66 156.64 146 158 C147.65 158 149.3 158 151 158 C151 160.66666667 151 163.33333333 151 166 C152.32 166 153.64 166 155 166 C155 167.98 155 169.96 155 172 C155.66 172 156.32 172 157 172 C157 172.66 157 173.32 157 174 C157.66 174 158.32 174 159 174 C159 174.66 159 175.32 159 176 C160.32 176 161.64 176 163 176 C163 177.32 163 178.64 163 180 C163.66 180 164.32 180 165 180 C165 181.32 165 182.64 165 184 C165.99 184 166.98 184 168 184 C168.66 185.98 169.32 187.96 170 190 C170.66 190 171.32 190 172 190 C172 188.68 172 187.36 172 186 C171.34 186 170.68 186 170 186 C170 184.68 170 183.36 170 182 C170.66 182 171.32 182 172 182 C172 181.34 172 180.68 172 180 C170.68 180 169.36 180 168 180 C168 178.68 168 177.36 168 176 C168.66 176 169.32 176 170 176 C170 175.34 170 174.68 170 174 C170.66 174 171.32 174 172 174 C172 172.68 172 171.36 172 170 C172.66 170 173.32 170 174 170 C174 169.34 174 168.68 174 168 C174.66 168 175.32 168 176 168 C176 166.68 176 165.36 176 164 C176.66 164 177.32 164 178 164 C178 163.34 178 162.68 178 162 C177.34 162 176.68 162 176 162 C176 160.68 176 159.36 176 158 C177.98 158 179.96 158 182 158 C182 156.68 182 155.36 182 154 C183.32 154 184.64 154 186 154 C186 153.34 186 152.68 186 152 C186.66 152 187.32 152 188 152 C188 149.36 188 146.72 188 144 C188.66 144 189.32 144 190 144 C190 142.68 190 141.36 190 140 C190.99 140 191.98 140 193 140 C196.48298986 137.16453271 198.17486294 134.02695907 200.0625 130 C203.49940813 122.70682625 203.49940813 122.70682625 206 120 C209.1875 119.75 209.1875 119.75 212 120 C212.33 119.34 212.66 118.68 213 118 C215.31 118 217.62 118 220 118 C220.33 118.66 220.66 119.32 221 120 C248.06 120 275.12 120 303 120 C303 120.99 303 121.98 303 123 C303.66 123 304.32 123 305 123 C305 124.32 305 125.64 305 127 C305.66 127 306.32 127 307 127 C307 128.32 307 129.64 307 131 C308.32 131.33 309.64 131.66 311 132 C311 133.32 311 134.64 311 136 C311.66 136 312.32 136 313 136 C313 136.66 313 137.32 313 138 C313.66 138 314.32 138 315 138 C315 139.32 315 140.64 315 142 C315.66 142 316.32 142 317 142 C317 143.32 317 144.64 317 146 C317.66 146 318.32 146 319 146 C319 146.66 319 147.32 319 148 C319.66 148 320.32 148 321 148 C321 149.32 321 150.64 321 152 C322.98 152 324.96 152 327 152 C327 153.32 327 154.64 327 156 C327.66 156 328.32 156 329 156 C329 157.32 329 158.64 329 160 C329.66 160 330.32 160 331 160 C331.33 159.34 331.66 158.68 332 158 C332.66 158 333.32 158 334 158 C334 157.34 334 156.68 334 156 C335.32 156 336.64 156 338 156 C338 153.36 338 150.72 338 148 C339.98 148 341.96 148 344 148 C344 144.7 344 141.4 344 138 C344.99 138 345.98 138 347 138 C347.33 131.07 347.66 124.14 348 117 C347.34 117 346.68 117 346 117 C346 113.04 346 109.08 346 105 C346.66 105 347.32 105 348 105 C348 104.34 348 103.68 348 103 C349.98 103 351.96 103 354 103 C354 102.34 354 101.68 354 101 C353.34 101 352.68 101 352 101 C352 98.36 352 95.72 352 93 C353.32 93 354.64 93 356 93 C356 92.34 356 91.68 356 91 C358.31 91 360.62 91 363 91 C363 91.66 363 92.32 363 93 C363.66 93 364.32 93 365 93 C365 96.3 365 99.6 365 103 C366.65 103 368.3 103 370 103 C370 103.66 370 104.32 370 105 C370.66 105 371.32 105 372 105 C372 108.96 372 112.92 372 117 C371.34 117 370.68 117 370 117 C370.33 118.65 370.66 120.3 371 122 C391.79 122 412.58 122 434 122 C434.33 120.35 434.66 118.7 435 117 C434.34 117 433.68 117 433 117 C433 113.7 433 110.4 433 107 C433.66 107 434.32 107 435 107 C435 105.68 435 104.36 435 103 C436.98 103 438.96 103 441 103 C441 99.7 441 96.4 441 93 C441.66 93 442.32 93 443 93 C443 92.34 443 91.68 443 91 C445.31 91 447.62 91 450 91 C450 91.66 450 92.32 450 93 C450.66 93 451.32 93 452 93 C452 96.3 452 99.6 452 103 C453.98 103 455.96 103 458 103 C458 103.66 458 104.32 458 105 C458.66 105 459.32 105 460 105 C460.03758423 106.55895996 460.03758423 106.55895996 460.07592773 108.14941406 C460.17020926 112.01102703 460.27037908 115.87246883 460.37231445 119.73388672 C460.41558489 121.40409334 460.45726549 123.07434194 460.49731445 124.74462891 C460.55520851 127.14758955 460.6188474 129.55034041 460.68359375 131.953125 C460.70030624 132.69806213 460.71701874 133.44299927 460.73423767 134.21051025 C460.83061695 137.59509934 460.96070174 140.7600524 462 144 C462.66 144 463.32 144 464 144 C464 144.66 464 145.32 464 146 C464.66 146 465.32 146 466 146 C466 147.98 466 149.96 466 152 C466.66 152 467.32 152 468 152 C468 153.98 468 155.96 468 158 C468.99 158 469.98 158 471 158 C471 161.3 471 164.6 471 168 C471.66 168 472.32 168 473 168 C473 168.66 473 169.32 473 170 C473.66 170 474.32 170 475 170 C475 170.66 475 171.32 475 172 C477.64 172 480.28 172 483 172 C483 173.32 483 174.64 483 176 C483.66 176 484.32 176 485 176 C485 175.34 485 174.68 485 174 C485.66 174 486.32 174 487 174 C487 172.68 487 171.36 487 170 C487.66 170 488.32 170 489 170 C489 168.68 489 167.36 489 166 C489.66 166 490.32 166 491 166 C491 164.35 491 162.7 491 161 C490.34 161 489.68 161 489 161 C489 159.35 489 157.7 489 156 C490.32 156 491.64 156 493 156 C493 157.32 493 158.64 493 160 C493.66 160 494.32 160 495 160 C495 161.32 495 162.64 495 164 C495.66 164 496.32 164 497 164 C497 162.68 497 161.36 497 160 C497.66 160 498.32 160 499 160 C499 159.34 499 158.68 499 158 C499.66 158 500.32 158 501 158 C501 157.34 501 156.68 501 156 C501.66 156 502.32 156 503 156 C503 155.34 503 154.68 503 154 C503.66 154 504.32 154 505 154 C505 153.34 505 152.68 505 152 C506.32 152 507.64 152 509 152 C509 151.34 509 150.68 509 150 C509.66 150 510.32 150 511 150 C510.9071875 148.63875 510.9071875 148.63875 510.8125 147.25 C511.01802659 143.68753905 511.40723087 142.40757133 514 140 C515.32 140 516.64 140 518 140 C518 138.02 518 136.04 518 134 C519.65 134 521.3 134 523 134 C523.33 134.66 523.66 135.32 524 136 C524.66 136 525.32 136 526 136 C526 135.34 526 134.68 526 134 C527.65 134 529.3 134 531 134 C531 134.66 531 135.32 531 136 C543.21 136 555.42 136 568 136 C568 134.35 568 132.7 568 131 C567.34 131 566.68 131 566 131 C566 129.68 566 128.36 566 127 C566.66 127 567.32 127 568 127 C568 123.37 568 119.74 568 116 C568.99 116 569.98 116 571 116 C571.33 115.34 571.66 114.68 572 114 C577.94 114 583.88 114 590 114 C590 114.99 590 115.98 590 117 C590.66 117 591.32 117 592 117 C592 119.64 592 122.28 592 125 C592.66 125 593.32 125 594 125 C594 128.96 594 132.92 594 137 C594.66 137.33 595.32 137.66 596 138 C596 137.34 596 136.68 596 136 C597.32 136 598.64 136 600 136 C600 136.66 600 137.32 600 138 C606.6 138 613.2 138 620 138 C620 138.66 620 139.32 620 140 C620.66 140 621.32 140 622 140 C622 140.66 622 141.32 622 142 C622.66 142 623.32 142 624 142 C624.33 142.66 624.66 143.32 625 144 C625.99 144 626.98 144 628 144 C628 145.32 628 146.64 628 148 C629.32 148 630.64 148 632 148 C632 150.64 632 153.28 632 156 C632.66 156 633.32 156 634 156 C634 156.66 634 157.32 634 158 C636.64 158 639.28 158 642 158 C642 158.66 642 159.32 642 160 C642.66 160 643.32 160 644 160 C644 161.32 644 162.64 644 164 C643.34 164 642.68 164 642 164 C642 164.66 642 165.32 642 166 C642.66 166 643.32 166 644 166 C644 166.66 644 167.32 644 168 C644.66 168 645.32 168 646 168 C646 168.66 646 169.32 646 170 C647.65 170 649.3 170 651 170 C651 156.8 651 143.6 651 130 C657.22810547 129.96132812 657.22810547 129.96132812 663.58203125 129.921875 C666.89165543 129.89020212 670.20118355 129.85455244 673.51073456 129.81620789 C677.00497971 129.7768162 680.49896814 129.74444296 683.9934082 129.72900391 C688.00252975 129.71096949 692.01070105 129.66103871 696.01953125 129.609375 C697.27272659 129.60814636 698.52592194 129.60691772 699.8170929 129.60565186 C700.97806992 129.58593323 702.13904694 129.5662146 703.33520508 129.54589844 C704.35890701 129.53701599 705.38260895 129.52813354 706.43733215 129.51898193 C709.15385761 129.24371891 709.15385761 129.24371891 710.72904968 126.96588135 C711.14846329 126.3171405 711.56787689 125.66839966 712 125 C712.66 125 713.32 125 714 125 C714.33 124.01 714.66 123.02 715 122 C716.125 119.8125 716.125 119.8125 718 118 C721.375 117.375 721.375 117.375 725 118 C727.625 120.75 727.625 120.75 728.80078125 122.40625 C730.10134953 124.27200686 730.10134953 124.27200686 732.8125 126.25 C733.8953125 127.11625 733.8953125 127.11625 735 128 C735 128.66 735 129.32 735 130 C741.93 130 748.86 130 756 130 C756 125.71 756 121.42 756 117 C755.34 117 754.68 117 754 117 C754 113.7 754 110.4 754 107 C754.66 107 755.32 107 756 107 C756 105.68 756 104.36 756 103 C757.98 103 759.96 103 762 103 C762 100.36 762 97.72 762 95 C765.3 95 768.6 95 772 95 C772 97.64 772 100.28 772 103 C773.98 103 775.96 103 778 103 C778 104.32 778 105.64 778 107 C778.66 107 779.32 107 780 107 C780 111.62 780 116.24 780 121 C779.34 121 778.68 121 778 121 C778 123.97 778 126.94 778 130 C782.29 130 786.58 130 791 130 C791 218.77 791 307.54 791 399 C395 399 -1 399 -409 399 C-409 314.19 -409 229.38 -409 142 C-406.69 142 -404.38 142 -402 142 C-401.05533244 138.75921875 -400.80901172 135.72774345 -400.68359375 132.359375 C-400.64169922 131.28945312 -400.59980469 130.21953125 -400.55664062 129.1171875 C-400.51732422 128.00601562 -400.47800781 126.89484375 -400.4375 125.75 C-400.39431641 124.62335938 -400.35113281 123.49671875 -400.30664062 122.3359375 C-400.20067985 119.55741046 -400.09860858 116.77879609 -400 114 C-398.68 114.33 -397.36 114.66 -396 115 C-396 112.69 -396 110.38 -396 108 C-390.72 108 -385.44 108 -380 108 C-380 110.31 -380 112.62 -380 115 C-379.34 115 -378.68 115 -378 115 C-378 116.32 -378 117.64 -378 119 C-377.34 119 -376.68 119 -376 119 C-376 121.64 -376 124.28 -376 127 C-376.66 127 -377.32 127 -378 127 C-377.67 130.63 -377.34 134.26 -377 138 C-374.69 138 -372.38 138 -370 138 C-370 139.32 -370 140.64 -370 142 C-368.35 142 -366.7 142 -365 142 C-364.855625 141.38125 -364.71125 140.7625 -364.5625 140.125 C-364 138 -364 138 -363 136 C-361.68 136 -360.36 136 -359 136 C-359 134.68 -359 133.36 -359 132 C-358.278125 132.12375 -357.55625 132.2475 -356.8125 132.375 C-355.884375 132.25125 -354.95625 132.1275 -354 132 C-353.29875 131.01 -352.5975 130.02 -351.875 129 C-350.13064978 126.66679271 -349.29938225 126.07054929 -346.4140625 125.390625 C-339.3554584 125.04999531 -339.3554584 125.04999531 -336.2109375 127.25390625 C-334.14980288 129.65856331 -332.99712046 132.00863862 -332 135 C-331.34 135 -330.68 135 -330 135 C-329.319375 135.7425 -329.319375 135.7425 -328.625 136.5 C-326.87871033 138.45218674 -326.87871033 138.45218674 -323 138 C-323 139.32 -323 140.64 -323 142 C-308.81 142 -294.62 142 -280 142 C-280 140.68 -280 139.36 -280 138 C-278.68 138 -277.36 138 -276 138 C-276 132.72 -276 127.44 -276 122 C-247.62 122 -219.24 122 -190 122 C-190 118.37 -190 114.74 -190 111 C-190.66 111 -191.32 111 -192 111 C-192 108.36 -192 105.72 -192 103 C-191.34 103 -190.68 103 -190 103 C-190 101.02 -190 99.04 -190 97 C-189.34 97 -188.68 97 -188 97 C-188 94.36 -188 91.72 -188 89 C-182.06 89 -176.12 89 -170 89 C-170 91.64 -170 94.28 -170 97 C-169.34 97 -168.68 97 -168 97 C-168 100.3 -168 103.6 -168 107 C-167.34 107 -166.68 107 -166 107 C-166 108.32 -166 109.64 -166 111 C-166.66 111 -167.32 111 -168 111 C-167.67 114.63 -167.34 118.26 -167 122 C-160.73 122 -154.46 122 -148 122 C-148 135.2 -148 148.4 -148 162 C-147.01 162 -146.02 162 -145 162 C-145 160.68 -145 159.36 -145 158 C-144.34 158 -143.68 158 -143 158 C-143 156.68 -143 155.36 -143 154 C-142.34 154 -141.68 154 -141 154 C-141 153.34 -141 152.68 -141 152 C-140.34 152 -139.68 152 -139 152 C-139 150.68 -139 149.36 -139 148 C-138.34 148 -137.68 148 -137 148 C-137 146.68 -137 145.36 -137 144 C-135.02 144 -133.04 144 -131 144 C-131 142.02 -131 140.04 -131 138 C-130.34 138 -129.68 138 -129 138 C-129 137.34 -129 136.68 -129 136 C-128.34 136 -127.68 136 -127 136 C-127 133.36 -127 130.72 -127 128 C-125.02 127.67 -123.04 127.34 -121 127 C-121 126.01 -121 125.02 -121 124 C-119.68 124 -118.36 124 -117 124 C-117 122.35 -117 120.7 -117 119 C-116.34 119 -115.68 119 -115 119 C-115 118.01 -115 117.02 -115 116 C-113.35 116 -111.7 116 -110 116 C-109.67 115.34 -109.34 114.68 -109 114 C-107.68 114.33 -106.36 114.66 -105 115 C-105 113.35 -105 111.7 -105 110 C-103.68 110 -102.36 110 -101 110 C-101 110.99 -101 111.98 -101 113 C-100.34 113 -99.68 113 -99 113 C-99 112.01 -99 111.02 -99 110 C-97.02 110.33 -95.04 110.66 -93 111 C-93 110.01 -93 109.02 -93 108 C-92.030625 108.020625 -91.06125 108.04125 -90.0625 108.0625 C-87.12534105 108.35618499 -87.12534105 108.35618499 -86 107 C-86.99 107 -87.98 107 -89 107 C-89 106.34 -89 105.68 -89 105 C-94.28 105 -99.56 105 -105 105 C-105 105.66 -105 106.32 -105 107 C-106.32 107 -107.64 107 -109 107 C-109 105.68 -109 104.36 -109 103 C-108.34 103 -107.68 103 -107 103 C-107 102.34 -107 101.68 -107 101 C-105.68 101 -104.36 101 -103 101 C-103 99.68 -103 98.36 -103 97 C-108.94 97 -114.88 97 -121 97 C-121 95.68 -121 94.36 -121 93 C-119.02 93 -117.04 93 -115 93 C-115 92.34 -115 91.68 -115 91 C-113.68 91 -112.36 91 -111 91 C-111 90.34 -111 89.68 -111 89 C-109.02 89 -107.04 89 -105 89 C-105 88.34 -105 87.68 -105 87 C-103.02 87 -101.04 87 -99 87 C-99 86.34 -99 85.68 -99 85 C-98.34 85 -97.68 85 -97 85 C-97 84.34 -97 83.68 -97 83 C-97.66 83 -98.32 83 -99 83 C-99 81.68 -99 80.36 -99 79 C-94.71 79 -90.42 79 -86 79 C-86 77.68 -86 76.36 -86 75 C-86.66 75 -87.32 75 -88 75 C-88 74.34 -88 73.68 -88 73 C-89.65 73 -91.3 73 -93 73 C-93 72.34 -93 71.68 -93 71 C-93.66 71 -94.32 71 -95 71 C-95 70.34 -95 69.68 -95 69 C-97.64 69 -100.28 69 -103 69 C-103 68.34 -103 67.68 -103 67 C-106.3 67 -109.6 67 -113 67 C-113 65.68 -113 64.36 -113 63 C-109.04 63 -105.08 63 -101 63 C-101 62.34 -101 61.68 -101 61 C-92.42 61 -83.84 61 -75 61 C-75 61.66 -75 62.32 -75 63 C-71.7 63 -68.4 63 -65 63 C-65 63.66 -65 64.32 -65 65 C-63.35 65 -61.7 65 -60 65 C-60 64.34 -60 63.68 -60 63 C-61.32 63 -62.64 63 -64 63 C-64.33 62.01 -64.66 61.02 -65 60 C-66.65 60 -68.3 60 -70 60 C-70.33 58.68 -70.66 57.36 -71 56 C-71.99 56 -72.98 56 -74 56 C-74.78375 55.01 -75.5675 54.02 -76.375 53 C-78.65284965 49.73191523 -78.65284965 49.73191523 -81.8125 49.625 C-82.8953125 49.810625 -82.8953125 49.810625 -84 50 C-84 49.34 -84 48.68 -84 48 C-86.97 48 -89.94 48 -93 48 C-93 46.35 -93 44.7 -93 43 C-85.08 43 -77.16 43 -69 43 C-69 43.66 -69 44.32 -69 45 C-67.02 45 -65.04 45 -63 45 C-63 45.66 -63 46.32 -63 47 C-62.01 47 -61.02 47 -60 47 C-60.66 46.54625 -61.32 46.0925 -62 45.625 C-62.66 45.08875 -63.32 44.5525 -64 44 C-64 43.34 -64 42.68 -64 42 C-65.32 42 -66.64 42 -68 42 C-68.2475 41.4225 -68.495 40.845 -68.75 40.25 C-69.93990475 37.86550111 -69.93990475 37.86550111 -72.125 35.875 C-72.74375 35.25625 -73.3625 34.6375 -74 34 C-74 33.34 -74 32.68 -74 32 C-75.98 32 -77.96 32 -80 32 C-80 30.35 -80 28.7 -80 27 C-76.37 27 -72.74 27 -69 27 C-69 27.66 -69 28.32 -69 29 C-67.68 29 -66.36 29 -65 29 C-65 29.66 -65 30.32 -65 31 C-63.68 31 -62.36 31 -61 31 C-61 31.66 -61 32.32 -61 33 C-59.68 33 -58.36 33 -57 33 C-57 33.66 -57 34.32 -57 35 C-55.68 35 -54.36 35 -53 35 C-53 35.66 -53 36.32 -53 37 C-51.68 37 -50.36 37 -49 37 C-49 37.66 -49 38.32 -49 39 C-47.68 39 -46.36 39 -45 39 C-45 39.66 -45 40.32 -45 41 C-43.35 41 -41.7 41 -40 41 C-40.474375 40.2575 -40.94875 39.515 -41.4375 38.75 C-42.77869327 36.38949985 -43.512312 34.63351523 -44 32 C-44.66 32 -45.32 32 -46 32 C-46 30.02 -46 28.04 -46 26 C-46.66 26 -47.32 26 -48 26 C-48 25.34 -48 24.68 -48 24 C-48.66 24 -49.32 24 -50 24 C-50 23.34 -50 22.68 -50 22 C-50.66 22 -51.32 22 -52 22 C-52 19.69 -52 17.38 -52 15 C-49.69 15 -47.38 15 -45 15 C-44.67 15.66 -44.34 16.32 -44 17 C-43.01 17 -42.02 17 -41 17 C-38.8125 18.875 -38.8125 18.875 -37 21 C-37 21.66 -37 22.32 -37 23 C-35.68 23 -34.36 23 -33 23 C-31.54296875 24.5390625 -31.54296875 24.5390625 -30.1875 26.625 C-27.6138321 30.33740076 -24.88049514 33.01468126 -21.3203125 35.7734375 C-20.88460938 36.17820312 -20.44890625 36.58296875 -20 37 C-20 37.66 -20 38.32 -20 39 C-19.34 39 -18.68 39 -18 39 C-18 37.02 -18 35.04 -18 33 C-17.34 33 -16.68 33 -16 33 C-16.0825 32.34 -16.165 31.68 -16.25 31 C-15.89896359 26.78756306 -14.03039227 23.65289323 -12 20 C-11.34 20 -10.68 20 -10 20 C-10 18.68 -10 17.36 -10 16 C-9.34 16 -8.68 16 -8 16 C-8 14.68 -8 13.36 -8 12 C-7.34 12 -6.68 12 -6 12 C-6 10.68 -6 9.36 -6 8 C-5.34 8 -4.68 8 -4 8 C-4 7.34 -4 6.68 -4 6 C-3.34 6 -2.68 6 -2 6 C-2 5.34 -2 4.68 -2 4 C-1.34 4 -0.68 4 0 4 C0 2.68 0 1.36 0 0 Z M0 30 C0.33 30.66 0.66 31.32 1 32 C1.33 31.34 1.66 30.68 2 30 C1.34 30 0.68 30 0 30 Z M-39 41 C-38 43 -38 43 -38 43 Z M40 59 C41 61 41 61 41 61 Z M-87 117 C-85.515 117.99 -85.515 117.99 -84 119 C-84 118.34 -84 117.68 -84 117 C-84.99 117 -85.98 117 -87 117 Z M-95 119 C-95 119.66 -95 120.32 -95 121 C-97.64 121 -100.28 121 -103 121 C-103 121.99 -103 122.98 -103 124 C-100.36 124 -97.72 124 -95 124 C-94.34 122.68 -93.68 121.36 -93 120 C-92.01 120.33 -91.02 120.66 -90 121 C-89.67 120.34 -89.34 119.68 -89 119 C-90.98 119 -92.96 119 -95 119 Z M-113 121 C-113 121.99 -113 122.98 -113 124 C-111.02 124 -109.04 124 -107 124 C-108.32 123.67 -109.64 123.34 -111 123 C-111 122.34 -111 121.68 -111 121 C-111.66 121 -112.32 121 -113 121 Z M252 143 C252 147.95 252 152.9 252 158 C254.97 158 257.94 158 261 158 C261 153.05 261 148.1 261 143 C258.03 143 255.06 143 252 143 Z M725 144 C725 152.58 725 161.16 725 170 C725.33 170 725.66 170 726 170 C726 162.74 726 155.48 726 148 C726.66 148 727.32 148 728 148 C728 147.34 728 146.68 728 146 C727.34 146 726.68 146 726 146 C725.67 145.34 725.34 144.68 725 144 Z M717 146 C717 153.92 717 161.84 717 170 C717.33 170 717.66 170 718 170 C718 162.08 718 154.16 718 146 C717.67 146 717.34 146 717 146 Z M733 152 C733 157.94 733 163.88 733 170 C733.99 170 734.98 170 736 170 C736.08074203 167.37438891 736.1403623 164.75124324 736.1875 162.125 C736.21263672 161.37863281 736.23777344 160.63226562 736.26367188 159.86328125 C736.3298764 157.43778172 736.3298764 157.43778172 736 154 C735.01 153.34 734.02 152.68 733 152 Z M709 154 C709 154.66 709 155.32 709 156 C708.34 156 707.68 156 707 156 C707 156.66 707 157.32 707 158 C707.66 158 708.32 158 709 158 C709 159.32 709 160.64 709 162 C708.34 162 707.68 162 707 162 C707 163.98 707 165.96 707 168 C707.66 168 708.32 168 709 168 C709 168.66 709 169.32 709 170 C709.66 170 710.32 170 711 170 C711 164.72 711 159.44 711 154 C710.34 154 709.68 154 709 154 Z M-350 156 C-352.14336161 159.4766338 -352.21277626 162.21229195 -352.125 166.25 C-352.10695313 167.32765625 -352.08890625 168.4053125 -352.0703125 169.515625 C-352.04710937 170.33546875 -352.02390625 171.1553125 -352 172 C-351.34 172 -350.68 172 -350 172 C-350 172.66 -350 173.32 -350 174 C-347.69 174 -345.38 174 -343 174 C-343 169.38 -343 164.76 -343 160 C-342.34 160 -341.68 160 -341 160 C-341 159.34 -341 158.68 -341 158 C-341.66 158 -342.32 158 -343 158 C-343.33 157.34 -343.66 156.68 -344 156 C-345.98 156 -347.96 156 -350 156 Z M701 162 C701 162.66 701 163.32 701 164 C700.34 164 699.68 164 699 164 C699 164.66 699 165.32 699 166 C698.34 166 697.68 166 697 166 C697 166.66 697 167.32 697 168 C696.34 168 695.68 168 695 168 C695 168.66 695 169.32 695 170 C696.98 170 698.96 170 701 170 C701 169.34 701 168.68 701 168 C701.66 168 702.32 168 703 168 C703 166.02 703 164.04 703 162 C702.34 162 701.68 162 701 162 Z M743 162 C743 164.64 743 167.28 743 170 C745.31 170 747.62 170 750 170 C750 169.34 750 168.68 750 168 C749.34 168 748.68 168 748 168 C748 167.34 748 166.68 748 166 C747.34 166 746.68 166 746 166 C745.34 164.68 744.68 163.36 744 162 C743.67 162 743.34 162 743 162 Z M-148 168 C-147 170 -147 170 -147 170 Z M477 180 C477 181.32 477 182.64 477 184 C477.66 184 478.32 184 479 184 C479 182.68 479 181.36 479 180 C478.34 180 477.68 180 477 180 Z M-253 192 C-253 192.66 -253 193.32 -253 194 C-246.73 194 -240.46 194 -234 194 C-234 193.34 -234 192.68 -234 192 C-240.27 192 -246.54 192 -253 192 Z M-230 192 C-230 192.66 -230 193.32 -230 194 C-229.34 194 -228.68 194 -228 194 C-228 193.34 -228 192.68 -228 192 C-228.66 192 -229.32 192 -230 192 Z M-202 192 C-202 192.66 -202 193.32 -202 194 C-193.75 194 -185.5 194 -177 194 C-177 193.34 -177 192.68 -177 192 C-185.25 192 -193.5 192 -202 192 Z M596 192 C596 192.66 596 193.32 596 194 C595.34 194 594.68 194 594 194 C594 195.32 594 196.64 594 198 C593.34 198 592.68 198 592 198 C592 199.32 592 200.64 592 202 C592.66 202 593.32 202 594 202 C594 203.32 594 204.64 594 206 C595.32 206 596.64 206 598 206 C598 206.66 598 207.32 598 208 C599.98 208 601.96 208 604 208 C604 207.34 604 206.68 604 206 C604.66 206 605.32 206 606 206 C606 205.34 606 204.68 606 204 C606.66 204 607.32 204 608 204 C608 201.36 608 198.72 608 196 C607.34 196 606.68 196 606 196 C606 195.34 606 194.68 606 194 C605.34 194 604.68 194 604 194 C604 193.34 604 192.68 604 192 C601.36 192 598.72 192 596 192 Z M-132 194 C-132 195.98 -132 197.96 -132 200 C-127.05 200 -122.1 200 -117 200 C-117 198.02 -117 196.04 -117 194 C-121.95 194 -126.9 194 -132 194 Z M-111 194 C-111 195.98 -111 197.96 -111 200 C-105.06 200 -99.12 200 -93 200 C-93 198.02 -93 196.04 -93 194 C-98.94 194 -104.88 194 -111 194 Z M-89 194 C-89 195.98 -89 197.96 -89 200 C-84.05 200 -79.1 200 -74 200 C-74 198.02 -74 196.04 -74 194 C-78.95 194 -83.9 194 -89 194 Z M-39 196 C-38 198 -38 198 -38 198 Z M-89 204 C-89 213.24 -89 222.48 -89 232 C-84.05 231.67 -79.1 231.34 -74 231 C-74 222.75 -74 214.5 -74 206 C-78.29 206 -82.58 206 -87 206 C-87 205.34 -87 204.68 -87 204 C-87.66 204 -88.32 204 -89 204 Z M-132 206 C-132 214.25 -132 222.5 -132 231 C-127.05 231 -122.1 231 -117 231 C-117 222.75 -117 214.5 -117 206 C-121.95 206 -126.9 206 -132 206 Z M-111 206 C-111 214.25 -111 222.5 -111 231 C-105.06 231 -99.12 231 -93 231 C-93 222.75 -93 214.5 -93 206 C-98.94 206 -104.88 206 -111 206 Z M-45 206 C-45 207.32 -45 208.64 -45 210 C-45.66 210 -46.32 210 -47 210 C-47 216.93 -47 223.86 -47 231 C-44.03 231.33 -41.06 231.66 -38 232 C-38 223.42 -38 214.84 -38 206 C-40.31 206 -42.62 206 -45 206 Z M759 206 C759 209.96 759 213.92 759 218 C760.65 218 762.3 218 764 218 C764 217.34 764 216.68 764 216 C763.34 216 762.68 216 762 216 C762 214.02 762 212.04 762 210 C761.34 210 760.68 210 760 210 C759.67 208.68 759.34 207.36 759 206 Z M689 208 C689 209.32 689 210.64 689 212 C688.34 212 687.68 212 687 212 C687 213.65 687 215.3 687 217 C688.32 217.33 689.64 217.66 691 218 C691 214.7 691 211.4 691 208 C690.34 208 689.68 208 689 208 Z M695 208 C695 211.3 695 214.6 695 218 C696.98 217.67 698.96 217.34 701 217 C701 215.35 701 213.7 701 212 C700.34 212 699.68 212 699 212 C699 210.68 699 209.36 699 208 C697.68 208 696.36 208 695 208 Z M751 208 C751 209.98 751 211.96 751 214 C750.34 214 749.68 214 749 214 C749 214.99 749 215.98 749 217 C749.99 217 750.98 217 752 217 C752 214.03 752 211.06 752 208 C751.67 208 751.34 208 751 208 Z M349 212 C349 215.96 349 219.92 349 224 C350.65 224 352.3 224 354 224 C354 220.04 354 216.08 354 212 C352.35 212 350.7 212 349 212 Z M361 212 C361 215.96 361 219.92 361 224 C363.31 224 365.62 224 368 224 C368 220.04 368 216.08 368 212 C365.69 212 363.38 212 361 212 Z M420 212 C420 215.96 420 219.92 420 224 C425.61 224 431.22 224 437 224 C437 220.7 437 217.4 437 214 C434.36 214 431.72 214 429 214 C428.67 213.34 428.34 212.68 428 212 C428 212.66 428 213.32 428 214 C426.35 214 424.7 214 423 214 C423 213.34 423 212.68 423 212 C422.01 212 421.02 212 420 212 Z M-251 214 C-251 214.66 -251 215.32 -251 216 C-250.01 216 -249.02 216 -248 216 C-248 215.34 -248 214.68 -248 214 C-248.99 214 -249.98 214 -251 214 Z M-237 214 C-237 214.66 -237 215.32 -237 216 C-234.69 216 -232.38 216 -230 216 C-230 215.34 -230 214.68 -230 214 C-232.31 214 -234.62 214 -237 214 Z M-202 214 C-202 214.66 -202 215.32 -202 216 C-200.68 216 -199.36 216 -198 216 C-198 215.34 -198 214.68 -198 214 C-199.32 214 -200.64 214 -202 214 Z M410 212 C410 212.66 410 213.32 410 214 C407.36 214 404.72 214 402 214 C402 217.3 402 220.6 402 224 C405.63 224 409.26 224 413 224 C413 220.04 413 216.08 413 212 C412.01 212 411.02 212 410 212 Z M446 212 C446 212.66 446 213.32 446 214 C444.68 214 443.36 214 442 214 C442 217.3 442 220.6 442 224 C446.29 224 450.58 224 455 224 C455 220.7 455 217.4 455 214 C452.36 214 449.72 214 447 214 C446.67 213.34 446.34 212.68 446 212 Z M202 216 C202 217.98 202 219.96 202 222 C204.33294775 222.04241723 206.66702567 222.04092937 209 222 C210.29633621 220.93354885 210.29633621 220.93354885 210.0625 218.4375 C210.041875 217.633125 210.02125 216.82875 210 216 C207.36 216 204.72 216 202 216 Z M216 216 C216 217.98 216 219.96 216 222 C218.31 222 220.62 222 223 222 C223 220.02 223 218.04 223 216 C220.69 216 218.38 216 216 216 Z M246 216 C246 217.98 246 219.96 246 222 C248.31 222 250.62 222 253 222 C253 220.02 253 218.04 253 216 C250.69 216 248.38 216 246 216 Z M260 216 C260 217.98 260 219.96 260 222 C262.31 222 264.62 222 267 222 C267 220.02 267 218.04 267 216 C264.69 216 262.38 216 260 216 Z M289 216 C289 217.98 289 219.96 289 222 C291.64 222 294.28 222 297 222 C297 220.02 297 218.04 297 216 C294.36 216 291.72 216 289 216 Z M303 216 C303 217.98 303 219.96 303 222 C305.33294775 222.04241723 307.66702567 222.04092937 310 222 C311.29633621 220.93354885 311.29633621 220.93354885 311.0625 218.4375 C311.041875 217.633125 311.02125 216.82875 311 216 C308.36 216 305.72 216 303 216 Z M584 222 C584 224.31 584 226.62 584 229 C589.28 229 594.56 229 600 229 C600 228.01 600 227.02 600 226 C599.34 226 598.68 226 598 226 C598 224.68 598 223.36 598 222 C593.38 222 588.76 222 584 222 Z M604 222 C604 224.64 604 227.28 604 230 C609.445 229.505 609.445 229.505 615 229 C615 226.69 615 224.38 615 222 C611.37 222 607.74 222 604 222 Z M683 222 C683 222.66 683 223.32 683 224 C682.34 224 681.68 224 681 224 C681.65032557 227.51175807 682.74942483 230.20618254 685 233 C688.12635209 233.41746608 688.12635209 233.41746608 691 233 C691 229.37 691 225.74 691 222 C688.36 222 685.72 222 683 222 Z M697 222 C697 222.66 697 223.32 697 224 C696.34 224 695.68 224 695 224 C695 226.97 695 229.94 695 233 C696.32 233 697.64 233 699 233 C699.33 233.99 699.66 234.98 700 236 C705.07309251 231.84195722 705.07309251 231.84195722 707.4375 226.0625 C707.293125 225.381875 707.14875 224.70125 707 224 C705.02 224 703.04 224 701 224 C701 223.34 701 222.68 701 222 C699.68 222 698.36 222 697 222 Z M745 222 C745 223.32 745 224.64 745 226 C744.34 226 743.68 226 743 226 C743.66 227.98 744.32 229.96 745 232 C747.31 232.33 749.62 232.66 752 233 C752 229.37 752 225.74 752 222 C749.69 222 747.38 222 745 222 Z M759 222 C759 225.63 759 229.26 759 233 C761.31 233 763.62 233 766 233 C766 232.01 766 231.02 766 230 C766.66 230 767.32 230 768 230 C768 228.02 768 226.04 768 224 C767.34 224 766.68 224 766 224 C766 223.34 766 222.68 766 222 C763.69 222 761.38 222 759 222 Z M574 224 C574 225.65 574 227.3 574 229 C574.66 229 575.32 229 576 229 C576 227.35 576 225.7 576 224 C575.34 224 574.68 224 574 224 Z M622 224 C622 225.98 622 227.96 622 230 C622.33 230 622.66 230 623 230 C623 228.02 623 226.04 623 224 C622.67 224 622.34 224 622 224 Z M-32 226 C-31.67 227.65 -31.34 229.3 -31 231 C-30.01 231.33 -29.02 231.66 -28 232 C-28 230.68 -28 229.36 -28 228 C-28.66 228 -29.32 228 -30 228 C-30 227.34 -30 226.68 -30 226 C-30.66 226 -31.32 226 -32 226 Z M202 226 C202 228.31 202 230.62 202 233 C204.64 233 207.28 233 210 233 C210 230.69 210 228.38 210 226 C207.36 226 204.72 226 202 226 Z M216 226 C216 228.31 216 230.62 216 233 C218.31 233 220.62 233 223 233 C223 230.69 223 228.38 223 226 C220.69 226 218.38 226 216 226 Z M246 226 C246 228.31 246 230.62 246 233 C248.31 233 250.62 233 253 233 C253 230.69 253 228.38 253 226 C250.69 226 248.38 226 246 226 Z M260 226 C260 228.31 260 230.62 260 233 C262.31 233 264.62 233 267 233 C267 230.69 267 228.38 267 226 C264.69 226 262.38 226 260 226 Z M289 226 C289 228.31 289 230.62 289 233 C291.64 233 294.28 233 297 233 C297 230.69 297 228.38 297 226 C294.36 226 291.72 226 289 226 Z M303 226 C303 228.31 303 230.62 303 233 C305.64 233 308.28 233 311 233 C311 230.69 311 228.38 311 226 C308.36 226 305.72 226 303 226 Z M-394 227 C-394 232.28 -394 237.56 -394 243 C-388.39 243 -382.78 243 -377 243 C-377 238.05 -377 233.1 -377 228 C-382.61 227.67 -388.22 227.34 -394 227 Z M-309 227 C-309 231.62 -309 236.24 -309 241 C-306.64341603 242.17829199 -305.47426764 242.04414372 -302.8671875 241.87890625 C-302.06152344 241.83056641 -301.25585938 241.78222656 -300.42578125 241.73242188 C-299.58402344 241.67634766 -298.74226563 241.62027344 -297.875 241.5625 C-297.02550781 241.51029297 -296.17601562 241.45808594 -295.30078125 241.40429688 C-293.20020876 241.27448622 -291.10005809 241.1378826 -289 241 C-289.17402344 240.22269531 -289.34804688 239.44539063 -289.52734375 238.64453125 C-290.00305249 235.98292121 -289.84248697 234.52746092 -289 232 C-289.66 232 -290.32 232 -291 232 C-291 230.68 -291 229.36 -291 228 C-296.94 227.67 -302.88 227.34 -309 227 Z M-370 228 C-370 232.95 -370 237.9 -370 243 C-367.20826945 243.02690104 -364.41679652 243.04679053 -361.625 243.0625 C-360.43390625 243.07506836 -360.43390625 243.07506836 -359.21875 243.08789062 C-354.97607778 243.23040151 -354.97607778 243.23040151 -351 242 C-351 238.04 -351 234.08 -351 230 C-351.66 230 -352.32 230 -353 230 C-353 229.34 -353 228.68 -353 228 C-358.61 228 -364.22 228 -370 228 Z M-324.0625 227.5 C-325.20041992 227.57154297 -325.20041992 227.57154297 -326.36132812 227.64453125 C-328.24090288 227.7627435 -330.12045369 227.88133642 -332 228 C-332 232.29 -332 236.58 -332 241 C-326.39 241 -320.78 241 -315 241 C-315 236.38 -315 231.76 -315 227 C-318.01717001 227 -321.05032621 227.30964914 -324.0625 227.5 Z M24 228 C24 233.28 24 238.56 24 244 C24.33 244 24.66 244 25 244 C25 238.72 25 233.44 25 228 C24.67 228 24.34 228 24 228 Z M38 228 C38 232.95 38 237.9 38 243 C39.65 243 41.3 243 43 243 C43 238.05 43 233.1 43 228 C41.35 228 39.7 228 38 228 Z M50 228 C50 232.95 50 237.9 50 243 C50.99 243 51.98 243 53 243 C53 238.05 53 233.1 53 228 C52.01 228 51.02 228 50 228 Z M60 228 C60 233.28 60 238.56 60 244 C60.33 244 60.66 244 61 244 C61 238.72 61 233.44 61 228 C60.67 228 60.34 228 60 228 Z M67 228 C67 232.95 67 237.9 67 243 C67.99 243.495 67.99 243.495 69 244 C69 238.72 69 233.44 69 228 C68.34 228 67.68 228 67 228 Z M103 228 C103 232.29 103 236.58 103 241 C104.32 241 105.64 241 107 241 C107 236.71 107 232.42 107 228 C105.68 228 104.36 228 103 228 Z M119 228 C119 229.98 119 231.96 119 234 C119.33 234 119.66 234 120 234 C120 232.02 120 230.04 120 228 C119.67 228 119.34 228 119 228 Z M125 228 C124.62447835 234.31268603 124.62447835 234.31268603 127 240 C126.01 240.495 126.01 240.495 125 241 C125.99 241 126.98 241 128 241 C128 236.71 128 232.42 128 228 C127.01 228 126.02 228 125 228 Z M135 228 C135 232.29 135 236.58 135 241 C135.99 241 136.98 241 138 241 C138 236.71 138 232.42 138 228 C137.01 228 136.02 228 135 228 Z M145 228 C145 230.64 145 233.28 145 236 C145.33 236 145.66 236 146 236 C146 233.36 146 230.72 146 228 C145.67 228 145.34 228 145 228 Z M151 228 C151 232.62 151 237.24 151 242 C151.33 242 151.66 242 152 242 C152 237.38 152 232.76 152 228 C151.67 228 151.34 228 151 228 Z M159 228 C159 232.62 159 237.24 159 242 C159.33 242 159.66 242 160 242 C160 237.38 160 232.76 160 228 C159.67 228 159.34 228 159 228 Z M74 229 C74 232 74 232 74 232 Z M-253 230 C-252 232 -252 232 -252 232 Z M-192 230 C-192 230.33 -192 230.66 -192 231 C-187.05 231 -182.1 231 -177 231 C-177 230.67 -177 230.34 -177 230 C-181.95 230 -186.9 230 -192 230 Z M501 233 C501 234.32 501 235.64 501 237 C504.3 237 507.6 237 511 237 C511 236.01 511 235.02 511 234 C507.7 233.67 504.4 233.34 501 233 Z M517 233 C517 234.32 517 235.64 517 237 C520.63 237 524.26 237 528 237 C528 236.01 528 235.02 528 234 C524.37 233.67 520.74 233.34 517 233 Z M535 234 C536 238 536 238 536 238 Z M574 236 C574 251.51 574 267.02 574 283 C574.66 283 575.32 283 576 283 C576 267.49 576 251.98 576 236 C575.34 236 574.68 236 574 236 Z M584 236 C584 252.17 584 268.34 584 285 C588.62 285 593.24 285 598 285 C598 284.34 598 283.68 598 283 C598.66 283 599.32 283 600 283 C600 267.49 600 251.98 600 236 C594.72 236 589.44 236 584 236 Z M604 236 C604 252.17 604 268.34 604 285 C607.63 285 611.26 285 615 285 C615 268.83 615 252.66 615 236 C611.37 236 607.74 236 604 236 Z M622 236 C622 251.51 622 267.02 622 283 C622.33 283 622.66 283 623 283 C623 267.49 623 251.98 623 236 C622.67 236 622.34 236 622 236 Z M119 237 C119 238.65 119 240.3 119 242 C119.33 242 119.66 242 120 242 C120 240.35 120 238.7 120 237 C119.67 237 119.34 237 119 237 Z M202 238 C202 240.31 202 242.62 202 245 C204.64 245 207.28 245 210 245 C210 242.69 210 240.38 210 238 C207.36 238 204.72 238 202 238 Z M216 238 C216 240.31 216 242.62 216 245 C218.31 245 220.62 245 223 245 C223 242.69 223 240.38 223 238 C220.69 238 218.38 238 216 238 Z M246 238 C246 240.31 246 242.62 246 245 C248.31 245 250.62 245 253 245 C253 242.69 253 240.38 253 238 C250.69 238 248.38 238 246 238 Z M260 238 C260 240.31 260 242.62 260 245 C262.31 245 264.62 245 267 245 C267 242.69 267 240.38 267 238 C264.69 238 262.38 238 260 238 Z M289 238 C289 240.31 289 242.62 289 245 C291.64 245 294.28 245 297 245 C297 242.69 297 240.38 297 238 C294.36 238 291.72 238 289 238 Z M303 238 C303 240.31 303 242.62 303 245 C305.64 245 308.28 245 311 245 C311 242.69 311 240.38 311 238 C308.36 238 305.72 238 303 238 Z M74 239 C74 242 74 242 74 242 Z M145 239 C146 242 146 242 146 242 Z M535 243 C535 254.22 535 265.44 535 277 C535.33 277 535.66 277 536 277 C536 265.78 536 254.56 536 243 C535.67 243 535.34 243 535 243 Z M493 244 C497 245 497 245 497 245 Z M501 244 C501 250.93 501 257.86 501 265 C503.64 265 506.28 265 509 265 C509 265.66 509 266.32 509 267 C509.66 267 510.32 267 511 267 C511 259.41 511 251.82 511 244 C507.7 244 504.4 244 501 244 Z M517 244 C517 252.91 517 261.82 517 271 C517.66 271 518.32 271 519 271 C519 272.32 519 273.64 519 275 C520.32 275 521.64 275 523 275 C523 275.66 523 276.32 523 277 C523.66 277 524.32 277 525 277 C525 278.98 525 280.96 525 283 C525.66 283 526.32 283 527 283 C527.33 284.32 527.66 285.64 528 287 C528 272.81 528 258.62 528 244 C524.37 244 520.74 244 517 244 Z M-190 247 C-190 249.64 -190 252.28 -190 255 C-189.34 255 -188.68 255 -188 255 C-187.67 253.68 -187.34 252.36 -187 251 C-186.34 251 -185.68 251 -185 251 C-185 250.01 -185 249.02 -185 248 C-186.65 247.67 -188.3 247.34 -190 247 Z M-202 248 C-202 248.99 -202 249.98 -202 251 C-201.34 251 -200.68 251 -200 251 C-200 251.66 -200 252.32 -200 253 C-199.34 253 -198.68 253 -198 253 C-198 253.66 -198 254.32 -198 255 C-197.34 255 -196.68 255 -196 255 C-196 252.36 -196 249.72 -196 247 C-198.02450921 247 -200.02400526 247.59466775 -202 248 Z M119 249 C119 260.22 119 271.44 119 283 C119.33 283 119.66 283 120 283 C120 271.78 120 260.56 120 249 C119.67 249 119.34 249 119 249 Z M127 249 C124.65983112 250.90370874 124.65983112 250.90370874 124.77294922 254.16455078 C124.77326611 255.50817963 124.78457819 256.8518341 124.8046875 258.1953125 C124.8075174 258.90275604 124.81034729 259.61019958 124.81326294 260.33908081 C124.82446863 262.6012251 124.84957321 264.86297515 124.875 267.125 C124.88502933 268.65754637 124.89415526 270.19009894 124.90234375 271.72265625 C124.92440914 275.48192301 124.95894104 279.24089464 125 283 C125.99 283 126.98 283 128 283 C128 271.78 128 260.56 128 249 C127.67 249 127.34 249 127 249 Z M145 249 C145 253.29 145 257.58 145 262 C145.33 262 145.66 262 146 262 C146 257.71 146 253.42 146 249 C145.67 249 145.34 249 145 249 Z M151 249 C151 260.22 151 271.44 151 283 C151.33 283 151.66 283 152 283 C152 271.78 152 260.56 152 249 C151.67 249 151.34 249 151 249 Z M159 249 C159 260.22 159 271.44 159 283 C159.33 283 159.66 283 160 283 C160 271.78 160 260.56 160 249 C159.67 249 159.34 249 159 249 Z M103 250 C103 260.89 103 271.78 103 283 C104.32 283 105.64 283 107 283 C107 272.11 107 261.22 107 250 C105.68 250 104.36 250 103 250 Z M135 250 C135 260.89 135 271.78 135 283 C135.99 283 136.98 283 138 283 C138 272.11 138 261.22 138 250 C137.01 250 136.02 250 135 250 Z M24 251 C24 261.56 24 272.12 24 283 C24.33 283 24.66 283 25 283 C25 272.44 25 261.88 25 251 C24.67 251 24.34 251 24 251 Z M40 251 C37.58877632 252.96535717 37.58877632 252.96535717 37.8046875 256.6953125 C37.817991 258.17200108 37.84185165 259.64862358 37.875 261.125 C37.88402344 261.87910156 37.89304687 262.63320312 37.90234375 263.41015625 C37.9259313 265.27357254 37.96180281 267.13682593 38 269 C39.65 269 41.3 269 43 269 C43.08074203 266.37438891 43.1403623 263.75124324 43.1875 261.125 C43.21263672 260.37863281 43.23777344 259.63226562 43.26367188 258.86328125 C43.3298764 256.43778172 43.3298764 256.43778172 43 253 C42.01 252.34 41.02 251.68 40 251 Z M60 251 C60 254.96 60 258.92 60 263 C60.33 263 60.66 263 61 263 C61 259.04 61 255.08 61 251 C60.67 251 60.34 251 60 251 Z M50 252 C50 256.29 50 260.58 50 265 C50.33 264.34 50.66 263.68 51 263 C51.66 263 52.32 263 53 263 C53 259.37 53 255.74 53 252 C52.01 252 51.02 252 50 252 Z M-180 253 C-180.66 254.32 -181.32 255.64 -182 257 C-182.66 257 -183.32 257 -184 257 C-184 257.66 -184 258.32 -184 259 C-181.69 259 -179.38 259 -177 259 C-177.57344937 256.13275314 -177.8614515 255.1385485 -180 253 Z M74 253 C74 256 74 256 74 256 Z M-210 255 C-210 255.66 -210 256.32 -210 257 C-210.66 257 -211.32 257 -212 257 C-212 258.32 -212 259.64 -212 261 C-210.68 261 -209.36 261 -208 261 C-208 260.34 -208 259.68 -208 259 C-206.68 259 -205.36 259 -204 259 C-204 258.34 -204 257.68 -204 257 C-206.81509993 254.7226499 -206.81509993 254.7226499 -210 255 Z M-101 255 C-101 256.98 -101 258.96 -101 261 C-96.71 261 -92.42 261 -88 261 C-88 259.35 -88 257.7 -88 256 C-92.29 255.67 -96.58 255.34 -101 255 Z M-47 255 C-47 256.98 -47 258.96 -47 261 C-44.03 261 -41.06 261 -38 261 C-38 259.02 -38 257.04 -38 255 C-40.97 255 -43.94 255 -47 255 Z M-121 256 C-121 257.65 -121 259.3 -121 261 C-116.38 261 -111.76 261 -107 261 C-107 259.35 -107 257.7 -107 256 C-111.62 256 -116.24 256 -121 256 Z M-31 256 C-31 257.65 -31 259.3 -31 261 C-30.01 261 -29.02 261 -28 261 C-28 259.02 -28 257.04 -28 255 C-29.2236068 254.9254644 -29.2236068 254.9254644 -31 256 Z M-386 257 C-386 257.66 -386 258.32 -386 259 C-386.66 259 -387.32 259 -388 259 C-388 259.66 -388 260.32 -388 261 C-388.66 261 -389.32 261 -390 261 C-390 261.66 -390 262.32 -390 263 C-390.66 263 -391.32 263 -392 263 C-392 263.66 -392 264.32 -392 265 C-392.66 265 -393.32 265 -394 265 C-394 266.98 -394 268.96 -394 271 C-394.66 271 -395.32 271 -396 271 C-396 271.66 -396 272.32 -396 273 C-391.05 273 -386.1 273 -381 273 C-381 267.72 -381 262.44 -381 257 C-382.65 257 -384.3 257 -386 257 Z M-376 257 C-376 262.28 -376 267.56 -376 273 C-371.05 273 -366.1 273 -361 273 C-361 266.06975509 -361.71913116 265.34603652 -366.1875 260.75 C-366.785625 260.1725 -367.38375 259.595 -368 259 C-368.99 259.33 -369.98 259.66 -371 260 C-371.33 259.01 -371.66 258.02 -372 257 C-373.32 257 -374.64 257 -376 257 Z M68 257 C66.70366379 258.06645115 66.70366379 258.06645115 66.9375 260.5625 C66.958125 261.366875 66.97875 262.17125 67 263 C67.66 263 68.32 263 69 263 C69 261.02 69 259.04 69 257 C68.67 257 68.34 257 68 257 Z M349 259 C349 263.62 349 268.24 349 273 C355.93 273 362.86 273 370 273 C370 268.38 370 263.76 370 259 C363.07 259 356.14 259 349 259 Z M685 261 C685 261.99 685 262.98 685 264 C684.01 263.67 683.02 263.34 682 263 C681.01 263.66 680.02 264.32 679 265 C679 265.66 679 266.32 679 267 C678.34 267 677.68 267 677 267 C677 267.66 677 268.32 677 269 C676.34 269 675.68 269 675 269 C675 270.98 675 272.96 675 275 C685.56 275 696.12 275 707 275 C707 273.02 707 271.04 707 269 C706.34 269 705.68 269 705 269 C705 268.34 705 267.68 705 267 C704.34 267 703.68 267 703 267 C703 266.34 703 265.68 703 265 C701.11683841 263.89163577 701.11683841 263.89163577 699 263 C698.01 263.495 698.01 263.495 697 264 C696.67 263.01 696.34 262.02 696 261 C692.37 261 688.74 261 685 261 Z M493 263 C493.33 263.99 493.66 264.98 494 266 C494.33 265.01 494.66 264.02 495 263 C494.34 263 493.68 263 493 263 Z M-253 265 C-253 265.66 -253 266.32 -253 267 C-247.39 267 -241.78 267 -236 267 C-236.33 266.34 -236.66 265.68 -237 265 C-242.28 265 -247.56 265 -253 265 Z M-231 265 C-231.33 265.66 -231.66 266.32 -232 267 C-231.34 267 -230.68 267 -230 267 C-230.33 266.34 -230.66 265.68 -231 265 Z M-121 267 C-121 275.58 -121 284.16 -121 293 C-118.36 293 -115.72 293 -113 293 C-113 293.66 -113 294.32 -113 295 C-112.34 295 -111.68 295 -111 295 C-111 295.66 -111 296.32 -111 297 C-110.34 297 -109.68 297 -109 297 C-109 297.66 -109 298.32 -109 299 C-108.34 299 -107.68 299 -107 299 C-107 288.44 -107 277.88 -107 267 C-111.62 267 -116.24 267 -121 267 Z M-101 267 C-101 282.84 -101 298.68 -101 315 C-96.71 315 -92.42 315 -88 315 C-88 299.16 -88 283.32 -88 267 C-92.29 267 -96.58 267 -101 267 Z M145 267 C145 272.28 145 277.56 145 283 C145.33 283 145.66 283 146 283 C146 277.72 146 272.44 146 267 C145.67 267 145.34 267 145 267 Z M-47 269 C-47 282.2 -47 295.4 -47 309 C-44.03 309 -41.06 309 -38 309 C-38 295.8 -38 282.6 -38 269 C-40.97 269 -43.94 269 -47 269 Z M-31 269 C-31 282.2 -31 295.4 -31 309 C-30.01 309 -29.02 309 -28 309 C-28 295.8 -28 282.6 -28 269 C-28.99 269 -29.98 269 -31 269 Z M202 273 C202 274.98 202 276.96 202 279 C204.64 279 207.28 279 210 279 C210 277.02 210 275.04 210 273 C207.36 273 204.72 273 202 273 Z M216 273 C216 274.98 216 276.96 216 279 C218.31 279 220.62 279 223 279 C223 277.02 223 275.04 223 273 C220.69 273 218.38 273 216 273 Z M248 273 C248 274.98 248 276.96 248 279 C250.31 279 252.62 279 255 279 C255 277.02 255 275.04 255 273 C252.69 273 250.38 273 248 273 Z M262 273 C262 274.98 262 276.96 262 279 C264.31 279 266.62 279 269 279 C269 277.02 269 275.04 269 273 C266.69 273 264.38 273 262 273 Z M-237 277 C-236 279 -236 279 -236 279 Z M416 277 C416 286.24 416 295.48 416 305 C419.63 305 423.26 305 427 305 C427 297.74 427 290.48 427 283 C426.34 283 425.68 283 425 283 C425 281.68 425 280.36 425 279 C425.66 279 426.32 279 427 279 C427 278.34 427 277.68 427 277 C423.37 277 419.74 277 416 277 Z M432 277 C432 286.24 432 295.48 432 305 C435.63 305 439.26 305 443 305 C443 295.76 443 286.52 443 277 C439.37 277 435.74 277 432 277 Z M753 277 C753 277.66 753 278.32 753 279 C752.34 279 751.68 279 751 279 C751 280.98 751 282.96 751 285 C750.34 285 749.68 285 749 285 C749 286.32 749 287.64 749 289 C750.65 289 752.3 289 754 289 C754 285.04 754 281.08 754 277 C753.67 277 753.34 277 753 277 Z M759 277 C759 280.96 759 284.92 759 289 C760.65 289 762.3 289 764 289 C764 288.34 764 287.68 764 287 C763.34 287 762.68 287 762 287 C762 285.02 762 283.04 762 281 C761.34 281 760.68 281 760 281 C759.67 279.68 759.34 278.36 759 277 Z M-396 279 C-396 290.88 -396 302.76 -396 315 C-394.68 315 -393.36 315 -392 315 C-392 303.12 -392 291.24 -392 279 C-393.32 279 -394.64 279 -396 279 Z M-362 279 C-362 279.66 -362 280.32 -362 281 C-362.66 281 -363.32 281 -364 281 C-364 292.22 -364 303.44 -364 315 C-362.35 315 -360.7 315 -359 315 C-359 303.12 -359 291.24 -359 279 C-359.99 279 -360.98 279 -362 279 Z M-329 279 C-329 279.66 -329 280.32 -329 281 C-330.65 281 -332.3 281 -334 281 C-334 284.96 -334 288.92 -334 293 C-333.34 293 -332.68 293 -332 293 C-332 293.66 -332 294.32 -332 295 C-326.39 295 -320.78 295 -315 295 C-315 289.72 -315 284.44 -315 279 C-315.66 279 -316.32 279 -317 279 C-317 279.66 -317 280.32 -317 281 C-318.32 281 -319.64 281 -321 281 C-321 280.34 -321 279.68 -321 279 C-321.66 279 -322.32 279 -323 279 C-323 279.66 -323 280.32 -323 281 C-324.32 281 -325.64 281 -327 281 C-327 280.34 -327 279.68 -327 279 C-327.66 279 -328.32 279 -329 279 Z M-303 279 C-303 279.66 -303 280.32 -303 281 C-304.98 281 -306.96 281 -309 281 C-309 285.62 -309 290.24 -309 295 C-303.06 295 -297.12 295 -291 295 C-291 290.38 -291 285.76 -291 281 C-292.32 281 -293.64 281 -295 281 C-295 280.34 -295 279.68 -295 279 C-295.66 279 -296.32 279 -297 279 C-297 279.66 -297 280.32 -297 281 C-298.32 281 -299.64 281 -301 281 C-301 280.34 -301 279.68 -301 279 C-301.66 279 -302.32 279 -303 279 Z M291 281 C291 291.56 291 302.12 291 313 C297.6 313 304.2 313 311 313 C311 302.44 311 291.88 311 281 C304.4 281 297.8 281 291 281 Z M535 281 C535 282.98 535 284.96 535 287 C535.33 287 535.66 287 536 287 C536 285.02 536 283.04 536 281 C535.67 281 535.34 281 535 281 Z M202 283 C202 286.3 202 289.6 202 293 C204.64 293 207.28 293 210 293 C210 289.7 210 286.4 210 283 C207.36 283 204.72 283 202 283 Z M216 283 C216 286.3 216 289.6 216 293 C218.31 293 220.62 293 223 293 C223 289.7 223 286.4 223 283 C220.69 283 218.38 283 216 283 Z M248 283 C248 286.3 248 289.6 248 293 C250.31 293 252.62 293 255 293 C255 289.7 255 286.4 255 283 C252.69 283 250.38 283 248 283 Z M262 283 C262 286.3 262 289.6 262 293 C264.31 293 266.62 293 269 293 C269 289.7 269 286.4 269 283 C266.69 283 264.38 283 262 283 Z M675 283 C675 284.98 675 286.96 675 289 C679.62 289 684.24 289 689 289 C689 287.02 689 285.04 689 283 C684.38 283 679.76 283 675 283 Z M693 283 C693 284.98 693 286.96 693 289 C698.28 289 703.56 289 709 289 C709 287.02 709 285.04 709 283 C703.72 283 698.44 283 693 283 Z M745 293 C745 293.66 745 294.32 745 295 C744.34 295 743.68 295 743 295 C743 295.66 743 296.32 743 297 C743.66 297 744.32 297 745 297 C745 298.32 745 299.64 745 301 C745.66 301 746.32 301 747 301 C747 302.32 747 303.64 747 305 C749.31 305 751.62 305 754 305 C754 301.04 754 297.08 754 293 C751.03 293 748.06 293 745 293 Z M759 293 C759 296.96 759 300.92 759 305 C761.31 305 763.62 305 766 305 C766 303.02 766 301.04 766 299 C766.66 299 767.32 299 768 299 C768 297.02 768 295.04 768 293 C765.03 293 762.06 293 759 293 Z M675 295 C675 309.19 675 323.38 675 338 C679.62 338 684.24 338 689 338 C689 323.81 689 309.62 689 295 C684.38 295 679.76 295 675 295 Z M693 295 C693 301.6 693 308.2 693 315 C693.66 315 694.32 315 695 315 C695 313.68 695 312.36 695 311 C695.66 311 696.32 311 697 311 C697 310.34 697 309.68 697 309 C698.32 309 699.64 309 701 309 C701 308.34 701 307.68 701 307 C702.32 307 703.64 307 705 307 C705 306.34 705 305.68 705 305 C705.66 305 706.32 305 707 305 C707 303.68 707 302.36 707 301 C707.66 301 708.32 301 709 301 C709 300.34 709 299.68 709 299 C708.34 299 707.68 299 707 299 C707 297.68 707 296.36 707 295 C702.38 295 697.76 295 693 295 Z M202 297 C202 299.64 202 302.28 202 305 C203.98 305 205.96 305 208 305 C208 303.68 208 302.36 208 301 C208.66 301 209.32 301 210 301 C210 299.68 210 298.36 210 297 C207.36 297 204.72 297 202 297 Z M248 297 C248 300.3 248 303.6 248 307 C250.31 307 252.62 307 255 307 C255 303.7 255 300.4 255 297 C252.69 297 250.38 297 248 297 Z M262 297 C262 300.3 262 303.6 262 307 C264.31 307 266.62 307 269 307 C269 303.7 269 300.4 269 297 C266.69 297 264.38 297 262 297 Z M-253 303 C-253 303.66 -253 304.32 -253 305 C-244.75 305 -236.5 305 -228 305 C-228 304.34 -228 303.68 -228 303 C-236.25 303 -244.5 303 -253 303 Z M202 311 C202 312.98 202 314.96 202 317 C203.32 317 204.64 317 206 317 C206 315.02 206 313.04 206 311 C204.68 311 203.36 311 202 311 Z M248 311 C248 312.98 248 314.96 248 317 C250.31 317 252.62 317 255 317 C255 315.02 255 313.04 255 311 C252.69 311 250.38 311 248 311 Z M262 311 C262 312.98 262 314.96 262 317 C264.31 317 266.62 317 269 317 C269 315.02 269 313.04 269 311 C266.69 311 264.38 311 262 311 Z M-109 313 C-109 313.66 -109 314.32 -109 315 C-108.34 315 -107.68 315 -107 315 C-107 314.34 -107 313.68 -107 313 C-107.66 313 -108.32 313 -109 313 Z M693 334 C693 335.32 693 336.64 693 338 C693.66 338 694.32 338 695 338 C694.67 336.68 694.34 335.36 694 334 C693.67 334 693.34 334 693 334 Z " fill="#376347" transform="translate(409,1019)"/>
<path d="M0 0 C0.66 0 1.32 0 2 0 C1.32512263 4.81919471 -0.57965909 8.91883866 -2.5625 13.3125 C-2.89185547 14.05306641 -3.22121094 14.79363281 -3.56054688 15.55664062 C-4.36917123 17.37311562 -5.18397116 19.18683931 -6 21 C-4.56041153 19.41856529 -3.12341355 17.83477221 -1.6875 16.25 C-0.88699219 15.36828125 -0.08648438 14.4865625 0.73828125 13.578125 C2.60916911 11.44550672 4.34084286 9.29812057 6 7 C6.99 7.33 7.98 7.66 9 8 C6.531742 14.41924651 3.04197093 20.01180035 -0.625 25.8125 C-1.80531041 27.69361972 -2.98502835 29.57511135 -4.1640625 31.45703125 C-4.68436035 32.28178955 -5.2046582 33.10654785 -5.74072266 33.95629883 C-7.01657725 35.95943402 -7.01657725 35.95943402 -8 38 C-7.27296875 37.36384766 -7.27296875 37.36384766 -6.53125 36.71484375 C-1.6875 32.4765625 3.15625 28.23828125 8 24 C8.99 24.99 8.99 24.99 10 26 C6.77961541 32.26275798 3.01937077 38.01508557 -1.05249023 43.74487305 C-3.10479963 46.15285667 -3.10479963 46.15285667 -4 49 C-3.45730469 48.566875 -2.91460938 48.13375 -2.35546875 47.6875 C-1.64003906 47.130625 -0.92460938 46.57375 -0.1875 46 C0.87404297 45.1646875 0.87404297 45.1646875 1.95703125 44.3125 C4 43 4 43 7 43 C6.85418676 48.68671632 4.16443786 51.75112835 0.69140625 55.94921875 C-1.13659296 58.09495195 -1.13659296 58.09495195 -3 61 C-1.02 60.34 0.96 59.68 3 59 C2.52257686 63.75654906 0.27684252 66.75273661 -2.625 70.375 C-3.07214355 70.94573242 -3.51928711 71.51646484 -3.97998047 72.10449219 C-7.37935485 76.3813993 -11.05069297 80.22240197 -15 84 C-15 84.33 -15 84.66 -15 85 C-13.68 85.33 -12.36 85.66 -11 86 C-11.55550695 89.59905908 -12.74887248 90.99909799 -15.5625 93.25 C-16.20316406 93.77078125 -16.84382812 94.2915625 -17.50390625 94.828125 C-17.99761719 95.21484375 -18.49132812 95.6015625 -19 96 C-18.01 97.485 -18.01 97.485 -17 99 C-17.125 101 -17.125 101 -18 103 C-20.0625 104.75 -20.0625 104.75 -22 106 C-21.67 107.65 -21.34 109.3 -21 111 C-22.98 112.32 -24.96 113.64 -27 115 C-26.67 116.65 -26.34 118.3 -26 120 C-28.31 121.32 -30.62 122.64 -33 124 C-32.67 125.65 -32.34 127.3 -32 129 C-33.65 129.99 -35.3 130.98 -37 132 C-36.34 133.32 -35.68 134.64 -35 136 C-37.475 137.98 -37.475 137.98 -40 140 C-39.67 141.32 -39.34 142.64 -39 144 C-39.804375 144.5775 -40.60875 145.155 -41.4375 145.75 C-44.1698701 148.14915424 -44.23219933 148.70942568 -45 152 C-47.0625 153.25 -47.0625 153.25 -49 154 C-48.34 155.32 -47.68 156.64 -47 158 C-48 159 -48 159 -50.5625 159.0625 C-51.366875 159.041875 -52.17125 159.02125 -53 159 C-52.67 159.99 -52.34 160.98 -52 162 C-54 164 -54 164 -57.125 164.125 C-58.07375 164.08375 -59.0225 164.0425 -60 164 C-60 164.99 -60 165.98 -60 167 C-61.65 167.33 -63.3 167.66 -65 168 C-49.67537531 183.23447983 -28.56582572 185.28736902 -8.19799805 188.58276367 C-6 189 -6 189 -3 190 C-3 190.99 -3 191.98 -3 193 C-1.68 193.33 -0.36 193.66 1 194 C3.125 200.75 3.125 200.75 2 203 C1.34 203 0.68 203 0 203 C0.185625 203.639375 0.37125 204.27875 0.5625 204.9375 C0.7790625 205.9584375 0.7790625 205.9584375 1 207 C0 208 0 208 -1.84765625 208.09765625 C-3.8984375 208.06510417 -5.94921875 208.03255208 -8 208 C-8 209.32 -8 210.64 -8 212 C-10.64 212 -13.28 212 -16 212 C-16 212.66 -16 213.32 -16 214 C-21.80813262 216.58139228 -27.78246901 217.1008596 -34 216 C-38.14860214 213.8956366 -41.4853452 211.02498284 -45 208 C-46.93015422 206.35354164 -48.8667044 204.71674077 -50.8190918 203.09667969 C-52.12764688 202.00752594 -53.42153039 200.90044951 -54.69848633 199.77441406 C-58.44880609 196.56546732 -58.44880609 196.56546732 -63.26953125 196.125 C-64.62111328 196.558125 -64.62111328 196.558125 -66 197 C-66.94875 197.185625 -67.8975 197.37125 -68.875 197.5625 C-69.926875 197.7790625 -69.926875 197.7790625 -71 198 C-71 199.65 -71 201.3 -71 203 C-71.66 203.33 -72.32 203.66 -73 204 C-72.85786703 205.89611434 -72.71113093 207.79188394 -72.5625 209.6875 C-72.48128906 210.74324219 -72.40007812 211.79898438 -72.31640625 212.88671875 C-72.03548319 215.65086297 -71.59843148 218.28945741 -71 221 C-72.65 220.34 -74.3 219.68 -76 219 C-76.13277344 219.90363281 -76.26554688 220.80726563 -76.40234375 221.73828125 C-76.66724609 223.50751953 -76.66724609 223.50751953 -76.9375 225.3125 C-77.11152344 226.48425781 -77.28554688 227.65601563 -77.46484375 228.86328125 C-78 232 -78 232 -79 235 C-79.66 234.34 -80.32 233.68 -81 233 C-81.61875 233.165 -82.2375 233.33 -82.875 233.5 C-85.68852671 234.16200628 -86.57324129 233.50161507 -89 232 C-92.17848601 228.36146996 -93.88614812 224.99213778 -94.4375 220.1875 C-94 217 -94 217 -92 214 C-92.41403079 210.17021518 -93.73521491 206.62571725 -95 203 C-95 205.83967231 -94.59732819 208.23735711 -94 211 C-94.66 211.33 -95.32 211.66 -96 212 C-96 212.99 -96 213.98 -96 215 C-96.99 215 -97.98 215 -99 215 C-99 220.94 -99 226.88 -99 233 C-100.32 232.01 -101.64 231.02 -103 230 C-103 230.99 -103 231.98 -103 233 C-103.99 233 -104.98 233 -106 233 C-106.99 232.01 -106.99 232.01 -108 231 C-108.928125 230.6596875 -108.928125 230.6596875 -109.875 230.3125 C-114.24140088 227.61560534 -115.71867662 223.03737995 -117 218.3125 C-117 214.12105209 -115.83721723 213.83721723 -113 211 C-113.13623818 204.18809124 -115.85706737 197.42879788 -118 191 C-119.98636298 190.29373761 -121.98848259 189.63106429 -124 189 C-125.9375 187.75 -125.9375 187.75 -128 186 C-128.53625 185.55398438 -129.0725 185.10796875 -129.625 184.6484375 C-132.33501057 182.37062689 -134.85466321 180.16576669 -137.1953125 177.49609375 C-140.71423765 174.36434839 -143.99345623 173.29272099 -148.4375 171.9375 C-157.56149453 169.09272616 -162.98958992 165.99715218 -167.7421875 157.4375 C-171.1841076 150.76744365 -171.9887305 144.45953108 -171 137 C-169.6922979 133.99568812 -167.95488546 131.60651395 -166 129 C-165.66871094 128.32066406 -165.33742188 127.64132812 -164.99609375 126.94140625 C-162.51651269 122.10865415 -158.17790717 119.86981292 -153.25 118.1875 C-151.03996305 117.50719951 -149.3108659 117 -147 117 C-147.29089776 99.83703222 -153.088346 84.49499033 -158.79492188 68.52246094 C-163.99951129 53.30937017 -164.80988592 37.92087711 -158.11914062 23.04101562 C-156.26040049 19.25071874 -154.19789647 15.60553802 -152 12 C-150.046875 12.8046875 -150.046875 12.8046875 -148 14 C-147.25 17.125 -147.25 17.125 -147 20 C-146.4225 19.05125 -145.845 18.1025 -145.25 17.125 C-143.17183449 14.23865902 -142.24531925 13.15904259 -139 12 C-137.5393715 14.64738916 -137 15.89448334 -137 19 C-136.401875 18.505 -135.80375 18.01 -135.1875 17.5 C-133 16 -133 16 -130 16 C-130 17.98 -130 19.96 -130 22 C-129.01 21.34 -128.02 20.68 -127 20 C-125.68 20 -124.36 20 -123 20 C-123 21.98 -123 23.96 -123 26 C-122.34 26 -121.68 26 -121 26 C-120.01879536 29.05263664 -120.01879536 30.94736336 -121 34 C-120.01 34.33 -119.02 34.66 -118 35 C-118 38.3 -118 41.6 -118 45 C-117.01 45 -116.02 45 -115 45 C-115.09765625 47.01822917 -115.1953125 49.03645833 -115.29296875 51.0546875 C-115.19628906 51.69664062 -115.09960938 52.33859375 -115 53 C-114.01 53.66 -113.02 54.32 -112 55 C-111.59156077 57.71203652 -111.86663133 60.2437142 -112 63 C-111.01 63.33 -110.02 63.66 -109 64 C-107.64560332 66.70879335 -107.93498549 69.00933268 -108 72 C-107.01 72.33 -106.02 72.66 -105 73 C-104.0859375 75.0390625 -104.0859375 75.0390625 -103.375 77.625 C-103.12492188 78.52605469 -102.87484375 79.42710937 -102.6171875 80.35546875 C-102 83 -102 83 -101.5 86.9375 C-101.31831552 89.97400014 -101.31831552 89.97400014 -99.54296875 91.40234375 C-95.67513155 95.40726885 -95.88338056 102.82848354 -95.875 108.125 C-95.91625 109.40375 -95.9575 110.6825 -96 112 C-93.76067804 105.5059663 -91.88433943 98.98245209 -90.16015625 92.33203125 C-88.89195039 88.68967571 -87.25869293 86.11933979 -85 83 C-84.18681222 81.84293098 -83.37433927 80.68535933 -82.5625 79.52734375 C-81.70932593 78.33002125 -80.85514893 77.13341282 -80 75.9375 C-79.57460938 75.33873047 -79.14921875 74.73996094 -78.7109375 74.12304688 C-73.59253531 66.95571375 -73.59253531 66.95571375 -71 64 C-70.34 64 -69.68 64 -69 64 C-69 65.98 -69 67.96 -69 70 C-54.41826177 59.23547073 -42.10478714 48.65960932 -31.2421875 34.01953125 C-29.05823797 31.07842849 -26.86410997 28.14936035 -24.625 25.25 C-23.99851562 24.43015625 -23.37203125 23.6103125 -22.7265625 22.765625 C-21.87191406 21.89164063 -21.87191406 21.89164063 -21 21 C-20.01 21 -19.02 21 -18 21 C-18 22.32 -18 23.64 -18 25 C-17.63237549 24.45585449 -17.26475098 23.91170898 -16.88598633 23.35107422 C-15.1981216 20.85679996 -13.50535531 18.36588958 -11.8125 15.875 C-11.23435547 15.0190625 -10.65621094 14.163125 -10.06054688 13.28125 C-6.91289092 8.65757458 -3.79843676 4.11553539 0 0 Z " fill="#3B6549" transform="translate(957,782)"/>
<path d="M0 0 C0.99 0 1.98 0 3 0 C3.33 1.32 3.66 2.64 4 4 C5.65 4 7.3 4 9 4 C9 6.66666667 9 9.33333333 9 12 C10.32 12 11.64 12 13 12 C13 13.98 13 15.96 13 18 C13.66 18 14.32 18 15 18 C15 18.66 15 19.32 15 20 C15.66 20 16.32 20 17 20 C17 20.66 17 21.32 17 22 C18.32 22 19.64 22 21 22 C21 23.32 21 24.64 21 26 C21.66 26 22.32 26 23 26 C23 27.32 23 28.64 23 30 C23.99 30 24.98 30 26 30 C26.66 31.98 27.32 33.96 28 36 C28.66 36 29.32 36 30 36 C30 34.68 30 33.36 30 32 C29.34 32 28.68 32 28 32 C28 30.68 28 29.36 28 28 C29.32 28 30.64 28 32 28 C32 28.66 32 29.32 32 30 C32.66 30 33.32 30 34 30 C34 33.63 34 37.26 34 41 C32.02 41.495 32.02 41.495 30 42 C28.296875 40.85546875 28.296875 40.85546875 26.75 39.1875 C26.22921875 38.64480469 25.7084375 38.10210938 25.171875 37.54296875 C24 36 24 36 24 34 C23.38125 33.7525 22.7625 33.505 22.125 33.25 C19.64931313 31.79371361 19.04874998 30.62187494 18 28 C17.34 28 16.68 28 16 28 C16 26.68 16 25.36 16 24 C15.42765625 23.7525 14.8553125 23.505 14.265625 23.25 C11.64989389 21.80683801 9.85226544 20.11783778 7.75 18 C7.04359375 17.29875 6.3371875 16.5975 5.609375 15.875 C4 14 4 14 4 12 C3.01 11.67 2.02 11.34 1 11 C-0.28317892 7.15046324 -0.06643637 4.05261865 0 0 Z " fill="#9DBBE9" transform="translate(551,1173)"/>
<path d="M0 0 C0.99 0 1.98 0 3 0 C2.848048 5.01441603 0.07298671 7.33354746 -3.30859375 10.64453125 C-5 12 -5 12 -7 12 C-7 12.99 -7 13.98 -7 15 C-7.66 15 -8.32 15 -9 15 C-9 15.66 -9 16.32 -9 17 C-9.66 17 -10.32 17 -11 17 C-11 17.99 -11 18.98 -11 20 C-11.99 20 -12.98 20 -14 20 C-14.0825 20.5775 -14.165 21.155 -14.25 21.75 C-15.225982 24.67794601 -16.63511223 26.05244537 -19 28 C-19.99 28 -20.98 28 -22 28 C-22.33 29.65 -22.66 31.3 -23 33 C-23.66 33 -24.32 33 -25 33 C-25.103125 33.639375 -25.20625 34.27875 -25.3125 34.9375 C-25.539375 35.618125 -25.76625 36.29875 -26 37 C-27.485 37.495 -27.485 37.495 -29 38 C-28.505 35.03 -28.505 35.03 -28 32 C-27.34 32 -26.68 32 -26 32 C-26 30.68 -26 29.36 -26 28 C-26.66 28 -27.32 28 -28 28 C-27.34 25.36 -26.68 22.72 -26 20 C-24.68 20 -23.36 20 -22 20 C-22 21.32 -22 22.64 -22 24 C-21.34 24 -20.68 24 -20 24 C-20 23.34 -20 22.68 -20 22 C-19.34 22 -18.68 22 -18 22 C-18 20.68 -18 19.36 -18 18 C-17.34 18 -16.68 18 -16 18 C-16 16.68 -16 15.36 -16 14 C-15.34 14 -14.68 14 -14 14 C-14 12.35 -14 10.7 -14 9 C-14.66 9 -15.32 9 -16 9 C-16 7.35 -16 5.7 -16 4 C-14.68 4 -13.36 4 -12 4 C-12 5.32 -12 6.64 -12 8 C-11.34 8 -10.68 8 -10 8 C-10 9.32 -10 10.64 -10 12 C-9.34 12 -8.68 12 -8 12 C-8 10.68 -8 9.36 -8 8 C-7.34 8 -6.68 8 -6 8 C-6 7.34 -6 6.68 -6 6 C-5.34 6 -4.68 6 -4 6 C-4 5.34 -4 4.68 -4 4 C-3.34 4 -2.68 4 -2 4 C-2 3.34 -2 2.68 -2 2 C-1.34 2 -0.68 2 0 2 C0 1.34 0 0.68 0 0 Z " fill="#91B3DD" transform="translate(914,1171)"/>
<path d="M0 0 C2.64 0 5.28 0 8 0 C8 0.66 8 1.32 8 2 C8.66 2 9.32 2 10 2 C10 3.32 10 4.64 10 6 C9.34 6 8.68 6 8 6 C8 6.66 8 7.32 8 8 C8.66 8 9.32 8 10 8 C10 8.66 10 9.32 10 10 C10.66 10 11.32 10 12 10 C12 10.66 12 11.32 12 12 C13.65 12 15.3 12 17 12 C17.495 18.93 17.495 18.93 18 26 C15.2175651 24.60878255 14.44789935 22.69835788 13 20 C13 19.34 13 18.68 13 18 C12.01 17.67 11.02 17.34 10 17 C8.96210419 15.35666496 7.96432076 13.68756133 7 12 C6.505 11.505 6.01 11.01 5.5 10.5 C2.51822262 7.51822262 0.76498545 4.13092143 0 0 Z " fill="#91B0DA" transform="translate(1043,1177)"/>
<path d="M0 0 C1.32 0 2.64 0 4 0 C3.38204587 2.82136635 2.51576054 5.18873266 1.1875 7.75 C-0.26375991 10.5683888 -1.67895418 13.39776708 -3.0625 16.25 C-5.94223108 21.94223108 -5.94223108 21.94223108 -8 24 C-9.32 24 -10.64 24 -12 24 C-12 22.35 -12 20.7 -12 19 C-10.68 18.67 -9.36 18.34 -8 18 C-8 16.68 -8 15.36 -8 14 C-7.34 14 -6.68 14 -6 14 C-6 12.68 -6 11.36 -6 10 C-5.34 10 -4.68 10 -4 10 C-4 9.34 -4 8.68 -4 8 C-3.34 8 -2.68 8 -2 8 C-2 6.68 -2 5.36 -2 4 C-1.34 4 -0.68 4 0 4 C0 2.68 0 1.36 0 0 Z " fill="#8DACDC" transform="translate(272,1163)"/>
<path d="M0 0 C0.99 0 1.98 0 3 0 C3.33 1.32 3.66 2.64 4 4 C5.65 4 7.3 4 9 4 C9 6.66666667 9 9.33333333 9 12 C10.32 12 11.64 12 13 12 C13 13.32 13 14.64 13 16 C11.35 16 9.7 16 8 16 C8 15.34 8 14.68 8 14 C7.01 14.33 6.02 14.66 5 15 C4.67 14.01 4.34 13.02 4 12 C3.01 11.67 2.02 11.34 1 11 C-0.28317892 7.15046324 -0.06643637 4.05261865 0 0 Z " fill="#93B1E2" transform="translate(551,1173)"/>
<path d="M0 0 C1.32 0 2.64 0 4 0 C3.67 1.32 3.34 2.64 3 4 C2.34 4 1.68 4 1 4 C0.88527344 4.72832031 0.77054688 5.45664063 0.65234375 6.20703125 C-0.01721122 9.07368877 -0.98069186 11.1413279 -2.4375 13.6875 C-3.08525391 14.83798828 -3.08525391 14.83798828 -3.74609375 16.01171875 C-5 18 -5 18 -7 20 C-7.99 20 -8.98 20 -10 20 C-10 18.68 -10 17.36 -10 16 C-9.34 16 -8.68 16 -8 16 C-8 15.34 -8 14.68 -8 14 C-7.34 14 -6.68 14 -6 14 C-6 12.68 -6 11.36 -6 10 C-5.34 10 -4.68 10 -4 10 C-4 9.34 -4 8.68 -4 8 C-4.66 8 -5.32 8 -6 8 C-6 6.68 -6 5.36 -6 4 C-4.02 4 -2.04 4 0 4 C0 2.68 0 1.36 0 0 Z " fill="#8FB4E1" transform="translate(591,1173)"/>
<path d="M0 0 C1.32 0 2.64 0 4 0 C4 1.32 4 2.64 4 4 C4.66 4 5.32 4 6 4 C6 5.32 6 6.64 6 8 C6.66 8 7.32 8 8 8 C8.33 7.34 8.66 6.68 9 6 C9.66 6 10.32 6 11 6 C11 5.34 11 4.68 11 4 C12.32 4 13.64 4 15 4 C14.39305845 7.15330554 13.3583335 9.18888867 11.4375 11.75 C10.98246094 12.36359375 10.52742187 12.9771875 10.05859375 13.609375 C9.70925781 14.06828125 9.35992188 14.5271875 9 15 C4.28525232 11.85683488 1.92441834 8.23570799 0 3 C0 2.01 0 1.02 0 0 Z " fill="#9ABFED" transform="translate(732,1171)"/>
<path d="M0 0 C0.99 0 1.98 0 3 0 C3 1.32 3 2.64 3 4 C3.66 4 4.32 4 5 4 C5 4.66 5 5.32 5 6 C5.66 6 6.32 6 7 6 C7 7.98 7 9.96 7 12 C7.66 12 8.32 12 9 12 C9 13.32 9 14.64 9 16 C7.68 16 6.36 16 5 16 C5 14.68 5 13.36 5 12 C4.01 11.67 3.02 11.34 2 11 C-1.13633014 5.06337509 -1.13633014 5.06337509 -0.6875 1.5625 C-0.460625 1.046875 -0.23375 0.53125 0 0 Z " fill="#95AEE4" transform="translate(868,1159)"/>
<path d="M0 0 C2.64 0 5.28 0 8 0 C8 0.66 8 1.32 8 2 C8.66 2 9.32 2 10 2 C10 3.32 10 4.64 10 6 C9.01 6.33 8.02 6.66 7 7 C6.01 8.485 6.01 8.485 5 10 C0.57142857 3.71428571 0.57142857 3.71428571 0 0 Z " fill="#8CAADF" transform="translate(1043,1177)"/>
<path d="M0 0 C2.91517292 1.07401108 4.77810176 1.77810176 7 4 C8.98821313 4.39764263 10.98944339 4.73775349 13 5 C13 5.99 13 6.98 13 8 C11.02 8.66 9.04 9.32 7 10 C6.6596875 9.071875 6.6596875 9.071875 6.3125 8.125 C4.62070165 5.38589791 3.00755839 4.94975528 0 4 C0 2.68 0 1.36 0 0 Z " fill="#8DAFD9" transform="translate(447,1161)"/>
<path d="M0 0 C0.33 0 0.66 0 1 0 C1 8.58 1 17.16 1 26 C-0.65 26.66 -2.3 27.32 -4 28 C-4 25.69 -4 23.38 -4 21 C-3.01 21 -2.02 21 -1 21 C-0.67 14.07 -0.34 7.14 0 0 Z " fill="#376851" transform="translate(757,1136)"/>
<path d="M0 0 C1.32 0 2.64 0 4 0 C3.35550393 3.01217112 2.34977818 5.51655836 0.9375 8.25 C0.57527344 8.95640625 0.21304687 9.6628125 -0.16015625 10.390625 C-0.43730469 10.92171875 -0.71445312 11.4528125 -1 12 C-1.99 11.67 -2.98 11.34 -4 11 C-4 10.01 -4 9.02 -4 8 C-3.34 8 -2.68 8 -2 8 C-2 6.68 -2 5.36 -2 4 C-1.34 4 -0.68 4 0 4 C0 2.68 0 1.36 0 0 Z " fill="#9AB9EB" transform="translate(272,1163)"/>
<path d="M0 0 C0.66 0 1.32 0 2 0 C2 0.66 2 1.32 2 2 C3.65 2 5.3 2 7 2 C7 2.66 7 3.32 7 4 C7.66 4 8.32 4 9 4 C9 4.66 9 5.32 9 6 C9.66 6 10.32 6 11 6 C10.67 7.32 10.34 8.64 10 10 C5.86360664 8.40907948 2.76786752 5.39525082 0 2 C0 1.34 0 0.68 0 0 Z " fill="#9DBCF3" transform="translate(557,1187)"/>
<path d="M0 0 C2.625 -0.1875 2.625 -0.1875 5 0 C4.45925627 3.78520613 2.92427254 5.59177555 0 8 C-0.99 8 -1.98 8 -3 8 C-2.45276317 4.62537285 -1.9451 2.91765 0 0 Z " fill="#93B7E5" transform="translate(923,1159)"/>
<path d="M0 0 C1.32 0 2.64 0 4 0 C4.375 2.1875 4.375 2.1875 4 5 C2.16038352 6.99022836 0.20813852 8.38989899 -2 10 C-3.125 6.25 -3.125 6.25 -2 4 C-1.34 4 -0.68 4 0 4 C0 2.68 0 1.36 0 0 Z " fill="#8CABDC" transform="translate(896,1189)"/>
<path d="M0 0 C1.32 0.33 2.64 0.66 4 1 C4 2.65 4 4.3 4 6 C1.03 5.67 -1.94 5.34 -5 5 C-5 4.01 -5 3.02 -5 2 C-3.68 2 -2.36 2 -1 2 C-0.67 1.34 -0.34 0.68 0 0 Z " fill="#8FB2E0" transform="translate(525,1155)"/>
<path d="M0 0 C2.31 0 4.62 0 7 0 C7 1.32 7 2.64 7 4 C4.36 4 1.72 4 -1 4 C-0.67 2.68 -0.34 1.36 0 0 Z " fill="#8FACEB" transform="translate(32,1157)"/>
<path d="M0 0 C1.98 0.99 1.98 0.99 4 2 C4 2.66 4 3.32 4 4 C4.66 4 5.32 4 6 4 C5.67 5.32 5.34 6.64 5 8 C1.125 6.125 1.125 6.125 0 5 C-0.04063832 3.33382885 -0.042721 1.66611905 0 0 Z " fill="#9CBCED" transform="translate(1049,1183)"/>
<path d="M0 0 C-0.75 4.75 -0.75 4.75 -3 7 C-3.99 7 -4.98 7 -6 7 C-6 5.68 -6 4.36 -6 3 C-5.34 3 -4.68 3 -4 3 C-4 2.34 -4 1.68 -4 1 C-2 0 -2 0 0 0 Z " fill="#A2C6EB" transform="translate(587,1186)"/>
<path d="M0 0 C1.32 0 2.64 0 4 0 C3.67 1.32 3.34 2.64 3 4 C2.34 4 1.68 4 1 4 C1 5.32 1 6.64 1 8 C0.01 8 -0.98 8 -2 8 C-2 6.68 -2 5.36 -2 4 C-1.34 4 -0.68 4 0 4 C0 2.68 0 1.36 0 0 Z " fill="#9EBAE9" transform="translate(591,1173)"/>
<path d="M0 0 C1.32 0.33 2.64 0.66 4 1 C3.67 1.99 3.34 2.98 3 4 C2.34 4 1.68 4 1 4 C1 5.32 1 6.64 1 8 C0.01 8 -0.98 8 -2 8 C-2 6.68 -2 5.36 -2 4 C-1.34 4 -0.68 4 0 4 C0 2.68 0 1.36 0 0 Z " fill="#95B6EA" transform="translate(599,1159)"/>
<path d="M0 0 C1.32 0 2.64 0 4 0 C3.49396008 2.16874252 3.00016187 3.99967627 2 6 C0.68 6 -0.64 6 -2 6 C-1.49396008 3.83125748 -1.00016187 2.00032373 0 0 Z " fill="#95BCF2" transform="translate(46,1155)"/>
<path d="M0 0 C1.32 0 2.64 0 4 0 C3.6875 1.875 3.6875 1.875 3 4 C2.01 4.66 1.02 5.32 0 6 C-0.66 5.67 -1.32 5.34 -2 5 C-2 4.01 -2 3.02 -2 2 C-1.34 2 -0.68 2 0 2 C0 1.34 0 0.68 0 0 Z " fill="#93ABE0" transform="translate(743,1175)"/>
<path d="M0 0 C1.32 0.33 2.64 0.66 4 1 C3.67 2.65 3.34 4.3 3 6 C2.01 6.33 1.02 6.66 0 7 C0 4.69 0 2.38 0 0 Z " fill="#92B3E6" transform="translate(753,1157)"/>
<path d="M0 0 C0.33 0.99 0.66 1.98 1 3 C1.99 3 2.98 3 4 3 C3.67 4.98 3.34 6.96 3 9 C2.67 8.34 2.34 7.68 2 7 C1.01 6.67 0.02 6.34 -1 6 C-0.67 4.02 -0.34 2.04 0 0 Z " fill="#8FACE5" transform="translate(573,1200)"/>
<path d="M0 0 C1.32 0 2.64 0 4 0 C4.33 1.98 4.66 3.96 5 6 C3.0625 5.25 3.0625 5.25 1 4 C0.25 1.875 0.25 1.875 0 0 Z " fill="#99BEE8" transform="translate(1043,1177)"/>
<path d="M0 0 C1.32 0 2.64 0 4 0 C4 1.98 4 3.96 4 6 C3.01 6 2.02 6 1 6 C0.67 4.02 0.34 2.04 0 0 Z " fill="#8FB1DC" transform="translate(876,1177)"/>
<path d="M0 0 C1.65 0 3.3 0 5 0 C5 1.65 5 3.3 5 5 C3.02 4.34 1.04 3.68 -1 3 C-0.67 2.01 -0.34 1.02 0 0 Z " fill="#8AACE7" transform="translate(555,1177)"/>
<path d="M0 0 C0.99 0 1.98 0 3 0 C2.67 2.64 2.34 5.28 2 8 C1.34 8 0.68 8 0 8 C0 5.36 0 2.72 0 0 Z " fill="#A3C2EB" transform="translate(551,1173)"/>
<path d="M0 0 C1.65 0 3.3 0 5 0 C5 1.32 5 2.64 5 4 C3.35 4.33 1.7 4.66 0 5 C0 3.35 0 1.7 0 0 Z " fill="#89AFED" transform="translate(927,1153)"/>
<path d="M0 0 C0.33 0.66 0.66 1.32 1 2 C1.66 2 2.32 2 3 2 C2.67 3.32 2.34 4.64 2 6 C0.68 5.34 -0.64 4.68 -2 4 C-2 3.01 -2 2.02 -2 1 C-1.34 0.67 -0.68 0.34 0 0 Z " fill="#B0CEF6" transform="translate(565,1191)"/>
<path d="M0 0 C0.33 0 0.66 0 1 0 C1.33 3.63 1.66 7.26 2 11 C0 10 0 10 -1.125 6.9375 C-1.41375 5.968125 -1.7025 4.99875 -2 4 C-1.34 4 -0.68 4 0 4 C0 2.68 0 1.36 0 0 Z " fill="#ACC3EB" transform="translate(1059,1192)"/>
<path d="M0 0 C1.32 0 2.64 0 4 0 C3.67 1.65 3.34 3.3 3 5 C2.01 5 1.02 5 0 5 C0 3.35 0 1.7 0 0 Z " fill="#98C3EC" transform="translate(898,1175)"/>
<path d="M0 0 C2.475 0.495 2.475 0.495 5 1 C5 2.32 5 3.64 5 5 C3.68 5 2.36 5 1 5 C0.67 3.35 0.34 1.7 0 0 Z " fill="#B3CFEE" transform="translate(872,1170)"/>
<path d="M0 0 C1.32 0 2.64 0 4 0 C4 1.65 4 3.3 4 5 C3.01 5.33 2.02 5.66 1 6 C0.67 4.02 0.34 2.04 0 0 Z " fill="#92B1EA" transform="translate(732,1171)"/>
<path d="M0 0 C1.32 0 2.64 0 4 0 C4 1.65 4 3.3 4 5 C2.68 4.67 1.36 4.34 0 4 C0 2.68 0 1.36 0 0 Z " fill="#92AFEB" transform="translate(1037,1167)"/>
<path d="M0 0 C1.32 0 2.64 0 4 0 C3.67 1.65 3.34 3.3 3 5 C2.01 5 1.02 5 0 5 C0 3.35 0 1.7 0 0 Z " fill="#9BBDED" transform="translate(747,1167)"/>
<path d="M0 0 C2.475 0.495 2.475 0.495 5 1 C5 1.99 5 2.98 5 4 C3.35 4 1.7 4 0 4 C0 2.68 0 1.36 0 0 Z " fill="#9BB3EC" transform="translate(129,1157)"/>
<path d="M0 0 C1.32 0.33 2.64 0.66 4 1 C4 2.32 4 3.64 4 5 C2.68 5 1.36 5 0 5 C0 3.35 0 1.7 0 0 Z " fill="#9AC0F0" transform="translate(977,1135)"/>
<path d="M0 0 C1.32 0 2.64 0 4 0 C4 1.32 4 2.64 4 4 C2.35 4 0.7 4 -1 4 C-0.67 2.68 -0.34 1.36 0 0 Z " fill="#97BBDD" transform="translate(560,1185)"/>
<path d="M0 0 C1.5 1.3125 1.5 1.3125 3 3 C3 3.99 3 4.98 3 6 C1.68 6 0.36 6 -1 6 C-1.042721 4.33388095 -1.04063832 2.66617115 -1 1 C-0.67 0.67 -0.34 0.34 0 0 Z " fill="#96BADC" transform="translate(261,1181)"/>
<path d="M0 0 C1.98 0 3.96 0 6 0 C6 0.99 6 1.98 6 3 C4.02 3 2.04 3 0 3 C0 2.01 0 1.02 0 0 Z " fill="#82B1E5" transform="translate(496,1157)"/>
<path d="M0 0 C1.32 0 2.64 0 4 0 C4 1.65 4 3.3 4 5 C2.68 4.34 1.36 3.68 0 3 C0 2.01 0 1.02 0 0 Z " fill="#90B3F1" transform="translate(508,1137)"/>
</svg>
