<?xml version="1.0" encoding="UTF-8"?>
<svg version="1.1" xmlns="http://www.w3.org/2000/svg" width="917" height="206">
<path d="M0 0 C0.71027912 -0.00538554 1.42055824 -0.01077108 2.15236098 -0.01631981 C4.53848089 -0.03065662 6.92405051 -0.02348185 9.31019592 -0.01637268 C11.01841683 -0.02207329 12.72663392 -0.02903634 14.43484497 -0.03717041 C19.07947055 -0.05515149 23.72390772 -0.05392414 28.36855769 -0.04822803 C32.24297185 -0.04514323 36.11734944 -0.05122073 39.99175841 -0.05726677 C49.13048711 -0.07132672 58.26912236 -0.06973858 67.40785217 -0.05836487 C76.84247279 -0.04688252 86.27680919 -0.06095792 95.71139234 -0.08776134 C103.80573626 -0.10989799 111.89999084 -0.11656031 119.99436289 -0.11068493 C124.83135281 -0.10730922 129.66816052 -0.10977101 134.50512505 -0.12693596 C139.0532424 -0.14237061 143.60093784 -0.13848847 148.14903831 -0.11963081 C149.81958178 -0.11593521 151.49015627 -0.11908159 153.16067123 -0.1295166 C155.4389034 -0.14266271 157.71572566 -0.13123768 159.99389648 -0.11352539 C161.26944869 -0.11331611 162.5450009 -0.11310682 163.8592062 -0.1128912 C167.06044006 0.38768005 167.06044006 0.38768005 169.47035313 1.96353054 C171.66761242 5.31333798 171.56380427 7.67951469 171.56837463 11.67527771 C171.5746146 12.41091257 171.58085456 13.14654743 171.58728361 13.90447426 C171.6032442 16.37055597 171.59059807 18.83565343 171.57801819 21.30174255 C171.58343797 23.06922482 171.59055982 24.83670258 171.59925842 26.60417175 C171.61751189 31.40581564 171.61041592 36.2071162 171.59774208 41.00876617 C171.58762489 46.03042536 171.59700419 51.05205488 171.60328674 56.07371521 C171.61056688 64.50719997 171.60096582 72.94054468 171.58192444 81.37400818 C171.56015501 91.12846157 171.56720612 100.88258055 171.58923006 110.63702583 C171.60737361 119.00740487 171.6099475 127.37768314 171.59947538 135.74807549 C171.5932347 140.74935768 171.59242061 145.75048263 171.60562134 150.75175476 C171.61716401 155.45338366 171.60918316 160.15458083 171.58604431 164.85616302 C171.58074873 166.58314039 171.58228548 168.31015399 171.59109497 170.037117 C171.60200103 172.39193166 171.5883484 174.74535668 171.56837463 177.1000824 C171.56686653 178.41858185 171.56535843 179.7370813 171.56380463 181.09553528 C171.06044006 184.38768005 171.06044006 184.38768005 169.27869415 186.78065491 C165.11551301 189.79669208 161.36543131 189.51441538 156.31106567 189.52139282 C155.63330611 189.52365838 154.95554655 189.52592394 154.25724882 189.52825814 C151.98728285 189.53458586 149.71737677 189.53376958 147.44740295 189.53294373 C145.81947757 189.53593595 144.19155289 189.53933863 142.56362915 189.54312134 C138.14217991 189.55195833 133.72075002 189.55429931 129.2992928 189.55493712 C125.60884885 189.55588659 121.91840942 189.55956527 118.2279672 189.56310922 C109.52213878 189.57125238 100.81632069 189.57369355 92.11048889 189.57298279 C83.12753907 189.57238179 74.14464925 189.58293842 65.16171461 189.59872645 C57.45036412 189.61179703 49.73903325 189.6171669 42.02767175 189.61652738 C37.42154388 189.61627228 32.81546934 189.61913007 28.20935249 189.62970543 C23.87801626 189.63937847 19.54678446 189.63947105 15.21544456 189.6321888 C13.62594577 189.63114202 12.03644049 189.63351137 10.44695282 189.63954926 C8.27677809 189.64725898 6.10696496 189.64263135 3.9367981 189.63491821 C2.72246125 189.63546298 1.50812441 189.63600775 0.25698948 189.63656902 C-3.67821775 189.33016685 -6.57876143 188.45687888 -9.68955994 186.01268005 C-12.53384157 182.31511394 -12.06729678 177.89718328 -12.07327271 173.41052246 C-12.07553826 172.70826158 -12.07780382 172.00600071 -12.08013803 171.2824592 C-12.08646758 168.92957664 -12.08564934 166.57675183 -12.08482361 164.22386169 C-12.08781572 162.53682379 -12.09121837 160.84978656 -12.09500122 159.16275024 C-12.10383938 154.58014925 -12.10617924 149.99756693 -12.10681701 145.41495824 C-12.10776637 141.59030664 -12.11144491 137.76565939 -12.1149891 133.94100946 C-12.12313271 124.91875484 -12.1255734 115.8965102 -12.12486267 106.87425232 C-12.12426166 97.56411393 -12.13481837 88.25403344 -12.15060633 78.9439097 C-12.16367595 70.95230685 -12.16904682 62.96072294 -12.16840726 54.96910948 C-12.16815213 50.19530829 -12.1710115 45.42155857 -12.18158531 40.64776802 C-12.19125673 36.158844 -12.19135205 31.67002076 -12.18406868 27.18109322 C-12.1830217 25.53354241 -12.18539245 23.88598536 -12.19142914 22.23844528 C-12.19913597 19.98945168 -12.19451311 17.74080726 -12.1867981 15.49182129 C-12.18734286 14.23323838 -12.18788763 12.97465548 -12.18844891 11.67793369 C-11.88385475 7.65127054 -10.97451451 4.94128802 -8.74828243 1.59941006 C-5.90730113 -0.30386824 -3.38556323 0.00645132 0 0 Z M49.92762756 30.9853363 C48.06044006 32.38768005 48.06044006 32.38768005 45.95106506 33.41111755 C43.24845889 34.80709182 41.89414938 37.00385794 40.06044006 39.38768005 C39.40044006 39.71768005 38.74044006 40.04768005 38.06044006 40.38768005 C36.48495323 43.01349144 36.06044006 44.25867793 36.06044006 47.38768005 C35.40044006 47.38768005 34.74044006 47.38768005 34.06044006 47.38768005 C33.73044006 49.36768005 33.40044006 51.34768005 33.06044006 53.38768005 C32.40044006 53.38768005 31.74044006 53.38768005 31.06044006 53.38768005 C28.47542125 63.32562688 28.69498945 73.2404506 28.65419006 83.4384613 C28.64853531 84.39391531 28.64288055 85.34936932 28.63705444 86.33377647 C28.60723476 91.37755285 28.58866564 96.42121696 28.57997131 101.46507263 C28.56894701 106.66844072 28.52073286 111.87077656 28.4640274 117.07381916 C28.4268041 121.08613137 28.41636569 125.09819216 28.41329956 129.11066246 C28.4072514 131.0296469 28.39121032 132.94862717 28.3649292 134.86744118 C28.33082184 137.54597871 28.334557 140.22195312 28.34754944 142.90061951 C28.32911987 143.68979767 28.31069031 144.47897583 28.29170227 145.29206848 C28.33662986 148.24817011 28.45036792 150.64476051 30.37362671 152.98682213 C35.19396261 157.09426686 38.54673619 157.53073224 44.63124084 157.50120544 C45.41181854 157.50135147 46.19239624 157.5014975 46.99662781 157.50164795 C49.58303076 157.50094992 52.16936216 157.49316262 54.75575256 157.4853363 C56.54651347 157.48347174 58.3372749 157.48204802 60.1280365 157.48104858 C64.84628197 157.47722646 69.56449677 157.46739876 74.2827301 157.4563446 C79.09534795 157.44612394 83.90797075 157.44154956 88.72059631 157.43650818 C98.16722439 157.42577624 107.61382968 157.40870346 117.06044006 157.38768005 C117.06044006 156.06768005 117.06044006 154.74768005 117.06044006 153.38768005 C111.12044006 152.39768005 111.12044006 152.39768005 105.06044006 151.38768005 C105.06044006 150.72768005 105.06044006 150.06768005 105.06044006 149.38768005 C105.63794006 149.14018005 106.21544006 148.89268005 106.81044006 148.63768005 C109.1820614 147.4549295 109.1820614 147.4549295 111.12294006 145.32518005 C113.06044006 143.38768005 113.06044006 143.38768005 116.06044006 142.38768005 C116.55544006 140.90268005 116.55544006 140.90268005 117.06044006 139.38768005 C118.70587786 137.70005154 120.37332583 136.03364516 122.06044006 134.38768005 C124.33779016 131.57258012 124.33779016 131.57258012 124.06044006 128.38768005 C124.72044006 128.38768005 125.38044006 128.38768005 126.06044006 128.38768005 C131.12181849 116.09576102 131.64886031 104.95449151 131.17518616 91.76756287 C131.05303763 88.16963907 130.98587722 84.57305214 130.92372131 80.97361755 C130.86727124 78.48658881 130.80871701 75.99960683 130.74794006 73.51268005 C130.72586487 72.35477966 130.70378967 71.19687927 130.68104553 70.00389099 C130.46488136 63.33672877 130.13484893 56.44886618 127.06044006 50.38768005 C125.57544006 49.89268005 125.57544006 49.89268005 124.06044006 49.38768005 C123.93669006 48.41830505 123.81294006 47.44893005 123.68544006 46.45018005 C123.37606506 44.93424255 123.37606506 44.93424255 123.06044006 43.38768005 C122.40044006 43.05768005 121.74044006 42.72768005 121.06044006 42.38768005 C120.62731506 41.64518005 120.19419006 40.90268005 119.74794006 40.13768005 C117.84513061 37.03680539 115.79558729 34.78093388 113.06044006 32.38768005 C112.07044006 32.38768005 111.08044006 32.38768005 110.06044006 32.38768005 C109.56544006 30.90268005 109.56544006 30.90268005 109.06044006 29.38768005 C107.28120972 28.20890655 107.28120972 28.20890655 105.06044006 27.32518005 C103.97762756 26.84371521 103.97762756 26.84371521 102.87294006 26.3525238 C95.73726986 23.9045925 88.89681582 23.0236517 81.37294006 23.07518005 C80.50370911 23.0808197 79.63447815 23.08645935 78.73890686 23.0922699 C68.20238637 23.28856033 58.54397798 24.39734854 49.92762756 30.9853363 Z " fill="#FCFCFC" transform="translate(39.93955993652344,6.6123199462890625)"/>
<path d="M0 0 C1.20970459 0.00523682 2.41940918 0.01047363 3.66577148 0.01586914 C4.97094727 0.0190918 6.27612305 0.02231445 7.62084961 0.02563477 C9.00952213 0.03399138 10.39819401 0.04245634 11.78686523 0.05102539 C13.17944179 0.05603873 14.57202005 0.06060193 15.96459961 0.06469727 C19.38456394 0.07653105 22.80444367 0.09301659 26.22436523 0.11352539 C26.24769374 17.43729891 26.26534417 34.76106755 26.27617741 52.08485317 C26.28134047 60.12802594 26.28838336 68.17118896 26.29980469 76.21435547 C26.30975122 83.222255 26.31621859 90.23014747 26.31845373 97.23805386 C26.31976089 100.95095731 26.32284707 104.66384059 26.33009529 108.37673759 C26.33810855 112.5148395 26.33835639 116.652906 26.33789062 120.79101562 C26.3414859 122.03106857 26.34508118 123.27112152 26.3487854 124.54875183 C26.34741074 125.66920898 26.34603607 126.78966614 26.34461975 127.94407654 C26.34600244 129.41387545 26.34600244 129.41387545 26.34741306 130.91336727 C26.22436523 133.11352539 26.22436523 133.11352539 25.22436523 134.11352539 C15.65436523 134.11352539 6.08436523 134.11352539 -3.77563477 134.11352539 C-4.10563477 112.00352539 -4.43563477 89.89352539 -4.77563477 67.11352539 C-5.43563477 67.11352539 -6.09563477 67.11352539 -6.77563477 67.11352539 C-7.10563477 68.76352539 -7.43563477 70.41352539 -7.77563477 72.11352539 C-8.43563477 72.11352539 -9.09563477 72.11352539 -9.77563477 72.11352539 C-10.16428711 73.64493164 -10.16428711 73.64493164 -10.56079102 75.20727539 C-11.63891197 78.97737999 -13.28269619 82.19270521 -15.21313477 85.61352539 C-17.16339568 89.1296597 -19.07266746 92.57485062 -20.58813477 96.30102539 C-21.77563477 99.11352539 -21.77563477 99.11352539 -23.77563477 101.11352539 C-24.4897181 103.09709022 -25.16181218 105.09667976 -25.77563477 107.11352539 C-26.43563477 107.11352539 -27.09563477 107.11352539 -27.77563477 107.11352539 C-28.10563477 108.43352539 -28.43563477 109.75352539 -28.77563477 111.11352539 C-29.43563477 111.11352539 -30.09563477 111.11352539 -30.77563477 111.11352539 C-31.10563477 113.09352539 -31.43563477 115.07352539 -31.77563477 117.11352539 C-32.43563477 117.11352539 -33.09563477 117.11352539 -33.77563477 117.11352539 C-33.88004883 117.82895508 -33.98446289 118.54438477 -34.09204102 119.28149414 C-34.85085743 122.42516216 -36.04057182 124.66568312 -37.71313477 127.42602539 C-38.2377832 128.3090332 -38.76243164 129.19204102 -39.30297852 130.10180664 C-39.78895508 130.76567383 -40.27493164 131.42954102 -40.77563477 132.11352539 C-41.43563477 132.11352539 -42.09563477 132.11352539 -42.77563477 132.11352539 C-42.77563477 132.77352539 -42.77563477 133.43352539 -42.77563477 134.11352539 C-45.50587366 134.22189209 -48.23178019 134.30099233 -50.96313477 134.36352539 C-51.73206055 134.39704102 -52.50098633 134.43055664 -53.29321289 134.46508789 C-57.26887834 134.53333966 -59.29174749 134.40587396 -62.77563477 132.30102539 C-65.23881411 129.60692298 -65.53079013 127.70458008 -65.77563477 124.11352539 C-66.43563477 124.11352539 -67.09563477 124.11352539 -67.77563477 124.11352539 C-68.61512296 122.01180672 -69.44703132 119.90705914 -70.27563477 117.80102539 C-70.73969727 116.62926758 -71.20375977 115.45750977 -71.68188477 114.25024414 C-72.77563477 111.11352539 -72.77563477 111.11352539 -72.77563477 108.11352539 C-73.43563477 108.11352539 -74.09563477 108.11352539 -74.77563477 108.11352539 C-74.89938477 107.30915039 -75.02313477 106.50477539 -75.15063477 105.67602539 C-75.35688477 104.83040039 -75.56313477 103.98477539 -75.77563477 103.11352539 C-76.43563477 102.78352539 -77.09563477 102.45352539 -77.77563477 102.11352539 C-78.90063477 100.05102539 -78.90063477 100.05102539 -79.77563477 98.11352539 C-81.96539249 101.39816198 -82.7737004 104.32048814 -83.77563477 108.11352539 C-84.43563477 108.11352539 -85.09563477 108.11352539 -85.77563477 108.11352539 C-86.10563477 110.09352539 -86.43563477 112.07352539 -86.77563477 114.11352539 C-87.43563477 114.11352539 -88.09563477 114.11352539 -88.77563477 114.11352539 C-89.43563477 117.41352539 -90.09563477 120.71352539 -90.77563477 124.11352539 C-91.43563477 124.11352539 -92.09563477 124.11352539 -92.77563477 124.11352539 C-92.85813477 125.02102539 -92.94063477 125.92852539 -93.02563477 126.86352539 C-93.88800441 130.6004605 -94.73623223 131.83397349 -97.77563477 134.11352539 C-101.97133804 135.32945371 -105.76485079 135.0396661 -110.08813477 134.67602539 C-111.34239258 134.57418945 -112.59665039 134.47235352 -113.88891602 134.36743164 C-114.8415332 134.28364258 -115.79415039 134.19985352 -116.77563477 134.11352539 C-116.77563477 133.45352539 -116.77563477 132.79352539 -116.77563477 132.11352539 C-117.76563477 131.78352539 -118.75563477 131.45352539 -119.77563477 131.11352539 C-120.10563477 129.13352539 -120.43563477 127.15352539 -120.77563477 125.11352539 C-121.43563477 125.11352539 -122.09563477 125.11352539 -122.77563477 125.11352539 C-123.65063477 123.36352539 -124.52563477 121.61352539 -125.40063477 119.86352539 C-125.94461914 118.77942383 -126.48860352 117.69532227 -127.04907227 116.57836914 C-128.19182868 114.28510005 -129.32225439 111.98564124 -130.43969727 109.67993164 C-130.96305664 108.60614258 -131.48641602 107.53235352 -132.02563477 106.42602539 C-132.50516602 105.4321582 -132.98469727 104.43829102 -133.47875977 103.41430664 C-134.56491822 100.98572738 -134.56491822 100.98572738 -136.77563477 100.11352539 C-139.17545505 95.73045739 -141.133167 91.0926506 -141.77563477 86.11352539 C-142.43563477 86.11352539 -143.09563477 86.11352539 -143.77563477 86.11352539 C-144.10563477 84.13352539 -144.43563477 82.15352539 -144.77563477 80.11352539 C-145.76563477 79.78352539 -146.75563477 79.45352539 -147.77563477 79.11352539 C-148.43563477 77.79352539 -149.09563477 76.47352539 -149.77563477 75.11352539 C-150.76563477 81.38352539 -151.75563477 87.65352539 -152.77563477 94.11352539 C-153.43563477 94.11352539 -154.09563477 94.11352539 -154.77563477 94.11352539 C-155.10563477 96.42352539 -155.43563477 98.73352539 -155.77563477 101.11352539 C-156.43563477 101.11352539 -157.09563477 101.11352539 -157.77563477 101.11352539 C-157.92000977 101.89727539 -158.06438477 102.68102539 -158.21313477 103.48852539 C-158.77563477 106.11352539 -158.77563477 106.11352539 -159.77563477 108.11352539 C-160.43563477 108.11352539 -161.09563477 108.11352539 -161.77563477 108.11352539 C-161.90131836 109.23887695 -161.90131836 109.23887695 -162.02954102 110.38696289 C-162.9334691 113.6903231 -164.06011893 114.63722171 -166.71313477 116.73852539 C-169.32712621 118.83541145 -170.88640992 120.27968813 -172.77563477 123.11352539 C-175.90063477 124.30102539 -175.90063477 124.30102539 -178.77563477 125.11352539 C-178.77563477 125.77352539 -178.77563477 126.43352539 -178.77563477 127.11352539 C-180.26063477 127.60852539 -180.26063477 127.60852539 -181.77563477 128.11352539 C-182.10563477 128.77352539 -182.43563477 129.43352539 -182.77563477 130.11352539 C-185.06079102 130.74633789 -185.06079102 130.74633789 -187.83813477 131.23852539 C-188.75723633 131.40610352 -189.67633789 131.57368164 -190.62329102 131.74633789 C-191.33356445 131.86750977 -192.04383789 131.98868164 -192.77563477 132.11352539 C-192.77563477 132.77352539 -192.77563477 133.43352539 -192.77563477 134.11352539 C-193.7024707 134.24629883 -194.62930664 134.37907227 -195.58422852 134.51586914 C-197.38053711 134.78077148 -197.38053711 134.78077148 -199.21313477 135.05102539 C-200.4080957 135.22504883 -201.60305664 135.39907227 -202.83422852 135.57836914 C-205.65519152 135.80337752 -205.65519152 135.80337752 -206.77563477 137.11352539 C-209.28699581 137.21327571 -211.76466891 137.25234722 -214.27563477 137.23852539 C-215.32944336 137.24432617 -215.32944336 137.24432617 -216.40454102 137.25024414 C-221.64902099 137.24013917 -221.64902099 137.24013917 -222.77563477 136.11352539 C-225.12287443 135.71603239 -227.47892025 135.36983816 -229.83813477 135.05102539 C-231.12848633 134.87442383 -232.41883789 134.69782227 -233.74829102 134.51586914 C-234.74731445 134.3830957 -235.74633789 134.25032227 -236.77563477 134.11352539 C-236.77563477 133.45352539 -236.77563477 132.79352539 -236.77563477 132.11352539 C-238.07500977 131.90727539 -239.37438477 131.70102539 -240.71313477 131.48852539 C-246.32243834 130.23323523 -250.22975745 127.52098403 -254.77563477 124.11352539 C-255.5993457 123.53989258 -256.42305664 122.96625977 -257.27172852 122.37524414 C-261.99477584 118.96709319 -264.2918068 116.9139438 -265.77563477 111.11352539 C-266.38665039 110.8415332 -266.99766602 110.56954102 -267.62719727 110.28930664 C-273.27141464 107.2003804 -275.72809185 97.73138149 -277.65063477 91.86352539 C-278.85886482 87.49693956 -279.0263114 83.62570473 -278.77563477 79.11352539 C-279.43563477 79.11352539 -280.09563477 79.11352539 -280.77563477 79.11352539 C-280.77563477 72.84352539 -280.77563477 66.57352539 -280.77563477 60.11352539 C-280.11563477 60.11352539 -279.45563477 60.11352539 -278.77563477 60.11352539 C-278.81688477 59.14415039 -278.85813477 58.17477539 -278.90063477 57.17602539 C-278.88666867 50.27677462 -277.16503286 44.12200384 -273.77563477 38.11352539 C-273.11563477 38.11352539 -272.45563477 38.11352539 -271.77563477 38.11352539 C-271.65188477 37.14415039 -271.52813477 36.17477539 -271.40063477 35.17602539 C-271.19438477 34.16540039 -270.98813477 33.15477539 -270.77563477 32.11352539 C-270.11563477 31.78352539 -269.45563477 31.45352539 -268.77563477 31.11352539 C-267.64212943 29.09682712 -267.64212943 29.09682712 -266.77563477 27.11352539 C-266.11563477 27.11352539 -265.45563477 27.11352539 -264.77563477 27.11352539 C-264.44563477 26.12352539 -264.11563477 25.13352539 -263.77563477 24.11352539 C-263.11563477 24.11352539 -262.45563477 24.11352539 -261.77563477 24.11352539 C-261.44563477 22.46352539 -261.11563477 20.81352539 -260.77563477 19.11352539 C-259.80625977 18.84540039 -258.83688477 18.57727539 -257.83813477 18.30102539 C-256.82750977 17.90915039 -255.81688477 17.51727539 -254.77563477 17.11352539 C-254.44563477 16.12352539 -254.11563477 15.13352539 -253.77563477 14.11352539 C-252.78563477 14.11352539 -251.79563477 14.11352539 -250.77563477 14.11352539 C-250.77563477 13.45352539 -250.77563477 12.79352539 -250.77563477 12.11352539 C-248.1282456 10.65289689 -246.88115142 10.11352539 -243.77563477 10.11352539 C-243.77563477 9.45352539 -243.77563477 8.79352539 -243.77563477 8.11352539 C-241.9221316 7.48656044 -240.06779618 6.86205573 -238.21313477 6.23852539 C-237.1805957 5.89047852 -236.14805664 5.54243164 -235.08422852 5.18383789 C-233.99239258 4.83063477 -232.90055664 4.47743164 -231.77563477 4.11352539 C-230.69540039 3.74485352 -229.61516602 3.37618164 -228.50219727 2.99633789 C-223.83410673 1.89047996 -219.4907363 1.82096324 -214.71313477 1.86352539 C-213.84108398 1.85579102 -212.9690332 1.84805664 -212.07055664 1.84008789 C-207.21887567 1.85477882 -203.3331714 2.27570042 -198.77563477 4.11352539 C-198.04860352 4.3365332 -197.32157227 4.55954102 -196.57250977 4.78930664 C-188.9731002 7.15324511 -181.31580763 10.53540439 -174.77563477 15.11352539 C-174.77563477 15.77352539 -174.77563477 16.43352539 -174.77563477 17.11352539 C-173.29063477 17.60852539 -173.29063477 17.60852539 -171.77563477 18.11352539 C-171.77563477 18.77352539 -171.77563477 19.43352539 -171.77563477 20.11352539 C-170.45563477 20.77352539 -169.13563477 21.43352539 -167.77563477 22.11352539 C-167.77563477 22.77352539 -167.77563477 23.43352539 -167.77563477 24.11352539 C-166.29063477 24.60852539 -166.29063477 24.60852539 -164.77563477 25.11352539 C-164.77563477 26.10352539 -164.77563477 27.09352539 -164.77563477 28.11352539 C-163.29063477 28.60852539 -163.29063477 28.60852539 -161.77563477 29.11352539 C-161.77563477 29.77352539 -161.77563477 30.43352539 -161.77563477 31.11352539 C-161.11563477 31.44352539 -160.45563477 31.77352539 -159.77563477 32.11352539 C-159.04487828 34.42758759 -158.37425219 36.76181408 -157.77563477 39.11352539 C-157.11563477 39.11352539 -156.45563477 39.11352539 -155.77563477 39.11352539 C-155.10258459 40.71502425 -154.4374125 42.31983568 -153.77563477 43.92602539 C-153.21875977 45.26600586 -153.21875977 45.26600586 -152.65063477 46.63305664 C-151.77563477 49.11352539 -151.77563477 49.11352539 -151.77563477 52.11352539 C-150.85282715 52.10567017 -150.85282715 52.10567017 -149.91137695 52.09765625 C-147.11614 52.07683168 -144.3209194 52.0638478 -141.52563477 52.05102539 C-140.07350586 52.03845703 -140.07350586 52.03845703 -138.59204102 52.02563477 C-137.6574707 52.02241211 -136.72290039 52.01918945 -135.76000977 52.01586914 C-134.90117187 52.01063232 -134.04233398 52.00539551 -133.1574707 52 C-130.88892733 52.10812553 -128.94931761 52.47770116 -126.77563477 53.11352539 C-126.77563477 53.77352539 -126.77563477 54.43352539 -126.77563477 55.11352539 C-125.78563477 55.44352539 -124.79563477 55.77352539 -123.77563477 56.11352539 C-122.60766602 58.03930664 -122.60766602 58.03930664 -121.58813477 60.42602539 C-121.24395508 61.2059082 -120.89977539 61.98579102 -120.54516602 62.78930664 C-119.77563477 65.11352539 -119.77563477 65.11352539 -119.77563477 69.11352539 C-119.11563477 69.11352539 -118.45563477 69.11352539 -117.77563477 69.11352539 C-117.38891602 70.11512695 -117.00219727 71.11672852 -116.60375977 72.14868164 C-116.0780023 73.49124089 -115.5519445 74.83368255 -115.02563477 76.17602539 C-114.77297852 76.83280273 -114.52032227 77.48958008 -114.26000977 78.16625977 C-112.45611349 82.74364655 -110.30184659 86.89035822 -107.77563477 91.11352539 C-107.11563477 89.46352539 -106.45563477 87.81352539 -105.77563477 86.11352539 C-105.11563477 86.11352539 -104.45563477 86.11352539 -103.77563477 86.11352539 C-103.62094727 84.81608398 -103.62094727 84.81608398 -103.46313477 83.49243164 C-102.72988282 79.888665 -101.510127 77.28235107 -99.77563477 74.05102539 C-97.80531863 70.37089164 -96.38392663 67.25751372 -95.77563477 63.11352539 C-95.11563477 63.11352539 -94.45563477 63.11352539 -93.77563477 63.11352539 C-93.59000977 61.96883789 -93.59000977 61.96883789 -93.40063477 60.80102539 C-92.77563477 58.11352539 -92.77563477 58.11352539 -90.77563477 55.11352539 C-90.11563477 55.11352539 -89.45563477 55.11352539 -88.77563477 55.11352539 C-88.77563477 54.45352539 -88.77563477 53.79352539 -88.77563477 53.11352539 C-85.72146664 52.09546935 -83.59626515 51.97977024 -80.40063477 51.98852539 C-78.9968457 51.9846582 -78.9968457 51.9846582 -77.56469727 51.98071289 C-70.60800471 52.31198396 -70.60800471 52.31198396 -68.19360352 54.63696289 C-67.78754883 55.24797852 -67.38149414 55.85899414 -66.96313477 56.48852539 C-66.3347168 57.39731445 -66.3347168 57.39731445 -65.69360352 58.32446289 C-64.77563477 60.11352539 -64.77563477 60.11352539 -64.77563477 63.11352539 C-64.11563477 63.11352539 -63.45563477 63.11352539 -62.77563477 63.11352539 C-62.38375977 64.37165039 -61.99188477 65.62977539 -61.58813477 66.92602539 C-60.03038828 71.61403023 -58.06600897 76.04077294 -55.98266602 80.51586914 C-54.50906425 83.68721275 -53.13574784 86.89220496 -51.77563477 90.11352539 C-50.78563477 90.11352539 -49.79563477 90.11352539 -48.77563477 90.11352539 C-48.11563477 86.81352539 -47.45563477 83.51352539 -46.77563477 80.11352539 C-46.11563477 80.11352539 -45.45563477 80.11352539 -44.77563477 80.11352539 C-44.63834961 79.08098633 -44.63834961 79.08098633 -44.49829102 78.02758789 C-43.61014668 74.44620586 -42.03605396 71.69244398 -40.21313477 68.48852539 C-37.52195008 64.06462562 -37.52195008 64.06462562 -36.77563477 59.11352539 C-36.11563477 59.11352539 -35.45563477 59.11352539 -34.77563477 59.11352539 C-34.44563477 57.79352539 -34.11563477 56.47352539 -33.77563477 55.11352539 C-33.11563477 55.11352539 -32.45563477 55.11352539 -31.77563477 55.11352539 C-31.77563477 54.45352539 -31.77563477 53.79352539 -31.77563477 53.11352539 C-22.53563477 53.11352539 -13.29563477 53.11352539 -3.77563477 53.11352539 C-3.78723633 49.37137695 -3.79883789 45.62922852 -3.81079102 41.77368164 C-3.81858024 38.16634201 -3.82465777 34.5590033 -3.83056641 30.95166016 C-3.8356084 28.43635644 -3.84244179 25.92105567 -3.85107422 23.40576172 C-3.86314571 19.79922764 -3.86886425 16.19273217 -3.87329102 12.58618164 C-3.8784523 11.4539064 -3.88361359 10.32163116 -3.88893127 9.15504456 C-3.88904457 7.5935392 -3.88904457 7.5935392 -3.88916016 6.00048828 C-3.89138077 5.07893448 -3.89360138 4.15738068 -3.89588928 3.207901 C-3.71021475 -0.02584213 -3.27785221 0.13406643 0 0 Z M-217.77563477 32.11352539 C-217.77563477 32.77352539 -217.77563477 33.43352539 -217.77563477 34.11352539 C-218.91000977 34.01040039 -220.04438477 33.90727539 -221.21313477 33.80102539 C-227.39965239 33.82292457 -232.20125808 36.70072047 -236.64282227 40.86352539 C-239.3472136 43.86552917 -241.00123115 46.09190664 -241.77563477 50.11352539 C-242.43563477 50.11352539 -243.09563477 50.11352539 -243.77563477 50.11352539 C-243.9084082 50.82379883 -244.04118164 51.53407227 -244.17797852 52.26586914 C-244.44288086 53.64452148 -244.44288086 53.64452148 -244.71313477 55.05102539 C-244.8871582 55.96754883 -245.06118164 56.88407227 -245.24047852 57.82836914 C-245.77563477 60.11352539 -245.77563477 60.11352539 -246.77563477 61.11352539 C-246.93103956 64.12598756 -247.0075063 67.09966769 -247.02563477 70.11352539 C-247.04625977 70.93981445 -247.06688477 71.76610352 -247.08813477 72.61743164 C-247.12577956 78.63118768 -246.0078449 83.53805031 -243.77563477 89.11352539 C-243.11563477 89.11352539 -242.45563477 89.11352539 -241.77563477 89.11352539 C-241.63125977 89.71165039 -241.48688477 90.30977539 -241.33813477 90.92602539 C-240.88839087 92.67502944 -240.34671136 94.40029562 -239.77563477 96.11352539 C-238.95063477 96.44352539 -238.12563477 96.77352539 -237.27563477 97.11352539 C-236.45063477 97.44352539 -235.62563477 97.77352539 -234.77563477 98.11352539 C-234.44563477 99.10352539 -234.11563477 100.09352539 -233.77563477 101.11352539 C-232.78563477 101.11352539 -231.79563477 101.11352539 -230.77563477 101.11352539 C-230.77563477 101.77352539 -230.77563477 102.43352539 -230.77563477 103.11352539 C-219.86300264 107.25195022 -209.61735194 107.52371543 -198.77563477 103.11352539 C-198.77563477 102.45352539 -198.77563477 101.79352539 -198.77563477 101.11352539 C-198.17750977 100.84540039 -197.57938477 100.57727539 -196.96313477 100.30102539 C-194.77715623 99.11435133 -193.36230883 98.01753426 -191.77563477 96.11352539 C-191.77563477 95.45352539 -191.77563477 94.79352539 -191.77563477 94.11352539 C-191.11563477 94.11352539 -190.45563477 94.11352539 -189.77563477 94.11352539 C-186.61105456 88.52276703 -185.10573219 83.69278549 -184.17016602 77.33618164 C-183.77563477 75.11352539 -183.77563477 75.11352539 -182.77563477 74.11352539 C-182.67772907 72.61614415 -182.64588612 71.11409647 -182.65063477 69.61352539 C-182.64805664 68.79883789 -182.64547852 67.98415039 -182.64282227 67.14477539 C-182.55111696 65.11822162 -182.55111696 65.11822162 -183.77563477 64.11352539 C-184.07433746 62.43073496 -184.33927079 60.74190494 -184.58813477 59.05102539 C-185.49640383 53.74007806 -187.13092845 49.78583989 -189.77563477 45.11352539 C-190.43563477 45.11352539 -191.09563477 45.11352539 -191.77563477 45.11352539 C-192.27063477 43.62852539 -192.27063477 43.62852539 -192.77563477 42.11352539 C-194.40498717 40.73484258 -196.07313083 39.40078446 -197.77563477 38.11352539 C-198.43563477 37.45352539 -199.09563477 36.79352539 -199.77563477 36.11352539 C-203.35707869 33.72589611 -206.5640311 33.95154063 -210.77563477 34.11352539 C-210.77563477 33.45352539 -210.77563477 32.79352539 -210.77563477 32.11352539 C-213.08563477 32.11352539 -215.39563477 32.11352539 -217.77563477 32.11352539 Z " fill="#F8F8F8" transform="translate(506.775634765625,31.886474609375)"/>
<path d="M0 0 C16.17 0 32.34 0 49 0 C49.495 0.495 49.495 0.495 50 1 C51.64198158 1.27416026 53.28892302 1.51878303 54.9375 1.75 C60.95599161 2.78442825 65.70482894 5.05509203 71 8 C72.3301349 8.67302552 73.66242836 9.34187819 75 10 C75 10.66 75 11.32 75 12 C75.556875 12.0825 76.11375 12.165 76.6875 12.25 C81.03769022 13.66087251 83.85841172 16.72602729 86.6875 20.1875 C88.69390251 23.01647233 88.69390251 23.01647233 91 24 C91.625 26.5625 91.625 26.5625 92 29 C92.66 29 93.32 29 94 29 C98.84885618 39.08102114 102.19588918 47.99154543 102.69140625 59.23828125 C103.01491317 62.13346339 103.80154888 64.35763188 105 67 C105.598125 66.030625 106.19625 65.06125 106.8125 64.0625 C109 61 109 61 112 60 C112.33 59.01 112.66 58.02 113 57 C119.90949508 51.07372742 127.63079635 46.29730973 137 47 C137 46.34 137 45.68 137 45 C140.64581687 44.97112488 144.29160463 44.95324415 147.9375 44.9375 C149.49887695 44.92493164 149.49887695 44.92493164 151.09179688 44.91210938 C152.57583008 44.90727539 152.57583008 44.90727539 154.08984375 44.90234375 C155.00628662 44.89710693 155.92272949 44.89187012 156.86694336 44.88647461 C159 45 159 45 160 46 C161.67884238 46.3931648 163.36850045 46.74085452 165.0625 47.0625 C165.98160156 47.23910156 166.90070313 47.41570312 167.84765625 47.59765625 C168.55792969 47.73042969 169.26820313 47.86320312 170 48 C170 48.66 170 49.32 170 50 C170.70125 50.0825 171.4025 50.165 172.125 50.25 C175.6903452 51.18009005 178.09015572 52.76686369 181 55 C181 55.66 181 56.32 181 57 C181.99 57.33 182.98 57.66 184 58 C185.90234375 60.14453125 185.90234375 60.14453125 187.9375 62.8125 C190.45993095 66.10283864 193.00687375 69.12740232 196 72 C196.37125 70.948125 196.7425 69.89625 197.125 68.8125 C198.8921621 64.60699405 201.4521372 62.77658828 205 60 C205.33 59.01 205.66 58.02 206 57 C206.99 56.67 207.98 56.34 209 56 C209.33 55.34 209.66 54.68 210 54 C210.99 54 211.98 54 213 54 C213.33 53.34 213.66 52.68 214 52 C217.0318856 50.11813998 218.24517355 50 222 50 C222 49.34 222 48.68 222 48 C223.06541016 47.80083984 223.06541016 47.80083984 224.15234375 47.59765625 C225.07144531 47.42105469 225.99054688 47.24445313 226.9375 47.0625 C227.85402344 46.88847656 228.77054688 46.71445313 229.71484375 46.53515625 C231.95289844 46.22285012 231.95289844 46.22285012 233 45 C236.20038909 44.74711401 239.41581342 44.81476318 242.625 44.8125 C243.51574219 44.80025391 244.40648437 44.78800781 245.32421875 44.77539062 C250.63515192 44.76365808 254.97412808 45.28113873 260 47 C261.33130115 47.34135927 262.66358148 47.67925956 264 48 C264 48.66 264 49.32 264 50 C264.969375 50.12375 265.93875 50.2475 266.9375 50.375 C267.948125 50.58125 268.95875 50.7875 270 51 C270.33 51.66 270.66 52.32 271 53 C271.99 53.33 272.98 53.66 274 54 C274 54.66 274 55.32 274 56 C274.9075 56.20625 275.815 56.4125 276.75 56.625 C280.78847858 58.33358709 281.82642839 60.27387724 284 64 C284.66 64.66 285.32 65.32 286 66 C287.3492671 68.92341206 288 70.75207316 288 74 C288.66 74 289.32 74 290 74 C290.92329084 78.68973124 291.15186484 83.23596815 291.125 88 C291.12886719 88.68578125 291.13273437 89.3715625 291.13671875 90.078125 C291.12893603 94.15626809 290.78754506 97.99977115 290 102 C289.34 102 288.68 102 288 102 C287.855625 103.093125 287.71125 104.18625 287.5625 105.3125 C286.68983592 111.03329789 285.14508682 113.05229827 281 117 C280.484375 117.53625 279.96875 118.0725 279.4375 118.625 C274.86363636 123 274.86363636 123 271 123 C271 123.66 271 124.32 271 125 C268.81716075 125.84770456 266.63003921 126.67807547 264.4375 127.5 C263.21933594 127.9640625 262.00117187 128.428125 260.74609375 128.90625 C256.9581081 130.01223121 253.92096767 130.20185162 250 130 C250 130.66 250 131.32 250 132 C247.31222198 132.0544207 244.62556788 132.09387266 241.9375 132.125 C241.18533203 132.14175781 240.43316406 132.15851563 239.65820312 132.17578125 C234.74023037 132.2183611 230.7072486 131.59465581 226 130 C224.89398437 129.63261719 223.78796875 129.26523438 222.6484375 128.88671875 C216.66723264 126.69551363 212.14642715 125.0259723 208 120 C206.92758611 119.15266063 205.84372192 118.31965109 204.75 117.5 C201.86272638 114.8752058 201.21783039 113.81203175 201 110 C200.01 109.67 199.02 109.34 198 109 C198 108.01 198 107.02 198 106 C197.34 106 196.68 106 196 106 C195.67 105.01 195.34 104.02 195 103 C194.34 104.98 193.68 106.96 193 109 C192.34 109 191.68 109 191 109 C190.9690625 110.299375 190.9690625 110.299375 190.9375 111.625 C189.36078211 117.3011844 184.73525174 119.8431655 180 123 C178.05438406 124.04486782 176.09435278 125.0630903 174.125 126.0625 C173.09632813 126.58972656 172.06765625 127.11695313 171.0078125 127.66015625 C163.89849552 130.82703381 156.3952474 130.21969178 148.75 130.25 C146.82220703 130.2809375 146.82220703 130.2809375 144.85546875 130.3125 C137.61008855 130.34222464 131.67853185 129.83554231 125 127 C123.824375 126.608125 122.64875 126.21625 121.4375 125.8125 C120.2309375 125.4103125 120.2309375 125.4103125 119 125 C119 124.34 119 123.68 119 123 C118.278125 122.773125 117.55625 122.54625 116.8125 122.3125 C113.42314891 120.73080282 111.4575312 118.79885498 109 116 C108.67 115.01 108.34 114.02 108 113 C107.34 113 106.68 113 106 113 C105.37237545 111.77217138 104.74803935 110.54266164 104.125 109.3125 C103.77695312 108.62800781 103.42890625 107.94351563 103.0703125 107.23828125 C100.94945643 102.80306035 99.73170115 99.12186592 99.375 94.1875 C99.30023437 93.21167969 99.22546875 92.23585938 99.1484375 91.23046875 C99.09945312 90.49441406 99.05046875 89.75835937 99 89 C98.69707031 89.80824219 98.39414062 90.61648437 98.08203125 91.44921875 C95.76614179 97.35651833 93.92501679 101.81373573 89 106 C88.195625 107.010625 87.39125 108.02125 86.5625 109.0625 C83.93553286 112.07390135 81.3620108 113.88047145 78 116 C77.52820313 116.48726563 77.05640625 116.97453125 76.5703125 117.4765625 C74.82671075 119.16811643 73.17315549 120.11326973 71 121.1875 C70.319375 121.53167969 69.63875 121.87585938 68.9375 122.23046875 C67 123 67 123 64 123 C64 123.66 64 124.32 64 125 C62.27318563 125.50806447 60.54342021 126.00610467 58.8125 126.5 C57.84957031 126.7784375 56.88664063 127.056875 55.89453125 127.34375 C53.14568341 127.96697056 50.800992 128.03980095 48 128 C47.67 128.33 47.34 128.66 47 129 C31.49 129 15.98 129 0 129 C0 86.43 0 43.86 0 0 Z M30 29 C30 52.76 30 76.52 30 101 C38.02649706 101.03757619 38.02649706 101.03757619 45.5 99.625 C46.5209375 99.36976563 47.541875 99.11453125 48.59375 98.8515625 C51.16107507 98.25616951 51.16107507 98.25616951 52 96 C53.485 95.505 53.485 95.505 55 95 C55 94.34 55 93.68 55 93 C55.721875 92.855625 56.44375 92.71125 57.1875 92.5625 C60.88084125 90.51064375 61.91880406 88.08330339 63.7890625 84.38671875 C65 82 65 82 66.5625 79.67578125 C68.34317288 76.36121352 68.92541727 73.18533695 69.375 69.5 C69.46313965 68.80455078 69.5512793 68.10910156 69.64208984 67.39257812 C70.33365268 60.57330235 69.07465648 54.5139752 67 48 C66.34 48 65.68 48 65 48 C64.505 46.02 64.505 46.02 64 44 C63.34 44 62.68 44 62 44 C61.89558594 43.4121875 61.79117188 42.824375 61.68359375 42.21875 C60.20022859 37.40417053 55.98545258 34.21176199 51.8046875 31.66015625 C44.04882122 28.06378921 39.34408313 29 30 29 Z M102 70 C103 73 103 73 103 73 Z M140 72 C140 72.66 140 73.32 140 74 C139.4225 74.020625 138.845 74.04125 138.25 74.0625 C135.3883689 75.25484629 134.19139619 76.91913659 132.75390625 79.625 C130.93871104 85.34333516 131.1112461 92.33373831 133 98 C133.66 98 134.32 98 135 98 C135.226875 98.598125 135.45375 99.19625 135.6875 99.8125 C137.46909246 102.78182076 138.80644061 103.60281777 142 105 C146.82433006 105.88354829 151.25406026 106.44679918 156 105 C156 104.34 156 103.68 156 103 C156.763125 102.731875 157.52625 102.46375 158.3125 102.1875 C162.32578037 100.41419007 163.51440219 99.08681414 165.3125 95.0625 C166.72648114 89.72845731 165.12590653 84.27443906 164 79 C163.01 78.67 162.02 78.34 161 78 C159.8125 75.9375 159.8125 75.9375 159 74 C158.34 74 157.68 74 157 74 C156.67 73.34 156.34 72.68 156 72 C155.01 72.33 154.02 72.66 153 73 C153 72.34 153 71.68 153 71 C148.48382401 70.92345464 144.40914783 70.89771304 140 72 Z M230 75 C227.7226499 77.81509993 227.7226499 77.81509993 228 81 C227.34 81 226.68 81 226 81 C225.80372609 82.58226965 225.61834462 84.16589271 225.4375 85.75 C225.33308594 86.63171875 225.22867188 87.5134375 225.12109375 88.421875 C225.00543324 90.88432451 225.26361305 92.66538064 226 95 C226.66 95 227.32 95 228 95 C228.04125 95.9075 228.0825 96.815 228.125 97.75 C228.73862943 101.15464905 228.73862943 101.15464905 231.4375 103.3125 C237.06004899 105.97581268 242.97470244 106.81869581 249 105 C249 104.34 249 103.68 249 103 C250.65 102.34 252.3 101.68 254 101 C254 100.34 254 99.68 254 99 C255.32 98.34 256.64 97.68 258 97 C258 95.35 258 93.7 258 92 C258.66 92 259.32 92 260 92 C260.61187657 85.14698242 259.19904786 81.42058906 255 76 C254.34 75.34 253.68 74.68 253 74 C252.01 74 251.02 74 250 74 C250 73.34 250 72.68 250 72 C242.84232836 69.61410945 236.15221231 70.58870148 230 75 Z " fill="#F5F5F5" transform="translate(542,37)"/>
<path d="M0 0 C2.00720923 0.28674418 4.0085944 0.61866701 6 1 C9.54446928 12.29799582 8.10272852 23.52886497 6 35 C5.34 35 4.68 35 4 35 C3.67 36.98 3.34 38.96 3 41 C2.34 41 1.68 41 1 41 C0.814375 42.4540625 0.814375 42.4540625 0.625 43.9375 C0.315625 45.4534375 0.315625 45.4534375 0 47 C-0.99 47.495 -0.99 47.495 -2 48 C-2.33 48.99 -2.66 49.98 -3 51 C-4.97956942 52.69088222 -6.97945196 54.35830472 -9 56 C-9.495 56.99 -9.495 56.99 -10 58 C-20.41630603 64.94420402 -30.23442056 68.16957244 -42.67578125 68.09765625 C-43.6009404 68.0962413 -44.52609955 68.09482635 -45.47929382 68.09336853 C-48.42372927 68.08778715 -51.36808767 68.07523805 -54.3125 68.0625 C-56.31314994 68.05748259 -58.31380108 68.05292011 -60.31445312 68.04882812 C-65.20966494 68.03782381 -70.10481942 68.02057198 -75 68 C-74.37377674 63.28718579 -73.82452533 61.01326238 -70 58 C-69.34 58 -68.68 58 -68 58 C-67.67 56.68 -67.34 55.36 -67 54 C-66.34 54 -65.68 54 -65 54 C-64.34 50.7 -63.68 47.4 -63 44 C-62.34 44 -61.68 44 -61 44 C-60.71998731 28.75515091 -60.71998731 28.75515091 -64 14 C-64.1875 10.6875 -64.1875 10.6875 -64 8 C-62.4140333 6.4140333 -60.77540152 6.85155517 -58.57543945 6.82641602 C-57.63388504 6.81292618 -56.69233063 6.79943634 -55.72224426 6.78553772 C-54.69628647 6.77509933 -53.67032867 6.76466095 -52.61328125 6.75390625 C-50.45637636 6.72095421 -48.29947542 6.6877428 -46.14257812 6.65429688 C-42.73025367 6.60695458 -39.31794366 6.5625628 -35.90551758 6.52319336 C-32.62042879 6.48338421 -29.33568107 6.43184373 -26.05078125 6.37890625 C-24.52702629 6.36628502 -24.52702629 6.36628502 -22.9724884 6.35340881 C-17.9231744 6.26563138 -13.72814375 5.98009842 -9 4 C-8.24074219 3.73058594 -7.48148437 3.46117188 -6.69921875 3.18359375 C-3.07676824 2.06216769 -3.07676824 2.06216769 0 0 Z " fill="#F6F6F6" transform="translate(159,91)"/>
<path d="M0 0 C0 0.66 0 1.32 0 2 C1.11375 2.1546875 1.11375 2.1546875 2.25 2.3125 C5.17014018 3.04253504 6.73187554 4.06789398 9 6 C8.21302675 9.41021743 7.12880057 12.68885166 6 16 C5.34 16 4.68 16 4 16 C3.9175 16.639375 3.835 17.27875 3.75 17.9375 C2.70479628 22.20541517 0.85908174 26.03107667 -1 30 C-3.97 29.67 -6.94 29.34 -10 29 C-10 28.34 -10 27.68 -10 27 C-16.24162484 26.66562724 -20.23516549 27.61455124 -26 30 C-26.66 30 -27.32 30 -28 30 C-28.185625 31.2684375 -28.185625 31.2684375 -28.375 32.5625 C-29 36 -29 36 -30.01538086 39.12744141 C-31.1643302 43.64631927 -31.33219584 47.75920738 -31.37890625 52.3984375 C-31.39590073 53.27400299 -31.4128952 54.14956848 -31.43040466 55.05166626 C-31.48319986 57.82603918 -31.52371629 60.60039867 -31.5625 63.375 C-31.60641928 66.1709542 -31.65301831 68.96679322 -31.70530701 71.76260376 C-31.73729523 73.49752069 -31.76417562 75.23254055 -31.78553772 76.96762085 C-31.88817371 82.88817371 -31.88817371 82.88817371 -33 84 C-42.57 84 -52.14 84 -62 84 C-62 57.27 -62 30.54 -62 3 C-52.43 3 -42.86 3 -33 3 C-32.34 4.98 -31.68 6.96 -31 9 C-30.01 8.67 -29.02 8.34 -28 8 C-27.67 7.34 -27.34 6.68 -27 6 C-26.01 5.67 -25.02 5.34 -24 5 C-23.67 4.34 -23.34 3.68 -23 3 C-15.83213986 -0.87740325 -7.8968481 -0.30329289 0 0 Z " fill="#F4F4F4" transform="translate(898,82)"/>
<path d="M0 0 C4.62 0 9.24 0 14 0 C14 0.66 14 1.32 14 2 C14.886875 2.04125 15.77375 2.0825 16.6875 2.125 C21.09716984 3.28981845 22.31542449 5.39701709 25 9 C26.31543863 10.35099103 27.64175118 11.69205669 29 13 C29.5775 12.0925 30.155 11.185 30.75 10.25 C34.29424065 5.13054128 37.74562181 1.4048936 44 0 C48.678368 -0.24083603 53.32016526 -0.1752504 58 0 C58 0.66 58 1.32 58 2 C58.99 1.67 59.98 1.34 61 1 C63.04296875 2.109375 63.04296875 2.109375 65.1875 3.75 C65.90292969 4.28109375 66.61835938 4.8121875 67.35546875 5.359375 C67.89816406 5.90078125 68.44085938 6.4421875 69 7 C69 7.99 69 8.98 69 10 C69.66 10 70.32 10 71 10 C74.03507498 16.82891872 75.47216437 23.08487057 73.2734375 30.42578125 C71.25559994 35.30632331 68.82876738 39.35355487 65 43 C61.6875 43.875 61.6875 43.875 59 44 C59 44.66 59 45.32 59 46 C51.42832194 46.0697076 43.85667744 46.12291623 36.28475094 46.15543652 C32.76825002 46.17104978 29.2519697 46.19220765 25.7355957 46.22631836 C21.68699095 46.26534335 17.63861561 46.27974501 13.58984375 46.29296875 C12.33541977 46.30845261 11.08099579 46.32393646 9.78855896 46.33988953 C3.41729796 46.34111227 -1.38996249 46.13597842 -7 43 C-7 42.34 -7 41.68 -7 41 C-7.99 40.67 -8.98 40.34 -10 40 C-14.3050243 36.33275708 -15.74900554 31.52333099 -16.29296875 26.0546875 C-16.45453772 19.91506651 -15.94827387 15.40516876 -13 10 C-12.34 10 -11.68 10 -11 10 C-10.91621094 9.39800781 -10.83242187 8.79601562 -10.74609375 8.17578125 C-9.77712824 5.35005461 -8.5958449 4.70384207 -6.0625 3.1875 C-5.35222656 2.74792969 -4.64195313 2.30835938 -3.91015625 1.85546875 C-3.27980469 1.57316406 -2.64945313 1.29085937 -2 1 C-1.34 1.33 -0.68 1.66 0 2 C0 1.34 0 0.68 0 0 Z M6 14 C6 14.66 6 15.32 6 16 C5.21625 16.103125 4.4325 16.20625 3.625 16.3125 C0.66954819 16.77595022 0.66954819 16.77595022 -1 20 C-1.24107326 22.28648848 -1.24107326 22.28648848 -1.125 24.6875 C-1.10695313 25.49574219 -1.08890625 26.30398437 -1.0703125 27.13671875 C-1.04710938 27.75160156 -1.02390625 28.36648437 -1 29 C0.98 29.99 0.98 29.99 3 31 C3 31.66 3 32.32 3 33 C8.99559379 33.64164649 8.99559379 33.64164649 13.9375 30.5625 C14.618125 29.716875 15.29875 28.87125 16 28 C16.33 27.67 16.66 27.34 17 27 C17.4265405 23.24644356 17.24470606 21.41690662 15.3125 18.125 C13.18042836 15.74698461 13.18042836 15.74698461 10.25 15.6875 C9.5075 15.790625 8.765 15.89375 8 16 C8 15.34 8 14.68 8 14 C7.34 14 6.68 14 6 14 Z M48 14 C47.071875 15.2065625 47.071875 15.2065625 46.125 16.4375 C44 19 44 19 42 20 C41.22188282 23.81984796 40.75613444 26.26840331 42 30 C45.68189224 32.59898276 47.67019831 34 52.1875 34 C55.60285961 32.78564992 57.01016496 32.06128468 59 29 C59.54394756 24.76333798 59.35072041 21.05216122 58 17 C55.67108904 15.97299556 55.67108904 15.97299556 52.9375 15.3125 C52.01839844 15.06113281 51.09929687 14.80976562 50.15234375 14.55078125 C49.44207031 14.36902344 48.73179687 14.18726563 48 14 Z M26 31 C26.33 32.98 26.66 34.96 27 37 C28.32 37 29.64 37 31 37 C31.93065133 34.39417629 32.14917407 33.35801776 31.0625 30.75 C30.711875 30.1725 30.36125 29.595 30 29 C28.53774984 28.90754997 28.53774984 28.90754997 26 31 Z " fill="#F0F0F0" transform="translate(91,47)"/>
<path d="M0 0 C4.9204014 0.28116579 7.46224763 2.76333294 11 6 C11.763125 6.639375 12.52625 7.27875 13.3125 7.9375 C15.45281306 10.55343819 15.56015899 12.70119242 16 16 C16.66 16.33 17.32 16.66 18 17 C21.40016331 28.3338777 21.31853384 40.72475273 16.375 51.5625 C15.92125 52.366875 15.4675 53.17125 15 54 C14.34 54 13.68 54 13 54 C12.89429687 54.59296875 12.78859375 55.1859375 12.6796875 55.796875 C11.90592401 58.30493596 10.98153209 59.42117734 9.125 61.25 C8.61195312 61.77078125 8.09890625 62.2915625 7.5703125 62.828125 C6 64 6 64 3 64 C3 64.66 3 65.32 3 66 C1.68 65.34 0.36 64.68 -1 64 C-1.0231271 55.80309439 -1.04091696 47.60620232 -1.05181217 39.40927219 C-1.0570402 35.60348423 -1.06413638 31.79771852 -1.07543945 27.99194336 C-1.0862712 24.32207456 -1.09227744 20.65222722 -1.09487724 16.98234367 C-1.09673097 15.57925008 -1.1003506 14.17615771 -1.10573006 12.7730732 C-1.11294419 10.8143032 -1.11340809 8.8555118 -1.11352539 6.89672852 C-1.115746 5.77976089 -1.11796661 4.66279327 -1.12025452 3.51197815 C-1 1 -1 1 0 0 Z " fill="#F1F1F1" transform="translate(75,89)"/>
<path d="M0 0 C0 0.66 0 1.32 0 2 C0.66 2 1.32 2 2 2 C1 5 1 5 -1.58203125 6.38671875 C-2.64808594 6.81597656 -3.71414062 7.24523438 -4.8125 7.6875 C-6.39998047 8.34298828 -6.39998047 8.34298828 -8.01953125 9.01171875 C-11 10 -11 10 -15 10 C-15 10.66 -15 11.32 -15 12 C-19.27717389 12.75479539 -22.80811428 13.3174498 -27 12 C-27.66 11.34 -28.32 10.68 -29 10 C-30.79758545 9.2168532 -30.79758545 9.2168532 -32.8125 8.5625 C-36.14166639 7.37394515 -39.03161872 5.94800022 -42 4 C-41.7578125 2.10546875 -41.7578125 2.10546875 -41 0 C-28.87890596 -6.73683124 -12.26798533 -4.9502397 0 0 Z " fill="#EBEBEB" transform="translate(140,37)"/>
<path d="M0 0 C0.99 0.99 1.98 1.98 3 3 C3.33 2.34 3.66 1.68 4 1 C4.66 1.33 5.32 1.66 6 2 C5.38125 3.0725 4.7625 4.145 4.125 5.25 C2.6676321 7.79780984 1.27075509 10.35259355 0 13 C-1 12 -1 12 -1.125 8.75 C-1.02213207 5.66396211 -0.72382033 2.98575886 0 0 Z " fill="#A4A4A4" transform="translate(644,101)"/>
<path d="M0 0 C0.66 0.66 1.32 1.32 2 2 C0.41856529 3.43958847 -1.16522779 4.87658645 -2.75 6.3125 C-3.63171875 7.11300781 -4.5134375 7.91351563 -5.421875 8.73828125 C-7.55449328 10.60916911 -9.70187943 12.34084286 -12 14 C-10.49946106 10.88349604 -8.93818042 7.86850702 -7 5 C-6.01 4.67 -5.02 4.34 -4 4 C-3.67 3.34 -3.34 2.68 -3 2 C-2.01 2 -1.02 2 0 2 C0 1.34 0 0.68 0 0 Z " fill="#B2B2B2" transform="translate(755,89)"/>
<path d="M0 0 C0.66 0.33 1.32 0.66 2 1 C-0.64 3.64 -3.28 6.28 -6 9 C-6.33 8.01 -6.66 7.02 -7 6 C-6.34 6 -5.68 6 -5 6 C-4.67 5.01 -4.34 4.02 -4 3 C-1.9375 1.3125 -1.9375 1.3125 0 0 Z " fill="#C9C9C9" transform="translate(659,91)"/>
<path d="" fill="#000000" transform="translate(0,0)"/>
<path d="" fill="#000000" transform="translate(0,0)"/>
</svg>
