<svg version="1.1" id="Layer_1" xmlns="http://www.w3.org/2000/svg" xmlns:xlink="http://www.w3.org/1999/xlink" x="0px" y="0px"
	 width="100%" viewBox="0 0 687 141" enable-background="new 0 0 687 141" xml:space="preserve">
<path fill="#FDFDFD" opacity="1.000000" stroke="none" 
	d="
M458.000000,142.000000 
	C305.333344,142.000000 153.166702,142.000000 1.000041,142.000000 
	C1.000027,95.000023 1.000027,48.000046 1.000014,1.000053 
	C229.999939,1.000036 458.999878,1.000036 687.999878,1.000018 
	C687.999878,47.999943 687.999878,94.999886 687.999939,141.999908 
	C611.500000,142.000000 535.000000,142.000000 458.000000,142.000000 
M370.087494,59.348087 
	C363.354248,59.433926 356.621033,59.519764 349.342377,59.513504 
	C349.222687,59.653751 349.102997,59.793995 348.317505,60.192150 
	C343.503723,70.752388 338.689972,81.312630 333.584961,92.511757 
	C329.759705,83.883484 325.737640,76.161385 322.909698,68.024292 
	C320.452362,60.953674 316.585052,58.242706 309.104675,59.110081 
	C305.508423,59.527084 303.525299,60.248909 302.094666,63.711689 
	C298.188660,73.165756 293.881561,82.454109 289.407166,92.543671 
	C285.151978,83.170517 280.790894,74.724495 277.495026,65.881447 
	C275.423889,60.324333 272.354675,58.603123 266.800537,59.220078 
	C262.724457,59.672852 258.557617,59.308826 254.594009,59.308826 
	C246.628082,30.668310 221.616562,15.983292 195.432465,21.037401 
	C171.665695,25.624908 154.650879,48.354336 155.765640,74.332779 
	C156.884811,100.413246 174.851456,120.011345 200.259491,122.559021 
	C212.215317,123.757835 223.542099,121.524055 233.516174,114.486984 
	C248.113358,104.188133 255.185852,89.771584 255.632294,70.696754 
	C257.185577,73.314514 258.050842,74.657570 258.804474,76.060577 
	C266.206024,89.839851 273.550598,103.649994 281.034637,117.384224 
	C281.809937,118.806999 283.231018,120.595360 284.610077,120.857124 
	C294.814728,122.794128 297.141235,121.419853 301.397491,111.855774 
	C304.636658,104.577110 307.915710,97.316193 311.342590,89.678299 
	C311.979156,90.606720 312.212738,90.857193 312.344574,91.153023 
	C315.323517,97.838150 318.281372,104.532700 321.263550,111.216377 
	C325.844391,121.482811 325.855835,121.562958 337.189453,120.888512 
	C338.653564,120.801376 340.686005,119.679497 341.357269,118.441589 
	C351.347046,100.019531 361.151672,81.497063 371.765778,63.407009 
	C371.765778,82.489769 371.765778,101.572533 371.765778,120.737595 
	C379.339142,120.737595 386.089996,120.737595 392.845032,120.737595 
	C392.845032,86.289574 392.845032,52.096428 392.845032,18.092224 
	C385.724518,18.092224 378.990540,18.092224 371.986877,18.092224 
	C371.986877,30.441713 372.026276,42.414631 371.942932,54.386696 
	C371.930878,56.114475 371.328796,57.838150 370.087494,59.348087 
M562.689026,112.819763 
	C575.759338,124.086250 590.702332,125.420341 606.228149,119.845016 
	C618.212708,115.541359 625.726318,106.673393 626.974365,93.551979 
	C628.298279,79.632591 622.296387,69.341766 610.364258,62.509666 
	C601.125427,57.219666 591.050964,56.385536 580.835876,58.599369 
	C567.039612,61.589340 557.591064,69.708435 554.031372,82.144531 
	C550.717773,77.459091 547.709045,71.567268 543.218933,67.197716 
	C533.955627,58.183121 522.136597,56.455566 509.735016,58.093174 
	C493.228973,60.272778 480.688843,73.022568 479.947662,88.171677 
	C479.140137,104.677101 488.761597,117.906181 505.583130,121.290977 
	C512.872864,122.757812 520.948792,122.664627 528.251770,121.202820 
	C541.200684,118.610870 549.666565,110.056664 553.428711,96.835716 
	C554.702942,99.938576 555.519592,102.682899 556.907043,105.099434 
	C558.382385,107.668999 560.398682,109.927963 562.689026,112.819763 
M120.577446,26.938358 
	C119.526436,25.870125 118.489807,24.787285 117.422287,23.735817 
	C97.293701,3.910088 66.642960,-0.726739 41.155586,12.193542 
	C15.710689,25.092289 1.421867,53.050209 5.875350,81.223854 
	C10.229884,108.771545 31.771175,131.163010 58.517815,135.943924 
	C87.498772,141.124237 114.875359,128.336136 129.201767,102.926170 
	C142.708176,78.970589 139.421707,48.577885 120.577446,26.938358 
M433.292542,21.980400 
	C422.853760,21.980400 412.414948,21.980400 401.847443,21.980400 
	C401.847443,55.135960 401.847443,87.846268 401.847443,120.982826 
	C411.654938,120.982826 421.272552,121.062920 430.888428,120.967613 
	C458.244232,120.696465 479.214508,100.555367 480.264740,73.625999 
	C481.342529,45.989876 461.960571,24.259689 433.292542,21.980400 
M656.119202,79.643883 
	C662.523193,73.980492 669.249634,75.696098 676.121033,79.010857 
	C676.693970,78.033516 677.239807,77.222130 677.667603,76.352638 
	C680.077271,71.454933 682.458618,66.543259 684.835083,61.666084 
	C674.435852,54.830029 665.756165,56.285351 652.738220,67.068787 
	C652.553772,64.482353 652.384033,62.101788 652.213135,59.705177 
	C645.046204,59.705177 638.182373,59.705177 631.486816,59.705177 
	C631.486816,80.340645 631.486816,100.575638 631.486816,120.727188 
	C638.604065,120.727188 645.361145,120.727188 652.473511,120.727188 
	C652.473511,110.823463 652.183289,101.172829 652.617371,91.554878 
	C652.789368,87.743362 654.569763,84.004425 656.119202,79.643883 
z"/>
<path fill="#383838" opacity="1.000000" stroke="none" 
	d="
M371.000000,62.998314 
	C361.151672,81.497063 351.347046,100.019531 341.357269,118.441589 
	C340.686005,119.679497 338.653564,120.801376 337.189453,120.888512 
	C325.855835,121.562958 325.844391,121.482811 321.263550,111.216377 
	C318.281372,104.532700 315.323517,97.838150 312.344574,91.153023 
	C312.212738,90.857193 311.979156,90.606720 311.342590,89.678299 
	C307.915710,97.316193 304.636658,104.577110 301.397491,111.855774 
	C297.141235,121.419853 294.814728,122.794128 284.610077,120.857124 
	C283.231018,120.595360 281.809937,118.806999 281.034637,117.384224 
	C273.550598,103.649994 266.206024,89.839851 258.804474,76.060577 
	C258.050842,74.657570 257.185577,73.314514 255.632294,70.696754 
	C255.185852,89.771584 248.113358,104.188133 233.516174,114.486984 
	C223.542099,121.524055 212.215317,123.757835 200.259491,122.559021 
	C174.851456,120.011345 156.884811,100.413246 155.765640,74.332779 
	C154.650879,48.354336 171.665695,25.624908 195.432465,21.037401 
	C221.616562,15.983292 246.628082,30.668310 254.594009,59.308826 
	C258.557617,59.308826 262.724457,59.672852 266.800537,59.220078 
	C272.354675,58.603123 275.423889,60.324333 277.495026,65.881447 
	C280.790894,74.724495 285.151978,83.170517 289.407166,92.543671 
	C293.881561,82.454109 298.188660,73.165756 302.094666,63.711689 
	C303.525299,60.248909 305.508423,59.527084 309.104675,59.110081 
	C316.585052,58.242706 320.452362,60.953674 322.909698,68.024292 
	C325.737640,76.161385 329.759705,83.883484 333.584961,92.511757 
	C338.689972,81.312630 343.503723,70.752388 348.773071,60.227795 
	C349.448334,60.044155 349.668060,59.824875 349.887787,59.605595 
	C356.621033,59.519764 363.354248,59.433926 370.543945,59.799248 
	C371.000275,61.166378 371.000153,62.082348 371.000000,62.998314 
M229.200287,59.466568 
	C224.425766,46.782818 216.608841,41.347527 203.970093,41.923439 
	C192.904846,42.427654 184.629562,49.427437 181.422195,61.212803 
	C179.220993,69.301056 179.463196,77.447121 182.413651,85.255196 
	C185.967117,94.659019 193.060074,99.957359 203.112961,100.790535 
	C213.408142,101.643776 221.823227,98.289627 226.905380,88.764534 
	C231.768723,79.649574 232.233994,70.063850 229.200287,59.466568 
z"/>
<path fill="#040404" opacity="1.000000" stroke="none" 
	d="
M562.433899,112.571159 
	C560.398682,109.927963 558.382385,107.668999 556.907043,105.099434 
	C555.519592,102.682899 554.702942,99.938576 553.428711,96.835716 
	C549.666565,110.056664 541.200684,118.610870 528.251770,121.202820 
	C520.948792,122.664627 512.872864,122.757812 505.583130,121.290977 
	C488.761597,117.906181 479.140137,104.677101 479.947662,88.171677 
	C480.688843,73.022568 493.228973,60.272778 509.735016,58.093174 
	C522.136597,56.455566 533.955627,58.183121 543.218933,67.197716 
	C547.709045,71.567268 550.717773,77.459091 554.031372,82.144531 
	C557.591064,69.708435 567.039612,61.589340 580.835876,58.599369 
	C591.050964,56.385536 601.125427,57.219666 610.364258,62.509666 
	C622.296387,69.341766 628.298279,79.632591 626.974365,93.551979 
	C625.726318,106.673393 618.212708,115.541359 606.228149,119.845016 
	C590.702332,125.420341 575.759338,124.086250 562.433899,112.571159 
M603.640137,95.858521 
	C605.748596,89.022263 604.681946,82.963440 598.803467,78.456085 
	C592.384521,73.534370 582.643494,75.347130 578.173828,82.056183 
	C573.853333,88.541245 575.717407,98.254440 582.080261,102.411476 
	C589.287170,107.119965 598.623230,104.526878 603.640137,95.858521 
M508.441711,102.242157 
	C515.403564,105.874130 522.118774,105.346725 526.862610,100.795372 
	C531.320801,96.518105 532.495117,88.981331 529.586243,83.314781 
	C526.724548,77.740257 520.725586,74.851196 514.078613,75.994728 
	C508.720123,76.916603 504.826935,80.017273 503.305664,85.161163 
	C501.448151,91.441902 502.326843,97.354492 508.441711,102.242157 
z"/>
<path fill="#353535" opacity="1.000000" stroke="none" 
	d="
M120.810081,27.205620 
	C139.421707,48.577885 142.708176,78.970589 129.201767,102.926170 
	C114.875359,128.336136 87.498772,141.124237 58.517815,135.943924 
	C31.771175,131.163010 10.229884,108.771545 5.875350,81.223854 
	C1.421867,53.050209 15.710689,25.092289 41.155586,12.193542 
	C66.642960,-0.726739 97.293701,3.910088 117.422287,23.735817 
	C118.489807,24.787285 119.526436,25.870125 120.810081,27.205620 
M113.086182,81.758621 
	C113.337875,81.341270 113.805588,80.925934 113.809502,80.506271 
	C113.896416,71.186951 113.980286,61.866741 113.900848,52.548100 
	C113.893166,51.645573 112.814148,50.752174 111.987694,49.200062 
	C111.082848,45.327930 110.741394,41.210854 109.181686,37.623444 
	C99.079781,14.388636 74.019600,9.212152 55.002037,16.970188 
	C39.304516,23.373846 31.629829,35.996105 29.948330,53.228619 
	C29.633156,54.299084 29.046280,55.368755 29.043142,56.440136 
	C28.986702,75.712715 28.969574,94.985672 29.075144,114.257835 
	C29.081678,115.450706 30.172630,116.637650 31.006464,118.504196 
	C32.674210,119.456169 34.307690,121.153870 36.015572,121.232353 
	C43.826473,121.591263 51.658203,121.499496 59.482502,121.563560 
	C71.635162,121.663048 83.787834,121.805016 95.940567,121.811981 
	C98.215889,121.813286 101.690437,122.899178 101.802536,119.131187 
	C101.913589,115.398293 98.529236,116.273041 96.159851,116.111320 
	C94.832489,116.020729 93.505974,115.917648 91.207581,115.748848 
	C104.080498,107.332985 110.400719,96.106430 113.086182,81.758621 
z"/>
<path fill="#020202" opacity="1.000000" stroke="none" 
	d="
M433.762512,21.998606 
	C461.960571,24.259689 481.342529,45.989876 480.264740,73.625999 
	C479.214508,100.555367 458.244232,120.696465 430.888428,120.967613 
	C421.272552,121.062920 411.654938,120.982826 401.847443,120.982826 
	C401.847443,87.846268 401.847443,55.135960 401.847443,21.980400 
	C412.414948,21.980400 422.853760,21.980400 433.762512,21.998606 
M424.141357,48.628902 
	C424.141357,65.898155 424.141357,83.167412 424.141357,100.690285 
	C436.298309,101.492332 445.826019,97.674675 451.643860,87.393547 
	C458.068420,76.040245 457.794708,64.373184 450.377014,53.436249 
	C444.391510,44.611031 433.934998,40.554943 424.141632,42.810875 
	C424.141632,44.383179 424.141632,46.025993 424.141357,48.628902 
z"/>
<path fill="#383838" opacity="1.000000" stroke="none" 
	d="
M371.382874,63.202660 
	C371.000153,62.082348 371.000275,61.166378 371.000092,59.907066 
	C371.328796,57.838150 371.930878,56.114475 371.942932,54.386696 
	C372.026276,42.414631 371.986877,30.441713 371.986877,18.092224 
	C378.990540,18.092224 385.724518,18.092224 392.845032,18.092224 
	C392.845032,52.096428 392.845032,86.289574 392.845032,120.737595 
	C386.089996,120.737595 379.339142,120.737595 371.765778,120.737595 
	C371.765778,101.572533 371.765778,82.489769 371.382874,63.202660 
z"/>
<path fill="#050505" opacity="1.000000" stroke="none" 
	d="
M655.868530,79.938164 
	C654.569763,84.004425 652.789368,87.743362 652.617371,91.554878 
	C652.183289,101.172829 652.473511,110.823463 652.473511,120.727188 
	C645.361145,120.727188 638.604065,120.727188 631.486816,120.727188 
	C631.486816,100.575638 631.486816,80.340645 631.486816,59.705177 
	C638.182373,59.705177 645.046204,59.705177 652.213135,59.705177 
	C652.384033,62.101788 652.553772,64.482353 652.738220,67.068787 
	C665.756165,56.285351 674.435852,54.830029 684.835083,61.666084 
	C682.458618,66.543259 680.077271,71.454933 677.667603,76.352638 
	C677.239807,77.222130 676.693970,78.033516 676.121033,79.010857 
	C669.249634,75.696098 662.523193,73.980492 655.868530,79.938164 
z"/>
<path fill="#2C2C2C" opacity="1.000000" stroke="none" 
	d="
M349.615082,59.559547 
	C349.668060,59.824875 349.448334,60.044155 349.105957,60.098839 
	C349.102997,59.793995 349.222687,59.653751 349.615082,59.559547 
z"/>
<path fill="#FCFCFC" opacity="1.000000" stroke="none" 
	d="
M229.337662,59.845646 
	C232.233994,70.063850 231.768723,79.649574 226.905380,88.764534 
	C221.823227,98.289627 213.408142,101.643776 203.112961,100.790535 
	C193.060074,99.957359 185.967117,94.659019 182.413651,85.255196 
	C179.463196,77.447121 179.220993,69.301056 181.422195,61.212803 
	C184.629562,49.427437 192.904846,42.427654 203.970093,41.923439 
	C216.608841,41.347527 224.425766,46.782818 229.337662,59.845646 
z"/>
<path fill="#F9F9F9" opacity="1.000000" stroke="none" 
	d="
M603.450317,96.193611 
	C598.623230,104.526878 589.287170,107.119965 582.080261,102.411476 
	C575.717407,98.254440 573.853333,88.541245 578.173828,82.056183 
	C582.643494,75.347130 592.384521,73.534370 598.803467,78.456085 
	C604.681946,82.963440 605.748596,89.022263 603.450317,96.193611 
z"/>
<path fill="#FAFAFA" opacity="1.000000" stroke="none" 
	d="
M508.126465,102.037445 
	C502.326843,97.354492 501.448151,91.441902 503.305664,85.161163 
	C504.826935,80.017273 508.720123,76.916603 514.078613,75.994728 
	C520.725586,74.851196 526.724548,77.740257 529.586243,83.314781 
	C532.495117,88.981331 531.320801,96.518105 526.862610,100.795372 
	C522.118774,105.346725 515.403564,105.874130 508.126465,102.037445 
z"/>
<path fill="#F4F3F3" opacity="1.000000" stroke="none" 
	d="
M30.813009,52.843025 
	C31.629829,35.996105 39.304516,23.373846 55.002037,16.970188 
	C74.019600,9.212152 99.079781,14.388636 109.181686,37.623444 
	C110.741394,41.210854 111.082848,45.327930 112.043434,49.985153 
	C112.147499,61.237057 112.195824,71.703873 112.244148,82.170685 
	C110.400719,96.106430 104.080498,107.332985 91.207581,115.748848 
	C93.505974,115.917648 94.832489,116.020729 96.159851,116.111320 
	C98.529236,116.273041 101.913589,115.398293 101.802536,119.131187 
	C101.690437,122.899178 98.215889,121.813286 95.940567,121.811981 
	C83.787834,121.805016 71.635162,121.663048 59.482502,121.563560 
	C51.658203,121.499496 43.826473,121.591263 36.015572,121.232353 
	C34.307690,121.153870 32.674210,119.456169 30.968311,117.777199 
	C30.891109,95.647812 30.852060,74.245415 30.813009,52.843025 
M75.876389,115.282867 
	C80.194328,113.648163 84.885246,112.626900 88.763412,110.268913 
	C102.947914,101.644478 110.372108,82.415611 106.081680,66.247261 
	C105.858490,65.406181 103.439240,64.206123 103.126366,64.468040 
	C94.936394,71.324203 85.147781,69.253632 75.818031,69.472908 
	C68.234489,69.651154 60.643410,69.509132 52.913891,69.509132 
	C58.869259,92.789612 57.395813,100.824333 44.394386,114.254173 
	C44.607986,114.735435 44.821587,115.216690 45.960003,115.822746 
	C54.626949,115.739159 63.293892,115.655563 72.585655,115.757957 
	C73.416580,115.581596 74.247505,115.405243 75.876389,115.282867 
M39.451927,54.664627 
	C42.150181,59.694618 46.353199,63.353973 51.937809,63.537674 
	C65.067070,63.969551 78.246521,64.089600 91.357643,63.409775 
	C99.387650,62.993404 104.992447,55.933369 105.525352,47.804951 
	C106.039673,39.960018 100.875534,32.646301 93.244133,30.411694 
	C85.908401,28.263664 77.793709,31.520962 73.855156,38.207928 
	C73.135674,39.429485 72.464638,40.679577 71.657326,42.119690 
	C64.468391,30.565176 56.442703,27.145851 47.267567,31.423725 
	C39.121555,35.221775 35.781227,44.421265 39.451927,54.664627 
M38.534916,111.785629 
	C57.603863,98.331055 53.193722,70.237953 36.796772,62.558895 
	C36.796772,78.460800 36.785126,94.281960 36.837368,110.102905 
	C36.839565,110.767860 37.436493,111.430855 38.534916,111.785629 
M58.195721,24.383959 
	C62.809776,26.408922 67.423836,28.433884 71.476585,30.212507 
	C76.901932,27.826227 82.401016,25.407515 87.453072,23.185425 
	C80.018105,18.070097 61.389275,18.158670 55.391567,23.974058 
	C56.131275,24.082685 56.778599,24.177746 58.195721,24.383959 
z"/>
<path fill="#2C2C2C" opacity="1.000000" stroke="none" 
	d="
M30.380669,53.035820 
	C30.852060,74.245415 30.891109,95.647812 30.844604,117.438774 
	C30.172630,116.637650 29.081678,115.450706 29.075144,114.257835 
	C28.969574,94.985672 28.986702,75.712715 29.043142,56.440136 
	C29.046280,55.368755 29.633156,54.299084 30.380669,53.035820 
z"/>
<path fill="#2C2C2C" opacity="1.000000" stroke="none" 
	d="
M112.665161,81.964653 
	C112.195824,71.703873 112.147499,61.237057 112.165810,50.312389 
	C112.814148,50.752174 113.893166,51.645573 113.900848,52.548100 
	C113.980286,61.866741 113.896416,71.186951 113.809502,80.506271 
	C113.805588,80.925934 113.337875,81.341270 112.665161,81.964653 
z"/>
<path fill="#FAFAFA" opacity="1.000000" stroke="none" 
	d="
M424.141479,48.148857 
	C424.141632,46.025993 424.141632,44.383179 424.141632,42.810875 
	C433.934998,40.554943 444.391510,44.611031 450.377014,53.436249 
	C457.794708,64.373184 458.068420,76.040245 451.643860,87.393547 
	C445.826019,97.674675 436.298309,101.492332 424.141357,100.690285 
	C424.141357,83.167412 424.141357,65.898155 424.141479,48.148857 
z"/>
<path fill="#353536" opacity="1.000000" stroke="none" 
	d="
M71.960838,115.571976 
	C63.293892,115.655563 54.626949,115.739159 45.498844,115.484131 
	C45.030624,114.777313 45.023563,114.409103 45.016499,114.040894 
	C57.395813,100.824333 58.869259,92.789612 52.913891,69.509132 
	C60.643410,69.509132 68.234489,69.651154 75.818031,69.472908 
	C85.147781,69.253632 94.936394,71.324203 103.126366,64.468040 
	C103.439240,64.206123 105.858490,65.406181 106.081680,66.247261 
	C110.372108,82.415611 102.947914,101.644478 88.763412,110.268913 
	C84.885246,112.626900 80.194328,113.648163 75.309250,114.995934 
	C73.815025,114.996658 72.887932,115.284317 71.960838,115.571976 
z"/>
<path fill="#363636" opacity="1.000000" stroke="none" 
	d="
M39.269402,54.309258 
	C35.781227,44.421265 39.121555,35.221775 47.267567,31.423725 
	C56.442703,27.145851 64.468391,30.565176 71.657326,42.119690 
	C72.464638,40.679577 73.135674,39.429485 73.855156,38.207928 
	C77.793709,31.520962 85.908401,28.263664 93.244133,30.411694 
	C100.875534,32.646301 106.039673,39.960018 105.525352,47.804951 
	C104.992447,55.933369 99.387650,62.993404 91.357643,63.409775 
	C78.246521,64.089600 65.067070,63.969551 51.937809,63.537674 
	C46.353199,63.353973 42.150181,59.694618 39.269402,54.309258 
M95.705818,43.932884 
	C93.302040,40.105949 89.733292,37.853817 85.668121,40.145248 
	C83.203796,41.534313 80.942146,44.804024 80.342285,47.604317 
	C79.547462,51.314754 82.255524,54.042843 85.896614,55.467766 
	C91.322807,57.591282 98.784538,51.741119 95.705818,43.932884 
M51.673283,40.072304 
	C46.972420,43.147476 45.440308,47.239231 47.457294,51.331783 
	C49.241608,54.952240 53.894234,56.781796 57.624195,55.329727 
	C61.555878,53.799126 63.806049,49.633614 62.835724,45.682148 
	C61.715923,41.121975 57.936958,39.002884 51.673283,40.072304 
M71.505783,61.014561 
	C72.973030,58.886452 74.440285,56.758343 75.763603,54.838993 
	C74.322075,52.965347 73.223381,51.537300 71.965416,49.902233 
	C70.014244,51.758934 68.711769,52.998348 67.277702,54.362988 
	C68.567368,56.569752 69.733177,58.564598 71.505783,61.014561 
z"/>
<path fill="#373737" opacity="1.000000" stroke="none" 
	d="
M38.145638,111.940193 
	C37.436493,111.430855 36.839565,110.767860 36.837368,110.102905 
	C36.785126,94.281960 36.796772,78.460800 36.796772,62.558895 
	C53.193722,70.237953 57.603863,98.331055 38.145638,111.940193 
z"/>
<path fill="#3B3B3B" opacity="1.000000" stroke="none" 
	d="
M57.810822,24.328384 
	C56.778599,24.177746 56.131275,24.082685 55.391567,23.974058 
	C61.389275,18.158670 80.018105,18.070097 87.453072,23.185425 
	C82.401016,25.407515 76.901932,27.826227 71.476585,30.212507 
	C67.423836,28.433884 62.809776,26.408922 57.810822,24.328384 
z"/>
<path fill="#484545" opacity="1.000000" stroke="none" 
	d="
M72.273247,115.664963 
	C72.887932,115.284317 73.815025,114.996658 74.910271,114.968948 
	C74.247505,115.405243 73.416580,115.581596 72.273247,115.664963 
z"/>
<path fill="#484545" opacity="1.000000" stroke="none" 
	d="
M44.705444,114.147537 
	C45.023563,114.409103 45.030624,114.777313 45.036438,115.421738 
	C44.821587,115.216690 44.607986,114.735435 44.705444,114.147537 
z"/>
<path fill="#F7F7F6" opacity="1.000000" stroke="none" 
	d="
M95.855721,44.275143 
	C98.784538,51.741119 91.322807,57.591282 85.896614,55.467766 
	C82.255524,54.042843 79.547462,51.314754 80.342285,47.604317 
	C80.942146,44.804024 83.203796,41.534313 85.668121,40.145248 
	C89.733292,37.853817 93.302040,40.105949 95.855721,44.275143 
z"/>
<path fill="#F7F7F6" opacity="1.000000" stroke="none" 
	d="
M52.031364,39.948303 
	C57.936958,39.002884 61.715923,41.121975 62.835724,45.682148 
	C63.806049,49.633614 61.555878,53.799126 57.624195,55.329727 
	C53.894234,56.781796 49.241608,54.952240 47.457294,51.331783 
	C45.440308,47.239231 46.972420,43.147476 52.031364,39.948303 
z"/>
<path fill="#EDECEC" opacity="1.000000" stroke="none" 
	d="
M71.202393,60.787003 
	C69.733177,58.564598 68.567368,56.569752 67.277702,54.362988 
	C68.711769,52.998348 70.014244,51.758934 71.965416,49.902233 
	C73.223381,51.537300 74.322075,52.965347 75.763603,54.838993 
	C74.440285,56.758343 72.973030,58.886452 71.202393,60.787003 
z"/>
</svg>