<?xml version="1.0" encoding="UTF-8"?>
<svg version="1.1" xmlns="http://www.w3.org/2000/svg" width="570" height="597">
<path d="M0 0 C16.64346919 8.84604421 27.73209789 23.01748542 33.75 40.6875 C40.11918815 63.08563504 40.51646885 85.90086065 35.75 108.6875 C35.60498047 109.38439941 35.45996094 110.08129883 35.31054688 110.79931641 C31.71757475 126.98713346 23.38793819 141.66251837 15.875 156.30078125 C10.90756485 166.00818886 6.31872655 175.75199632 2.25 185.875 C1.84056152 186.89013672 1.43112305 187.90527344 1.00927734 188.95117188 C-4.43540665 202.81036751 -8.56898117 216.95215249 -4.25 231.6875 C-3.26 231.3575 -2.27 231.0275 -1.25 230.6875 C0.39159753 230.57237322 2.03724241 230.51113397 3.68261719 230.48217773 C4.68927429 230.46223251 5.6959314 230.44228729 6.73309326 230.42173767 C8.37341522 230.39666893 8.37341522 230.39666893 10.046875 230.37109375 C11.18666809 230.35031265 12.32646118 230.32953156 13.50079346 230.30812073 C15.92855021 230.26479524 18.35634874 230.22376104 20.78417969 230.18481445 C24.41612466 230.12635016 28.04788712 230.06092722 31.6796875 229.99414062 C52.49972926 229.62498146 73.30795302 229.48477319 94.125 230.0625 C94.90861908 230.08395081 95.69223816 230.10540161 96.49960327 230.12750244 C154.99684463 231.78038832 154.99684463 231.78038832 169.62109375 245.4296875 C182.94832737 259.56389122 196.41661227 278.16282261 196.21484375 298.25 C195.41595947 304.15771571 192.33114054 308.06457312 188.75 312.6875 C187.94854187 313.75633144 187.1491235 314.82669488 186.3515625 315.8984375 C184.80916294 317.96829619 183.24783359 320.01646209 181.66796875 322.05859375 C178.44198634 326.48035783 177.16513879 329.62251273 177.31640625 335.0859375 C178.77656515 343.84689088 184.98909978 351.95473918 189.58959961 359.43603516 C194.18032164 366.90845794 197.24619112 372.69778026 195.75 381.6875 C192.85949199 388.43201868 187.15427887 393.60988704 182.2265625 398.90234375 C176.3908021 405.46527303 171.422935 411.42577039 171.54931641 420.50244141 C171.88773168 424.18713324 173.11707185 427.44036953 174.4375 430.875 C174.70715576 431.61186035 174.97681152 432.3487207 175.25463867 433.10791016 C176.51640302 436.53116393 177.84375604 439.91643341 179.2265625 443.29296875 C182.45127471 451.18502758 185.41756518 459.2367151 182.8125 467.75 C178.13485389 477.8984583 169.01330315 485.5874728 161.09741211 493.17919922 C155.23136899 498.88774378 149.96059534 504.49033936 149.66821289 513.09423828 C149.6861792 513.97321777 149.70414551 514.85219727 149.72265625 515.7578125 C149.73490234 516.7375 149.74714844 517.7171875 149.75976562 518.7265625 C149.7945227 520.7604948 149.83348535 522.79436021 149.87695312 524.828125 C150.06240032 541.54018968 144.19840996 550.78424628 132.8359375 562.6640625 C107.76392881 587.86589389 77.38480241 590.79763018 43.31640625 590.890625 C41.73337785 590.89756245 40.15034969 590.90455755 38.56732178 590.91160583 C33.48237863 590.93091254 28.39747544 590.93553296 23.3125 590.9375 C22.44521145 590.93823643 21.5779229 590.93897285 20.68435287 590.9397316 C-2.22255325 590.95557854 -25.06413598 590.72643267 -47.9375 589.375 C-48.94255585 589.31614624 -49.94761169 589.25729248 -50.98312378 589.19665527 C-56.98313992 588.83396332 -62.97413683 588.39295238 -68.96658325 587.92269897 C-72.40467553 587.67642022 -75.84250013 587.49855379 -79.28491211 587.32348633 C-110.38872679 585.47744081 -140.89248107 578.82337266 -171.4375 573 C-191.175625 569.266875 -210.91375 565.53375 -231.25 561.6875 C-231.25 480.5075 -231.25 399.3275 -231.25 315.6875 C-225.97 315.3575 -220.69 315.0275 -215.25 314.6875 C-208.08565828 312.4893497 -202.97608892 309.42960263 -197.25 304.6875 C-196.43402344 304.06488281 -195.61804688 303.44226563 -194.77734375 302.80078125 C-190.26218548 299.02535525 -186.85434321 294.31034112 -183.25 289.6875 C-182.82944336 289.15785645 -182.40888672 288.62821289 -181.97558594 288.08251953 C-161.07666021 261.61632157 -147.35383733 229.45000633 -134.50390625 198.484375 C-133.4223746 195.88411165 -132.33759331 193.28523374 -131.25 190.6875 C-130.95542908 189.98303741 -130.66085815 189.27857483 -130.35736084 188.55276489 C-129.45356667 186.40264199 -128.53883853 184.25748164 -127.62109375 182.11328125 C-127.35027481 181.46595032 -127.07945587 180.81861938 -126.8004303 180.15167236 C-119.59947329 163.47394519 -105.17842703 153.04205039 -91.21484375 142.3671875 C-60.99136129 118.6474924 -52.31662874 78.25854118 -47.8495636 42.03652954 C-46.65432941 32.11249701 -45.48815912 22.18348032 -44.734375 12.21484375 C-44.65985107 11.28389893 -44.58532715 10.3529541 -44.50854492 9.39379883 C-44.38275922 7.73759435 -44.27696977 6.0796797 -44.1965332 4.4206543 C-43.91621493 0.66371097 -43.539577 -1.01483957 -40.87109375 -3.7578125 C-28.8071133 -10.91349688 -11.61923619 -5.3901833 0 0 Z " fill="#5E8061" transform="translate(374.25,6.3125)"/>
<path d="M0 0 C0.77485245 -0.00671722 1.5497049 -0.01343445 2.34803772 -0.02035522 C4.89713037 -0.03927535 7.44595878 -0.04325664 9.99511719 -0.04541016 C11.77862656 -0.05184322 13.56213489 -0.05857196 15.34564209 -0.06558228 C19.08120162 -0.07754079 22.81666878 -0.08126467 26.55224609 -0.08007812 C31.31783926 -0.07987524 36.08283405 -0.10715183 40.84828568 -0.14162254 C44.53225373 -0.16396201 48.21607951 -0.16791348 51.90010834 -0.16685867 C53.65583097 -0.16920501 55.4115581 -0.17797353 57.16721344 -0.19352341 C77.04241 -0.35305172 77.04241 -0.35305172 85.44433594 6.14990234 C85.9509375 6.77380859 86.45753906 7.39771484 86.97949219 8.04052734 C87.50414063 8.65412109 88.02878906 9.26771484 88.56933594 9.89990234 C92.66826995 16.5538748 93.48062589 22.4867426 93.42294312 30.12023926 C93.42762309 31.08106493 93.43230306 32.04189061 93.43712485 33.03183222 C93.4490452 36.23604487 93.43962904 39.4398275 93.43017578 42.64404297 C93.43424279 44.94748686 93.43958539 47.25092881 93.44610596 49.55436707 C93.45976991 55.80014782 93.4544846 62.04577972 93.4449687 68.29156303 C93.4373674 74.83146436 93.44441903 81.37135305 93.4491272 87.91125488 C93.45553206 99.59653902 93.44561641 111.28176062 93.43034919 122.96703392 C93.41694673 133.55260038 93.41927505 144.13806813 93.43310547 154.72363281 C93.44917577 167.02925235 93.45512768 179.33480899 93.44626868 191.6404376 C93.44159434 198.14970488 93.44096081 204.65890422 93.45087814 211.16816711 C93.45955114 217.28807142 93.45351953 223.40778951 93.43619537 229.52767372 C93.43223236 231.77222192 93.43336139 234.01678582 93.43998337 236.26132774 C93.44819602 239.32803442 93.43788019 242.3941465 93.42294312 245.46081543 C93.42963528 246.34642859 93.43632745 247.23204175 93.4432224 248.14449167 C93.3675447 256.1695121 91.22962644 262.98124245 86.04199219 269.29052734 C79.79518901 273.96930705 74.80957201 275.44039854 67.02563477 275.4675293 C66.20899353 275.47410049 65.39235229 275.48067169 64.55096436 275.48744202 C61.84614976 275.50716447 59.14139073 275.51883654 56.43652344 275.52880859 C55.51149206 275.53288412 54.58646069 275.53695965 53.63339806 275.54115868 C48.73533731 275.56201698 43.83730454 275.57631858 38.93920898 275.58569336 C33.88976594 275.59674491 28.84076513 275.63113102 23.79147816 275.67086506 C19.90086572 275.6970632 16.01035803 275.70538814 12.11966515 275.70897484 C10.25900989 275.71383413 8.3983591 275.72542934 6.5377903 275.74401283 C3.92661583 275.76846799 1.31657717 275.76742762 -1.29467773 275.76049805 C-2.43668388 275.77971313 -2.43668388 275.77971313 -3.60176086 275.79931641 C-10.13558724 275.73646573 -15.27707777 273.63984409 -20.20019531 269.32568359 C-20.73902344 268.67470703 -21.27785156 268.02373047 -21.83300781 267.35302734 C-22.38730469 266.70462891 -22.94160156 266.05623047 -23.51269531 265.38818359 C-27.25530185 259.95634654 -27.24906052 255.02946254 -27.23216248 248.6452179 C-27.23739915 247.66794886 -27.24263583 246.69067983 -27.2480312 245.68379658 C-27.26304447 242.40593703 -27.26373665 239.12823339 -27.2644043 235.8503418 C-27.27202496 233.50132483 -27.28045229 231.15231036 -27.28962708 228.80329895 C-27.31158999 222.41882488 -27.32037358 216.03439872 -27.32545352 209.64989114 C-27.32909542 205.66053654 -27.33533467 201.67119452 -27.34245491 197.68184471 C-27.36201893 186.62844943 -27.37842397 175.57506307 -27.38133144 164.52164936 C-27.38151901 163.81461389 -27.38170658 163.10757841 -27.38189984 162.37911762 C-27.38226608 160.94588387 -27.38262978 159.51265012 -27.38299095 158.07941637 C-27.38317376 157.36799168 -27.38335657 156.656567 -27.38354492 155.92358398 C-27.38372547 155.21128705 -27.38390602 154.49899012 -27.38409204 153.76510843 C-27.38763193 142.22934835 -27.41464349 130.69377514 -27.45204281 119.15807984 C-27.49016546 107.30403319 -27.50948921 95.45007915 -27.50979096 83.59596986 C-27.51037468 76.94457152 -27.51932775 70.29336972 -27.54778862 63.64202309 C-27.57396958 57.38337293 -27.57617375 51.12516363 -27.56013298 44.86648369 C-27.55831846 42.57277592 -27.56500932 40.2790428 -27.58095169 37.98538971 C-27.60143304 34.84665883 -27.59084713 31.70946738 -27.57273865 28.570755 C-27.58593862 27.66946643 -27.59913858 26.76817785 -27.61273855 25.8395775 C-27.5248716 19.14201476 -25.70563157 13.86795051 -21.95800781 8.29052734 C-15.47836042 2.02606574 -8.96776275 -0.01128707 0 0 Z " fill="#5D8060" transform="translate(26.9580078125,309.70947265625)"/>
</svg>
